<svg xmlns="http://www.w3.org/2000/svg" xmlns:xlink="http://www.w3.org/1999/xlink" viewBox="0 0 283.46 283.46"><defs><style>.a{fill:url(#a);}.b{fill:url(#b);}.c{fill:url(#c);}.d{fill:url(#d);}.e{fill:url(#e);}.f{fill:url(#f);}.g{fill:url(#g);}.h{fill:url(#h);}.i{fill:url(#i);}.j{fill:url(#j);}.k{fill:url(#k);}.l{fill:url(#l);}.m{fill:url(#m);}.n{fill:url(#n);}.o{fill:url(#o);}.p{fill:url(#p);}.q{fill:url(#q);}.r{fill:url(#r);}.s{fill:url(#s);}.t{fill:url(#t);}.u{fill:url(#u);}.v{fill:url(#v);}.w{fill:url(#w);}.x{fill:url(#x);}.y{fill:url(#y);}.z{fill:url(#z);}.aa{fill:url(#aa);}.ab{fill:url(#ab);}.ac{fill:url(#ac);}.ad{fill:url(#ad);}.ae{fill:url(#ae);}.af{fill:url(#af);}.ag{fill:url(#ag);}.ah{fill:url(#ah);}.ai{fill:url(#ai);}.aj{fill:url(#aj);}.ak{fill:url(#ak);}.al{fill:url(#al);}.am{fill:#4d4d4d;}.an{fill:#d49300;}.ao{fill:url(#am);}.ap{fill:url(#an);}.aq{fill:url(#ao);}.ar{fill:url(#ap);}.as{fill:url(#aq);}.at{fill:url(#ar);}.au{fill:url(#as);}.av{fill:url(#at);}.aw{fill:url(#au);}</style><radialGradient id="a" cx="74.76" cy="232.91" r="61.67" gradientTransform="translate(46.08 173.19) scale(1.09 0.26)" gradientUnits="userSpaceOnUse"><stop offset="0" stop-color="#999"/><stop offset="0.12" stop-color="#9b9d9d" stop-opacity="0.88"/><stop offset="1" stop-color="#acb7bd" stop-opacity="0"/></radialGradient><linearGradient id="b" x1="60.91" y1="-106.55" x2="70.03" y2="-106.55" gradientTransform="translate(66.72 175.56)" gradientUnits="userSpaceOnUse"><stop offset="0" stop-color="#fecb2b"/><stop offset="0.42" stop-color="#fffad0"/><stop offset="0.85" stop-color="#fecb2b"/></linearGradient><linearGradient id="c" x1="67.7" y1="34.65" x2="67.7" y2="25.86" gradientTransform="translate(35.34 148.14) rotate(19.18)" gradientUnits="userSpaceOnUse"><stop offset="0" stop-color="#2a2b2a"/><stop offset="0.13" stop-color="#5f5f5d"/><stop offset="0.26" stop-color="#939491"/><stop offset="0.33" stop-color="#a8a8a5"/><stop offset="0.4" stop-color="#a0a09d"/><stop offset="0.51" stop-color="#8b8b88"/><stop offset="0.63" stop-color="#686866"/><stop offset="0.78" stop-color="#383937"/><stop offset="0.84" stop-color="#202120"/></linearGradient><linearGradient id="d" x1="374.12" y1="-327.19" x2="401.86" y2="-327.19" gradientTransform="translate(-287.87 488.44)" gradientUnits="userSpaceOnUse"><stop offset="0" stop-color="#646464"/><stop offset="0.07" stop-color="#6d6e6e"/><stop offset="0.19" stop-color="#868888"/><stop offset="0.35" stop-color="#afb2b2"/><stop offset="0.49" stop-color="#dbe0e0"/><stop offset="1" stop-color="#646464"/></linearGradient><linearGradient id="e" x1="374.12" y1="-293.26" x2="401.86" y2="-293.26" gradientTransform="translate(-299.02 486.56)" xlink:href="#d"/><linearGradient id="f" x1="45.15" y1="-13.49" x2="85.82" y2="-13.49" gradientTransform="translate(35.34 148.14) rotate(19.18)" gradientUnits="userSpaceOnUse"><stop offset="0.03" stop-color="#7b7b7b"/><stop offset="0.25" stop-color="#fff"/><stop offset="0.47" stop-color="#6c6c6c"/><stop offset="0.47" stop-color="#686868"/><stop offset="0.58" stop-color="#6b6b6b"/><stop offset="0.64" stop-color="#737373"/><stop offset="0.69" stop-color="#818181"/><stop offset="0.74" stop-color="#969696"/><stop offset="0.77" stop-color="#a8a8a8"/><stop offset="0.81" stop-color="#989898"/><stop offset="0.89" stop-color="#6e6e6e"/><stop offset="1" stop-color="#2b2b2b"/></linearGradient><linearGradient id="g" x1="-421.29" y1="-33.19" x2="-393.55" y2="-33.19" gradientTransform="matrix(-0.94, -0.33, -0.33, 0.94, -286.47, 32.52)" xlink:href="#f"/><linearGradient id="h" x1="51.61" y1="546.63" x2="79.36" y2="546.63" gradientTransform="matrix(0.94, 0.33, 0.33, -0.94, -127.53, 616.41)" xlink:href="#f"/><linearGradient id="i" x1="45.15" y1="331.27" x2="85.82" y2="331.27" gradientTransform="matrix(0.94, 0.33, 1.3, -3.74, -386.6, 1361.22)" gradientUnits="userSpaceOnUse"><stop offset="0" stop-color="#dba500"/><stop offset="0.25" stop-color="#fff"/><stop offset="0.41" stop-color="#ffdf6c"/><stop offset="0.47" stop-color="#ffd336"/><stop offset="0.55" stop-color="#ffd439"/><stop offset="0.6" stop-color="#ffd641"/><stop offset="0.64" stop-color="#ffd950"/><stop offset="0.67" stop-color="#ffde64"/><stop offset="0.71" stop-color="#ffe57f"/><stop offset="0.74" stop-color="#ffed9f"/><stop offset="0.76" stop-color="#fff7c5"/><stop offset="0.77" stop-color="#fff8cb"/><stop offset="0.8" stop-color="#fcf0bb"/><stop offset="0.85" stop-color="#f3db91"/><stop offset="0.92" stop-color="#e4b94d"/><stop offset="1" stop-color="#d49300"/></linearGradient><linearGradient id="j" x1="48.81" y1="-44.46" x2="82.1" y2="-44.46" gradientTransform="translate(46.32 172.11)" gradientUnits="userSpaceOnUse"><stop offset="0.03" stop-color="#7b7b7b"/><stop offset="0.25" stop-color="#fff"/><stop offset="0.53" stop-color="#878787"/><stop offset="0.58" stop-color="#8f8f8f"/><stop offset="0.67" stop-color="#a7a7a7"/><stop offset="0.78" stop-color="#ccc"/><stop offset="0.79" stop-color="#cfcfcf"/><stop offset="0.85" stop-color="#cacaca"/><stop offset="0.93" stop-color="#bbb"/><stop offset="1" stop-color="#a8a8a8"/></linearGradient><linearGradient id="k" x1="54.59" y1="-63.03" x2="76.67" y2="-63.03" gradientTransform="translate(52.41 173.2)" xlink:href="#i"/><linearGradient id="l" x1="58.76" y1="-97.1" x2="72.5" y2="-97.1" gradientTransform="translate(63.6 175.09)" gradientUnits="userSpaceOnUse"><stop offset="0.03" stop-color="#b0b0b0"/><stop offset="0.42" stop-color="#fff"/><stop offset="0.6" stop-color="#f5f5f5"/><stop offset="0.9" stop-color="#dadada"/><stop offset="1" stop-color="#cfcfcf"/></linearGradient><linearGradient id="m" x1="373.59" y1="-281.98" x2="402.39" y2="-281.98" gradientTransform="matrix(0.99, 0.18, -0.33, 0.94, -381.47, 364.78)" gradientUnits="userSpaceOnUse"><stop offset="0" stop-color="#919ba1"/><stop offset="0.08" stop-color="#acb3b7"/><stop offset="0.24" stop-color="#d9dcdb"/><stop offset="0.36" stop-color="#f5f6f2"/><stop offset="0.42" stop-color="#fffffa"/><stop offset="0.51" stop-color="#f4f4f1"/><stop offset="0.67" stop-color="#d6d8d7"/><stop offset="0.88" stop-color="#a5abae"/><stop offset="1" stop-color="#868e94"/></linearGradient><linearGradient id="n" x1="374.12" y1="-283.77" x2="401.86" y2="-283.77" gradientTransform="matrix(0.99, 0.18, -0.33, 0.94, -381.47, 364.78)" xlink:href="#d"/><linearGradient id="o" x1="373.59" y1="-285.55" x2="402.39" y2="-285.55" xlink:href="#m"/><linearGradient id="p" x1="374.12" y1="-287.33" x2="401.86" y2="-287.33" gradientTransform="matrix(0.99, 0.18, -0.33, 0.94, -381.47, 364.78)" xlink:href="#d"/><linearGradient id="q" x1="373.59" y1="-289.12" x2="402.39" y2="-289.12" xlink:href="#m"/><linearGradient id="r" x1="373.59" y1="-271.28" x2="402.39" y2="-271.28" xlink:href="#m"/><linearGradient id="s" x1="374.12" y1="-273.06" x2="401.86" y2="-273.06" gradientTransform="matrix(0.99, 0.18, -0.33, 0.94, -381.47, 364.78)" xlink:href="#d"/><linearGradient id="t" x1="373.59" y1="-274.85" x2="402.39" y2="-274.85" xlink:href="#m"/><linearGradient id="u" x1="374.12" y1="-276.63" x2="401.86" y2="-276.63" gradientTransform="matrix(0.99, 0.18, -0.33, 0.94, -381.47, 364.78)" xlink:href="#d"/><linearGradient id="v" x1="373.59" y1="-278.41" x2="402.39" y2="-278.41" xlink:href="#m"/><linearGradient id="w" x1="374.12" y1="-280.2" x2="401.86" y2="-280.2" gradientTransform="matrix(0.99, 0.18, -0.33, 0.94, -381.47, 364.78)" xlink:href="#d"/><linearGradient id="x" x1="373.59" y1="-260.57" x2="402.39" y2="-260.57" xlink:href="#m"/><linearGradient id="y" x1="374.12" y1="-262.36" x2="401.86" y2="-262.36" gradientTransform="matrix(0.99, 0.18, -0.33, 0.94, -381.47, 364.78)" xlink:href="#d"/><linearGradient id="z" x1="373.59" y1="-264.14" x2="402.39" y2="-264.14" xlink:href="#m"/><linearGradient id="aa" x1="374.12" y1="-265.93" x2="401.86" y2="-265.93" gradientTransform="matrix(0.99, 0.18, -0.33, 0.94, -381.47, 364.78)" xlink:href="#d"/><linearGradient id="ab" x1="373.59" y1="-267.71" x2="402.39" y2="-267.71" xlink:href="#m"/><linearGradient id="ac" x1="374.12" y1="-269.49" x2="401.86" y2="-269.49" gradientTransform="matrix(0.99, 0.18, -0.33, 0.94, -381.47, 364.78)" xlink:href="#d"/><linearGradient id="ad" x1="59.3" y1="-74.09" x2="72.5" y2="-74.09" gradientTransform="translate(35.34 148.14) rotate(19.18)" xlink:href="#m"/><linearGradient id="ae" x1="57.47" y1="-76.72" x2="74.06" y2="-76.72" gradientTransform="translate(56.9 174)" xlink:href="#c"/><linearGradient id="af" x1="59.3" y1="-79.35" x2="72.5" y2="-79.35" gradientTransform="translate(35.34 148.14) rotate(19.18)" xlink:href="#m"/><linearGradient id="ag" x1="57.47" y1="-81.97" x2="74.06" y2="-81.97" gradientTransform="translate(58.62 174.3)" xlink:href="#c"/><linearGradient id="ah" x1="59.3" y1="-84.6" x2="72.5" y2="-84.6" gradientTransform="translate(35.34 148.14) rotate(19.18)" xlink:href="#m"/><linearGradient id="ai" x1="57.47" y1="-87.22" x2="74.06" y2="-87.22" gradientTransform="translate(60.35 174.59)" xlink:href="#c"/><linearGradient id="aj" x1="59.3" y1="-89.85" x2="72.5" y2="-89.85" gradientTransform="translate(35.34 148.14) rotate(19.18)" xlink:href="#m"/><linearGradient id="ak" x1="57.47" y1="-92.47" x2="74.06" y2="-92.47" gradientTransform="translate(62.07 174.88)" xlink:href="#c"/><linearGradient id="al" x1="59.54" y1="-101.14" x2="71.43" y2="-101.14" gradientTransform="translate(64.94 175.27)" xlink:href="#c"/><linearGradient id="am" x1="137.54" y1="338.5" x2="146.11" y2="335.26" gradientTransform="matrix(0.39, -1.03, 0.92, 0.43, -178.72, 85.55)" xlink:href="#c"/><linearGradient id="an" x1="565.8" y1="170.25" x2="575.96" y2="170.25" gradientTransform="matrix(0.67, -0.83, 0.59, 0.61, -296.7, 455.67)" xlink:href="#m"/><linearGradient id="ao" x1="565.8" y1="166.32" x2="575.96" y2="166.32" gradientTransform="matrix(0.67, -0.83, 0.59, 0.61, -296.7, 455.67)" xlink:href="#m"/><linearGradient id="ap" x1="565.8" y1="162.4" x2="575.96" y2="162.4" gradientTransform="matrix(0.67, -0.83, 0.59, 0.61, -296.7, 455.67)" xlink:href="#m"/><linearGradient id="aq" x1="565.8" y1="178.1" x2="575.96" y2="178.1" gradientTransform="matrix(0.67, -0.83, 0.59, 0.61, -296.7, 455.67)" xlink:href="#m"/><linearGradient id="ar" x1="565.8" y1="174.17" x2="575.96" y2="174.17" gradientTransform="matrix(0.67, -0.83, 0.59, 0.61, -296.7, 455.67)" xlink:href="#m"/><linearGradient id="as" x1="209.08" y1="89.18" x2="166.17" y2="80.86" gradientUnits="userSpaceOnUse"><stop offset="0.05" stop-color="#7b7b7b"/><stop offset="0.27" stop-color="#b4b4b4"/><stop offset="0.46" stop-color="#e1e1e1"/><stop offset="0.56" stop-color="#f2f2f2"/><stop offset="0.64" stop-color="#e0e0e0"/><stop offset="0.79" stop-color="#b1b1b1"/><stop offset="1" stop-color="#666"/></linearGradient><linearGradient id="at" x1="131.59" y1="392.76" x2="108.61" y2="370.45" gradientTransform="translate(-106.54 -136.78) rotate(-23.1)" gradientUnits="userSpaceOnUse"><stop offset="0.13" stop-color="#e0b225"/><stop offset="0.47" stop-color="#fff8cb"/><stop offset="0.5" stop-color="#fcf0bb"/><stop offset="0.56" stop-color="#f3db91"/><stop offset="0.65" stop-color="#e4b94d"/><stop offset="0.73" stop-color="#d49300"/></linearGradient><linearGradient id="au" x1="213.11" y1="49.41" x2="166.27" y2="104.89" gradientUnits="userSpaceOnUse"><stop offset="0.03" stop-color="#7b7b7b"/><stop offset="0.25" stop-color="#dbdbdb"/><stop offset="0.53" stop-color="#878787"/></linearGradient></defs><ellipse class="a" cx="127.56" cy="232.91" rx="68.8" ry="16.4"/><path class="b" d="M130.61,64.15h3.15a3,3,0,0,1,3,3v6.73a0,0,0,0,1,0,0h-9.13a0,0,0,0,1,0,0V67.14A3,3,0,0,1,130.61,64.15Z" transform="translate(30.01 -39.6) rotate(19.18)"/><rect x="83.43" y="152.51" width="38.58" height="2.53" transform="matrix(0.94, 0.33, -0.33, 0.94, 56.22, -25.21)"/><path class="c" d="M88.12,200.26a4.34,4.34,0,0,1-2.66-5.52l.55-1.6-2.73-.95-1,2.74A5.89,5.89,0,0,0,86,202.44l9.45,3.29.91-2.62Z"/><path class="d" d="M86.25,159.13H114a0,0,0,0,1,0,0v1.25a3,3,0,0,1-3,3H89.22a3,3,0,0,1-3-3v-1.25a0,0,0,0,1,0,0Z" transform="translate(58.53 -23.94) rotate(19.18)"/><path class="e" d="M75.59,189.36h26.77a.49.49,0,0,1,.49.49v2.34a5,5,0,0,1-5,5H80.15a5,5,0,0,1-5-5v-2.34a.49.49,0,0,1,.49-.49Z" transform="translate(68.44 -18.5) rotate(19.18)"/><path class="f" d="M115.9,164.5,85.73,154a3.89,3.89,0,0,1-2.61-3.89l.12-2.22,38.41,13.36-1.28,1.81A3.91,3.91,0,0,1,115.9,164.5Z"/><path class="g" d="M98.14,133.78l20.58,7.16c1.12.39,2.49-.35,3.35-1.83l1.09-1.87L97,128.13l-.3,2.14C96.41,132,97,133.39,98.14,133.78Z"/><path class="h" d="M125,122.88l-20.59-7.16c-1.12-.39-2.49.35-3.34,1.83l-1.1,1.87,26.21,9.11.3-2.14C126.73,124.7,126.13,123.27,125,122.88Z"/><path class="i" d="M124.24,140.52,94.07,130c-1.64-.57-4.58,3.23-7.21,9.32l-3.35,7.76,38.41,13.36,2.19-8.16C125.83,145.89,125.89,141.09,124.24,140.52Z"/><rect class="j" x="95.12" y="122.33" width="33.29" height="10.64" rx="1.19" transform="translate(48.14 -29.63) rotate(19.18)"/><path class="k" d="M110.61,100.45h14.86a3.61,3.61,0,0,1,3.61,3.61v15.83a0,0,0,0,1,0,0H107a0,0,0,0,1,0,0V104.06a3.61,3.61,0,0,1,3.61-3.61Z" transform="translate(42.74 -32.66) rotate(19.18)"/><path class="l" d="M126,73.95h6.52a3.61,3.61,0,0,1,3.61,3.61V80A2.07,2.07,0,0,1,134,82h-9.59A2.07,2.07,0,0,1,122.36,80v-2.4A3.61,3.61,0,0,1,126,73.95Z" transform="translate(32.79 -38.13) rotate(19.18)"/><path class="m" d="M109.73,174.11l-25.8-6.81a1,1,0,0,1-.7-1.31h0a1.21,1.21,0,0,1,1.42-.76l25.8,6.82a1,1,0,0,1,.7,1.31h0A1.19,1.19,0,0,1,109.73,174.11Z"/><path class="n" d="M110.33,172l-25.56-6.75a.64.64,0,0,1-.45-.83h0a.77.77,0,0,1,.9-.48l25.57,6.75a.63.63,0,0,1,.44.83h0A.78.78,0,0,1,110.33,172Z"/><path class="o" d="M110.9,170.74l-25.8-6.81a1,1,0,0,1-.7-1.31h0a1.21,1.21,0,0,1,1.42-.76l25.8,6.82a1,1,0,0,1,.7,1.31h0A1.19,1.19,0,0,1,110.9,170.74Z"/><path class="p" d="M111.5,168.65,85.94,161.9a.63.63,0,0,1-.44-.83h0a.75.75,0,0,1,.89-.48L112,167.34a.63.63,0,0,1,.44.83h0A.77.77,0,0,1,111.5,168.65Z"/><path class="q" d="M112.08,167.37l-25.81-6.81a1,1,0,0,1-.7-1.31h0a1.21,1.21,0,0,1,1.42-.76l25.81,6.82a1,1,0,0,1,.7,1.31h0A1.2,1.2,0,0,1,112.08,167.37Z"/><path class="r" d="M106.22,184.22l-25.81-6.81a1,1,0,0,1-.7-1.31h0a1.21,1.21,0,0,1,1.42-.76l25.8,6.82a1,1,0,0,1,.7,1.31h0A1.18,1.18,0,0,1,106.22,184.22Z"/><path class="s" d="M106.81,182.13l-25.56-6.75a.63.63,0,0,1-.44-.83h0a.75.75,0,0,1,.89-.48l25.57,6.75a.63.63,0,0,1,.44.83h0A.77.77,0,0,1,106.81,182.13Z"/><path class="t" d="M107.39,180.85,81.58,174a1,1,0,0,1-.7-1.31h0A1.21,1.21,0,0,1,82.3,172l25.81,6.82a1,1,0,0,1,.7,1.31h0A1.2,1.2,0,0,1,107.39,180.85Z"/><path class="u" d="M108,178.76,82.42,172a.63.63,0,0,1-.44-.83h0a.76.76,0,0,1,.9-.48l25.56,6.75a.63.63,0,0,1,.44.83h0A.76.76,0,0,1,108,178.76Z"/><path class="v" d="M108.56,177.48l-25.8-6.81a1,1,0,0,1-.7-1.31h0a1.2,1.2,0,0,1,1.42-.76l25.8,6.82a1,1,0,0,1,.7,1.31h0A1.19,1.19,0,0,1,108.56,177.48Z"/><path class="w" d="M109.16,175.39l-25.57-6.75a.63.63,0,0,1-.44-.83h0a.77.77,0,0,1,.9-.48l25.56,6.75a.64.64,0,0,1,.45.83h0A.78.78,0,0,1,109.16,175.39Z"/><path class="x" d="M102.7,194.33l-25.8-6.81a1,1,0,0,1-.7-1.31h0a1.2,1.2,0,0,1,1.41-.76l25.81,6.82a1,1,0,0,1,.7,1.31h0A1.2,1.2,0,0,1,102.7,194.33Z"/><path class="y" d="M103.3,192.24l-25.57-6.75a.63.63,0,0,1-.44-.83h0a.77.77,0,0,1,.9-.48l25.56,6.75a.64.64,0,0,1,.45.83h0A.78.78,0,0,1,103.3,192.24Z"/><path class="z" d="M103.87,191l-25.8-6.81a1,1,0,0,1-.7-1.31h0a1.21,1.21,0,0,1,1.42-.76l25.8,6.82a1,1,0,0,1,.7,1.31h0A1.19,1.19,0,0,1,103.87,191Z"/><path class="aa" d="M104.47,188.87l-25.56-6.75a.64.64,0,0,1-.45-.83h0a.77.77,0,0,1,.9-.48l25.56,6.75a.64.64,0,0,1,.45.83h0A.78.78,0,0,1,104.47,188.87Z"/><path class="ab" d="M105,187.59l-25.8-6.81a1,1,0,0,1-.7-1.31h0a1.21,1.21,0,0,1,1.42-.76l25.8,6.82a1,1,0,0,1,.7,1.31h0A1.19,1.19,0,0,1,105,187.59Z"/><path class="ac" d="M105.64,185.5l-25.56-6.75a.64.64,0,0,1-.45-.83h0a.77.77,0,0,1,.9-.48l25.57,6.75a.63.63,0,0,1,.44.83h0A.78.78,0,0,1,105.64,185.5Z"/><path class="ad" d="M115.41,99l12.14,4.23a1.67,1.67,0,0,1-.61-1.6c.18-.51.8-.8,1.66-.88l-12.47-4.34c.63.6.93,1.21.76,1.73S116.17,98.86,115.41,99Z"/><path class="ae" d="M115.5,96h14.32A1.14,1.14,0,0,1,131,97.14v.76a.67.67,0,0,1-.67.67H115a.67.67,0,0,1-.67-.67v-.76A1.14,1.14,0,0,1,115.5,96Z" transform="translate(38.77 -34.9) rotate(19.18)"/><path class="af" d="M117.14,94l12.14,4.23c-.53-.56-.78-1.12-.61-1.6s.8-.8,1.66-.88l-12.47-4.34c.62.6.93,1.21.75,1.73S117.9,93.9,117.14,94Z"/><path class="ag" d="M117.23,91h14.32a1.14,1.14,0,0,1,1.14,1.14v.76a.67.67,0,0,1-.67.67H116.76a.67.67,0,0,1-.67-.67v-.76A1.14,1.14,0,0,1,117.23,91Z" transform="translate(37.23 -35.74) rotate(19.18)"/><path class="ah" d="M118.86,89,131,93.27a1.67,1.67,0,0,1-.61-1.6c.18-.51.8-.8,1.66-.88l-12.47-4.34c.63.6.93,1.22.76,1.73S119.62,88.94,118.86,89Z"/><path class="ai" d="M119,86.08h14.32a1.14,1.14,0,0,1,1.14,1.14V88a.67.67,0,0,1-.67.67H118.48a.67.67,0,0,1-.67-.67v-.76A1.14,1.14,0,0,1,119,86.08Z" transform="translate(35.7 -36.58) rotate(19.18)"/><path class="aj" d="M120.59,84.08l12.14,4.23c-.53-.56-.78-1.12-.61-1.6s.8-.8,1.66-.88l-12.47-4.34c.62.6.93,1.22.75,1.73S121.35,84,120.59,84.08Z"/><path class="ak" d="M120.68,81.12H135a1.14,1.14,0,0,1,1.14,1.14V83a.67.67,0,0,1-.67.67H120.21a.67.67,0,0,1-.67-.67v-.76a1.14,1.14,0,0,1,1.14-1.14Z" transform="translate(34.17 -37.42) rotate(19.18)"/><path class="al" d="M125.62,72.84h9.62A1.14,1.14,0,0,1,136.37,74v.76a.67.67,0,0,1-.67.67H125.15a.67.67,0,0,1-.67-.67V74a1.14,1.14,0,0,1,1.14-1.14Z" transform="translate(31.59 -38.73) rotate(19.18)"/><path class="am" d="M196.47,83.32,185.91,73a1.6,1.6,0,0,0-2.27,0l-6.95,7.24a1.63,1.63,0,0,0,.05,2.29l.68.66a1.4,1.4,0,0,1,.38-1.09L184,75.67a1.44,1.44,0,0,1,2,0l9.34,9.07a1.41,1.41,0,0,1,0,2l-6.21,6.42c0,.05-.1.06-.15.1a1.56,1.56,0,0,0,.53-.36l6.94-7.26A1.62,1.62,0,0,0,196.47,83.32Z"/><path class="an" d="M135.36,217.68a7.21,7.21,0,0,1,3.66-9.52,6.73,6.73,0,0,1,3.13-.53,7.06,7.06,0,0,0-7.39-1.22,7.21,7.21,0,0,0-3.66,9.52,7.34,7.34,0,0,0,6.26,4.48A7.48,7.48,0,0,1,135.36,217.68Z"/><rect class="ao" x="174.84" y="81.31" width="23.87" height="8.96" transform="translate(112.44 -105.83) rotate(44.13)"/><path class="ap" d="M190,82.23l-5.81,8.29c-.13.19-.55,0-1-.39h0c-.39-.41-.6-.89-.47-1.08l5.8-8.29c.14-.19.56,0,1,.4h0C189.91,81.56,190.12,82,190,82.23Z"/><path class="aq" d="M187.66,79.83l-5.8,8.29c-.13.19-.56,0-1-.4h0c-.4-.4-.61-.88-.48-1.07l5.81-8.29c.13-.19.56,0,.95.4h0C187.58,79.16,187.8,79.64,187.66,79.83Z"/><path class="ar" d="M185.34,77.43l-5.81,8.29c-.13.19-.56,0-.95-.4h0c-.39-.4-.6-.88-.47-1.07l5.8-8.29c.14-.19.56,0,1,.4h0C185.26,76.76,185.47,77.24,185.34,77.43Z"/><path class="as" d="M194.64,87l-5.81,8.29c-.13.19-.55,0-1-.39h0c-.39-.41-.6-.89-.47-1.08l5.81-8.29c.13-.19.55,0,.95.4h0C194.56,86.36,194.77,86.84,194.64,87Z"/><path class="at" d="M192.31,84.63l-5.8,8.29c-.13.19-.56,0-.95-.39h0c-.4-.41-.61-.89-.48-1.08l5.81-8.29c.13-.19.56,0,1,.4h0C192.23,84,192.45,84.44,192.31,84.63Z"/><path class="au" d="M204.9,83.47,173.24,50.12S167,57,167.11,62.49s2.65,31,2.65,31,1.48,10.58.43,15.81c0,0,4.94,4.25,6.86,5.08,2.76,1.19,11.88,3,11.88,3,.1-.18.2-.34.3-.5a27.55,27.55,0,0,1,7.35-7.76c7.17-5.32,21.51-16.88,24.83-22.45ZM197.31,89l-7.68,7.94a1.76,1.76,0,0,1-2.49,0L175.59,85.75a1.74,1.74,0,0,1,0-2.48l7.69-7.93a1.79,1.79,0,0,1,2.5,0l11.55,11.21A1.76,1.76,0,0,1,197.31,89Z"/><path class="av" d="M170.49,109c-.69,3.48-29.6,68.29-43.34,100.08A11.15,11.15,0,0,0,133.59,224c5.77,2.09,15.42,1,17.55-4.73l35.22-96.34a45.36,45.36,0,0,1,2.57-5.51S178.24,114,176,113.08C174.45,112.39,170.49,109,170.49,109Zm-30.34,110.1a6.44,6.44,0,1,1,3.4-8.45A6.43,6.43,0,0,1,140.15,219.07Z"/><path class="aw" d="M203.17,43.2,186.33,58.83,207.69,80l17.57-16.88a.92.92,0,0,1,1.56.74l-.6,11.06c-1.11,12.84-13.81,24.39-27.07,10.51L174.38,61.53c-5.81-5.6-.81-16,6.92-18.32,0,0,13.53-4.77,20.95-2.89C203,40.51,204.74,41.74,203.17,43.2Z"/></svg>