<svg xmlns="http://www.w3.org/2000/svg" xmlns:xlink="http://www.w3.org/1999/xlink" viewBox="0 0 283.46 283.46"><defs><style>.a{fill:url(#a);}.b{fill:url(#b);}.c{fill:url(#c);}.d{fill:url(#d);}.e{fill:url(#e);}.f{fill:url(#f);}.g{fill:url(#g);}.h{fill:#dbdbdb;}.i{fill:#6d6d6d;}.j{fill:#a8a8a8;}.k{fill:url(#h);}.l{fill:url(#i);}.m{fill:url(#j);}.n{fill:url(#k);}.o{fill:url(#l);}.p{fill:url(#m);}.q{fill:url(#n);}.r{fill:url(#o);}.s{fill:url(#p);}.t{fill:url(#q);}.u{fill:url(#r);}.v{fill:url(#s);}.w{fill:url(#t);}.x{fill:url(#u);}.y{fill:url(#v);}.z{fill:url(#w);}.aa{fill:url(#x);}.ab{fill:url(#y);}.ac{fill:url(#z);}.ad{fill:url(#aa);}.ae{fill:url(#ab);}.af{fill:url(#ac);}.ag{fill:url(#ad);}.ah{fill:url(#ae);}.ai{fill:url(#af);}.aj{fill:url(#ag);}.ak{fill:url(#ah);}.al{fill:url(#ai);}.am{fill:url(#aj);}.an{fill:url(#ak);}.ao{fill:#202120;}.ap{fill:url(#al);}</style><radialGradient id="a" cx="42.69" cy="214.07" r="63.3" gradientTransform="translate(70.31 159.19) scale(1.67 0.26)" gradientUnits="userSpaceOnUse"><stop offset="0" stop-color="#333"/><stop offset="1" stop-color="#acb7bd" stop-opacity="0"/></radialGradient><linearGradient id="b" x1="54.33" y1="176.29" x2="233.7" y2="176.29" gradientUnits="userSpaceOnUse"><stop offset="0" stop-color="#fecb2b"/><stop offset="0.42" stop-color="#fffad0"/><stop offset="0.85" stop-color="#fecb2b"/></linearGradient><linearGradient id="c" x1="144.02" y1="214.94" x2="144.02" y2="198.62" gradientUnits="userSpaceOnUse"><stop offset="0" stop-color="#cfa725"/><stop offset="0.6" stop-color="#ecddaa" stop-opacity="0.39"/><stop offset="1" stop-color="#fff" stop-opacity="0"/></linearGradient><linearGradient id="d" x1="54.33" y1="176.29" x2="233.7" y2="176.29" gradientUnits="userSpaceOnUse"><stop offset="0" stop-color="#d59f2d"/><stop offset="0.02" stop-color="#daa944" stop-opacity="0.89"/><stop offset="0.05" stop-color="#e2bd6f" stop-opacity="0.68"/><stop offset="0.09" stop-color="#eacf96" stop-opacity="0.5"/><stop offset="0.13" stop-color="#f1deb7" stop-opacity="0.34"/><stop offset="0.18" stop-color="#f6ead1" stop-opacity="0.22"/><stop offset="0.22" stop-color="#faf3e6" stop-opacity="0.12"/><stop offset="0.28" stop-color="#fdfaf4" stop-opacity="0.05"/><stop offset="0.34" stop-color="#fefefc" stop-opacity="0.01"/><stop offset="0.44" stop-color="#fff" stop-opacity="0"/><stop offset="0.57" stop-color="#fffefc" stop-opacity="0.01"/><stop offset="0.65" stop-color="#fdfaf4" stop-opacity="0.05"/><stop offset="0.72" stop-color="#faf4e5" stop-opacity="0.12"/><stop offset="0.78" stop-color="#f6ebd0" stop-opacity="0.22"/><stop offset="0.83" stop-color="#f1dfb5" stop-opacity="0.34"/><stop offset="0.88" stop-color="#ebd094" stop-opacity="0.49"/><stop offset="0.93" stop-color="#e3bf6d" stop-opacity="0.67"/><stop offset="0.98" stop-color="#dbac41" stop-opacity="0.88"/><stop offset="1" stop-color="#d6a026"/></linearGradient><linearGradient id="e" x1="144.02" y1="150.5" x2="144.02" y2="139.37" gradientUnits="userSpaceOnUse"><stop offset="0" stop-color="#fce9b0" stop-opacity="0"/><stop offset="0.52" stop-color="#69624e" stop-opacity="0.64"/><stop offset="1" stop-color="#171717"/></linearGradient><linearGradient id="f" x1="51.25" y1="137.85" x2="236.78" y2="137.85" gradientUnits="userSpaceOnUse"><stop offset="0" stop-color="#646464"/><stop offset="0.03" stop-color="#797979"/><stop offset="0.09" stop-color="#9a9a9a"/><stop offset="0.15" stop-color="#b4b4b4"/><stop offset="0.21" stop-color="#c9c9c9"/><stop offset="0.28" stop-color="#d8d8d8"/><stop offset="0.37" stop-color="#e0e0e0"/><stop offset="0.51" stop-color="#e3e3e3"/><stop offset="0.65" stop-color="#e0e0e0"/><stop offset="0.74" stop-color="#d8d8d8"/><stop offset="0.81" stop-color="#c9c9c9"/><stop offset="0.87" stop-color="#b5b5b5"/><stop offset="0.93" stop-color="#9a9a9a"/><stop offset="0.99" stop-color="#7a7a7a"/><stop offset="1" stop-color="#717171"/></linearGradient><linearGradient id="g" x1="144.02" y1="135.91" x2="144.02" y2="101.3" gradientUnits="userSpaceOnUse"><stop offset="0" stop-color="#fff"/><stop offset="0.13" stop-color="#c9c9c9"/><stop offset="0.4" stop-color="#c6c6c6"/><stop offset="0.57" stop-color="#bebebe"/><stop offset="0.71" stop-color="#b0b0b0"/><stop offset="0.83" stop-color="#9b9b9b"/><stop offset="0.94" stop-color="#818181"/><stop offset="1" stop-color="#717171"/></linearGradient><linearGradient id="h" x1="65.68" y1="118.73" x2="222.36" y2="118.73" xlink:href="#f"/><linearGradient id="i" x1="99.55" y1="123.57" x2="188.49" y2="123.57" xlink:href="#f"/><linearGradient id="j" x1="144.02" y1="121.92" x2="144.02" y2="94.96" gradientUnits="userSpaceOnUse"><stop offset="0" stop-color="#fff"/><stop offset="0.4" stop-color="#c9c9c9"/><stop offset="0.51" stop-color="#c3c3c3"/><stop offset="0.66" stop-color="#b2b2b2"/><stop offset="0.82" stop-color="#979797"/><stop offset="1" stop-color="#717171"/></linearGradient><radialGradient id="k" cx="210.67" cy="135.16" r="10.23" gradientTransform="translate(-25.25 69.79) scale(1.09 0.44)" gradientUnits="userSpaceOnUse"><stop offset="0"/><stop offset="0.88" stop-color="#7b8387" stop-opacity="0.28"/><stop offset="1" stop-color="#acb7bd" stop-opacity="0"/></radialGradient><linearGradient id="l" x1="195.52" y1="124.79" x2="212.34" y2="124.79" gradientUnits="userSpaceOnUse"><stop offset="0" stop-color="#202120"/><stop offset="0.03" stop-color="#353635"/><stop offset="0.07" stop-color="#494948"/><stop offset="0.12" stop-color="#565756"/><stop offset="0.18" stop-color="#5f5f5e"/><stop offset="0.28" stop-color="#616160"/><stop offset="0.32" stop-color="#686867"/><stop offset="0.5" stop-color="#8b8b89"/><stop offset="0.64" stop-color="#a0a09d"/><stop offset="0.74" stop-color="#a8a8a5"/><stop offset="0.78" stop-color="#a2a29f"/><stop offset="0.83" stop-color="#91928f"/><stop offset="0.88" stop-color="#767674"/><stop offset="0.94" stop-color="#50504f"/><stop offset="0.99" stop-color="#2a2b2a"/></linearGradient><linearGradient id="m" x1="203.93" y1="121.14" x2="203.93" y2="113.26" gradientUnits="userSpaceOnUse"><stop offset="0" stop-color="#a8a8a5"/><stop offset="0.15" stop-color="#9d9d9a"/><stop offset="0.42" stop-color="#7e7f7c"/><stop offset="0.77" stop-color="#4d4e4d"/><stop offset="0.99" stop-color="#2a2b2a"/></linearGradient><radialGradient id="n" cx="101.37" cy="135.16" r="10.23" xlink:href="#k"/><linearGradient id="o" x1="75.94" y1="124.79" x2="92.76" y2="124.79" xlink:href="#l"/><linearGradient id="p" x1="84.35" y1="121.14" x2="84.35" y2="113.26" xlink:href="#m"/><radialGradient id="q" cx="102.59" cy="103.52" r="7.59" gradientTransform="translate(-25.25 54.38) scale(1.09 0.44)" xlink:href="#k"/><linearGradient id="r" x1="79.66" y1="98.78" x2="92.53" y2="98.78" xlink:href="#l"/><linearGradient id="s" x1="86.1" y1="98.16" x2="86.1" y2="92.12" xlink:href="#m"/><radialGradient id="t" cx="119.39" cy="103.52" r="7.59" gradientTransform="translate(-25.25 54.38) scale(1.09 0.44)" xlink:href="#k"/><linearGradient id="u" x1="98.04" y1="98.78" x2="110.91" y2="98.78" xlink:href="#l"/><linearGradient id="v" x1="104.48" y1="98.16" x2="104.48" y2="92.12" xlink:href="#m"/><radialGradient id="w" cx="137.04" cy="103.52" r="7.59" gradientTransform="translate(-25.25 54.38) scale(1.09 0.44)" xlink:href="#k"/><linearGradient id="x" x1="117.35" y1="98.78" x2="130.22" y2="98.78" xlink:href="#l"/><linearGradient id="y" x1="123.78" y1="98.16" x2="123.78" y2="92.12" xlink:href="#m"/><radialGradient id="z" cx="154.78" cy="103.52" r="7.59" gradientTransform="translate(-25.25 54.38) scale(1.09 0.44)" xlink:href="#k"/><linearGradient id="aa" x1="136.76" y1="98.78" x2="149.63" y2="98.78" xlink:href="#l"/><linearGradient id="ab" x1="143.19" y1="98.16" x2="143.19" y2="92.12" xlink:href="#m"/><radialGradient id="ac" cx="172.87" cy="103.52" r="7.59" gradientTransform="translate(-25.25 54.38) scale(1.09 0.44)" xlink:href="#k"/><linearGradient id="ad" x1="156.55" y1="98.78" x2="169.42" y2="98.78" xlink:href="#l"/><linearGradient id="ae" x1="162.98" y1="98.16" x2="162.98" y2="92.12" xlink:href="#m"/><radialGradient id="af" cx="190.61" cy="103.52" r="7.59" gradientTransform="translate(-25.25 54.38) scale(1.09 0.44)" xlink:href="#k"/><linearGradient id="ag" x1="175.96" y1="98.78" x2="188.83" y2="98.78" xlink:href="#l"/><linearGradient id="ah" x1="182.39" y1="98.16" x2="182.39" y2="92.12" xlink:href="#m"/><radialGradient id="ai" cx="208.69" cy="103.52" r="7.59" gradientTransform="translate(-25.25 54.38) scale(1.09 0.44)" xlink:href="#k"/><linearGradient id="aj" x1="195.74" y1="98.78" x2="208.61" y2="98.78" xlink:href="#l"/><linearGradient id="ak" x1="202.18" y1="98.16" x2="202.18" y2="92.12" xlink:href="#m"/><linearGradient id="al" x1="57.89" y1="87.99" x2="229.62" y2="87.99" xlink:href="#l"/></defs><ellipse class="a" cx="141.73" cy="214.07" rx="108.39" ry="16.83"/><path class="b" d="M54.33,137.65H233.7a0,0,0,0,1,0,0v72a5.28,5.28,0,0,1-5.28,5.28H59.61a5.28,5.28,0,0,1-5.28-5.28v-72A0,0,0,0,1,54.33,137.65Z"/><path class="c" d="M226.58,214.94H61.45a7.12,7.12,0,0,1-7.12-7.12v-9.2H233.7v9.2A7.12,7.12,0,0,1,226.58,214.94Z"/><path class="d" d="M54.33,137.65H233.7a0,0,0,0,1,0,0V210a4.89,4.89,0,0,1-4.89,4.89H59.22A4.89,4.89,0,0,1,54.33,210v-72.4a0,0,0,0,1,0,0Z"/><path class="e" d="M54.33,139.37H233.7a0,0,0,0,1,0,0v7.41A3.72,3.72,0,0,1,230,150.5H58.06a3.72,3.72,0,0,1-3.72-3.72v-7.41A0,0,0,0,1,54.33,139.37Z"/><path class="f" d="M51.25,132.29H236.78a0,0,0,0,1,0,0v7.41a3.72,3.72,0,0,1-3.72,3.72H55a3.72,3.72,0,0,1-3.72-3.72v-7.41A0,0,0,0,1,51.25,132.29Z"/><path class="g" d="M233,135.91H55.09a3.81,3.81,0,0,1-3.73-4.68l6.53-27a3.85,3.85,0,0,1,3.74-2.91H226.41a3.84,3.84,0,0,1,3.73,2.91l6.54,27A3.81,3.81,0,0,1,233,135.91Z"/><path class="h" d="M101.69,170.86a2.94,2.94,0,0,1-2.93,2.93H91.23l0,7.52a2.92,2.92,0,0,1-3,2.92,3,3,0,0,1-1.33-.33,2.94,2.94,0,0,1-1.59-2.63l0-6.72v-.76H77.88a2.93,2.93,0,0,1-1.33-.31l0,0a2.92,2.92,0,0,1-1.6-2.6,3,3,0,0,1,2.95-3h7.5l.06-7.52a2.93,2.93,0,0,1,5.21-1.83,3,3,0,0,1,.67,1.87l-.06,7.48h7.5A2.89,2.89,0,0,1,101,169h0A3,3,0,0,1,101.69,170.86Z"/><path class="i" d="M101.21,170.09A2.94,2.94,0,0,1,98.28,173H90.76l-.06,7.52a2.93,2.93,0,1,1-5.86-.05l0-6.71V173H77.4a3,3,0,0,1-1.33-.32h0a2.94,2.94,0,0,1,1.34-5.55h7.51l.06-7.52a2.93,2.93,0,0,1,5.21-1.83,3,3,0,0,1,.66,1.87l0,7.48h7.49a2.92,2.92,0,0,1,2.27,1.07s0,0,0,0A3,3,0,0,1,101.21,170.09Z"/><path class="j" d="M101.21,170.09A2.94,2.94,0,0,1,98.28,173H90.76l-.06,7.52a2.92,2.92,0,0,1-4.27,2.59,2.92,2.92,0,0,1-.66-1.87l.06-7.48V173H77.4a3,3,0,0,1-1.33-.32h0a2.94,2.94,0,0,1,2.28-4.79h7.52l0-7.52a2.93,2.93,0,0,1,4.28-2.59,3,3,0,0,1,.66,1.87l0,7.48v.77h8.44a3.1,3.1,0,0,1,1.33.31s0,0,0,0A3,3,0,0,1,101.21,170.09Z"/><path class="h" d="M215,170.82a3,3,0,0,1-2.93,2.93H191.22a2.93,2.93,0,0,1-2.08-5,2.87,2.87,0,0,1,2.08-.86H212.1a2.92,2.92,0,0,1,2.48,1.37A3,3,0,0,1,215,170.82Z"/><path class="i" d="M214.59,170.09a3,3,0,0,1-2.93,2.94H190.78a2.85,2.85,0,0,1-1.63-.49,2.93,2.93,0,0,1-.45-4.53,2.87,2.87,0,0,1,2.08-.86h20.88a2.94,2.94,0,0,1,2.48,1.37A3,3,0,0,1,214.59,170.09Z"/><path class="j" d="M214.59,170.09a3,3,0,0,1-2.93,2.94H190.78a2.85,2.85,0,0,1-1.63-.49,2.89,2.89,0,0,1-.44-1.54,2.93,2.93,0,0,1,.87-2.08,2.87,2.87,0,0,1,2.08-.87h20.88a3,3,0,0,1,1.6.47A3,3,0,0,1,214.59,170.09Z"/><path class="k" d="M65.68,114H222.36a0,0,0,0,1,0,0v5.68a3.72,3.72,0,0,1-3.72,3.72H69.4a3.72,3.72,0,0,1-3.72-3.72V114A0,0,0,0,1,65.68,114Z"/><path class="l" d="M99.55,118.86h88.94a0,0,0,0,1,0,0v5.68a3.72,3.72,0,0,1-3.72,3.72h-81.5a3.72,3.72,0,0,1-3.72-3.72v-5.68A0,0,0,0,1,99.55,118.86Z"/><path class="m" d="M222.27,113.14l-3.34-14.63A4.56,4.56,0,0,0,214.48,95H73.55a4.56,4.56,0,0,0-4.45,3.55l-3.33,14.63a3.21,3.21,0,0,0,3.15,4H99.71l-.11.88c-.28,2,.6,4,1.79,4h85.26c1.19,0,2.06-1.93,1.79-4l-.12-.88h30.8A3.22,3.22,0,0,0,222.27,113.14Z"/><ellipse class="n" cx="205.24" cy="129.27" rx="11.28" ry="4.49"/><path class="o" d="M212.3,127.71V117.56H195.52v10.51c0,2.18,3.76,3.94,8.41,3.94s8.41-1.76,8.41-3.94A2.2,2.2,0,0,0,212.3,127.71Z"/><ellipse class="p" cx="203.93" cy="117.2" rx="8.41" ry="3.94"/><ellipse class="q" cx="85.66" cy="129.27" rx="11.28" ry="4.49"/><path class="r" d="M92.72,127.71V117.56H75.94v10.51c0,2.18,3.77,3.94,8.41,3.94s8.41-1.76,8.41-3.94A2.2,2.2,0,0,0,92.72,127.71Z"/><ellipse class="s" cx="84.35" cy="117.2" rx="8.41" ry="3.94"/><ellipse class="t" cx="87" cy="99.94" rx="8.37" ry="3.33"/><path class="u" d="M92.5,98.85V95.42H79.66v3.7c0,1.67,2.88,3,6.44,3s6.43-1.35,6.43-3A1.24,1.24,0,0,0,92.5,98.85Z"/><ellipse class="v" cx="86.1" cy="95.14" rx="6.44" ry="3.02"/><ellipse class="w" cx="105.38" cy="99.94" rx="8.37" ry="3.33"/><path class="x" d="M110.88,98.85V95.42H98v3.7c0,1.67,2.88,3,6.44,3s6.43-1.35,6.43-3A1.24,1.24,0,0,0,110.88,98.85Z"/><ellipse class="y" cx="104.48" cy="95.14" rx="6.44" ry="3.02"/><ellipse class="z" cx="124.68" cy="99.94" rx="8.37" ry="3.33"/><path class="aa" d="M130.19,98.85V95.42H117.35v3.7c0,1.67,2.88,3,6.43,3s6.44-1.35,6.44-3A1.24,1.24,0,0,0,130.19,98.85Z"/><ellipse class="ab" cx="123.78" cy="95.14" rx="6.44" ry="3.02"/><ellipse class="ac" cx="144.09" cy="99.94" rx="8.37" ry="3.33"/><path class="ad" d="M149.6,98.85V95.42H136.76v3.7c0,1.67,2.88,3,6.43,3s6.44-1.35,6.44-3A1.24,1.24,0,0,0,149.6,98.85Z"/><ellipse class="ae" cx="143.19" cy="95.14" rx="6.44" ry="3.02"/><ellipse class="af" cx="163.88" cy="99.94" rx="8.37" ry="3.33"/><path class="ag" d="M169.39,98.85V95.42H156.55v3.7c0,1.67,2.88,3,6.43,3s6.44-1.35,6.44-3A1.24,1.24,0,0,0,169.39,98.85Z"/><ellipse class="ah" cx="162.98" cy="95.14" rx="6.44" ry="3.02"/><ellipse class="ai" cx="183.29" cy="99.94" rx="8.37" ry="3.33"/><path class="aj" d="M188.8,98.85V95.42H176v3.7c0,1.67,2.88,3,6.43,3s6.44-1.35,6.44-3A1.24,1.24,0,0,0,188.8,98.85Z"/><ellipse class="ak" cx="182.39" cy="95.14" rx="6.44" ry="3.02"/><ellipse class="al" cx="203.08" cy="99.94" rx="8.37" ry="3.33"/><path class="am" d="M208.58,98.85V95.42H195.74v3.7c0,1.67,2.88,3,6.44,3s6.43-1.35,6.43-3A1.24,1.24,0,0,0,208.58,98.85Z"/><ellipse class="an" cx="202.18" cy="95.14" rx="6.44" ry="3.02"/><path class="ao" d="M219.11,71H68.4A8.32,8.32,0,0,0,60,79.25v27.8H66.9l.94-3,1-14.3a8.31,8.31,0,0,1,8.39-8.23H210.33a8.31,8.31,0,0,1,8.39,8.23l1.36,14.37.53,2.89h6.89V79.25A8.32,8.32,0,0,0,219.11,71Z"/><path class="ap" d="M221,68.93H66.5a8.61,8.61,0,0,0-8.61,8.6v29.52h9V88.55a8.6,8.6,0,0,1,8.6-8.61H212a8.6,8.6,0,0,1,8.6,8.61v18.5h9V77.53A8.61,8.61,0,0,0,221,68.93Z"/></svg>