<svg xmlns="http://www.w3.org/2000/svg" xmlns:xlink="http://www.w3.org/1999/xlink" viewBox="0 0 283.46 283.46"><defs><style>.a{fill:none;}.b{fill:url(#a);}.c{fill:url(#b);}.d{fill:url(#c);}.e{fill:url(#d);}.f{clip-path:url(#e);}.g{fill:url(#f);}.h{fill:url(#g);}.i{fill:url(#h);}.j{fill:url(#i);}.k{fill:url(#j);}.l{fill:url(#k);}.m{fill:url(#l);}.n{fill:url(#m);}.o{fill:url(#n);}.p{fill:url(#o);}.q{fill:url(#p);}.r{fill:url(#q);}.s{fill:url(#r);}.t{fill:url(#s);}.u{fill:url(#t);}.v{fill:#e2e2e2;}.w{fill:url(#u);}.x{fill:#b2b2b2;}.y{fill:url(#v);}.z{fill:url(#w);}.aa{fill:url(#x);}.ab{fill:url(#y);}.ac{clip-path:url(#z);}.ad{fill:url(#aa);}.ae{fill:url(#ab);}.af{fill:url(#ac);}.ag{fill:url(#ad);}.ah{fill:url(#ae);}.ai{fill:url(#af);}.aj{fill:url(#ag);}.ak{fill:url(#ah);}.al{fill:#d3d3d3;}.am{fill:url(#ai);}.an{fill:#e0e0e0;}</style><radialGradient id="a" cx="240.51" cy="378.93" r="50.31" gradientTransform="translate(-49.06 27.87) scale(0.92 0.46)" gradientUnits="userSpaceOnUse"><stop offset="0" stop-color="#1f1f1f"/><stop offset="0.37" stop-color="#303132" stop-opacity="0.88"/><stop offset="0.71" stop-color="#63686b" stop-opacity="0.52"/><stop offset="1" stop-color="#acb7bd" stop-opacity="0"/></radialGradient><radialGradient id="b" cx="77.51" cy="314.07" r="26.6" gradientTransform="translate(15.64 45.23) scale(1.06 0.38)" gradientUnits="userSpaceOnUse"><stop offset="0" stop-color="#4f4f4f"/><stop offset="0.24" stop-color="#535454" stop-opacity="0.95"/><stop offset="0.46" stop-color="#616364" stop-opacity="0.81"/><stop offset="0.67" stop-color="#777b7e" stop-opacity="0.57"/><stop offset="0.88" stop-color="#969ea3" stop-opacity="0.24"/><stop offset="1" stop-color="#acb7bd" stop-opacity="0"/></radialGradient><radialGradient id="c" cx="-45.98" cy="457.4" r="26.6" gradientTransform="translate(233.8 -113.52) scale(1.84 0.53)" gradientUnits="userSpaceOnUse"><stop offset="0" stop-color="#333"/><stop offset="0.29" stop-color="#3c3d3d" stop-opacity="0.93"/><stop offset="0.56" stop-color="#565a5b" stop-opacity="0.71"/><stop offset="0.82" stop-color="#838a8e" stop-opacity="0.34"/><stop offset="1" stop-color="#acb7bd" stop-opacity="0"/></radialGradient><linearGradient id="d" x1="69.65" y1="32.41" x2="48.67" y2="-10.31" gradientTransform="translate(84.37 90.36) rotate(10.64)" gradientUnits="userSpaceOnUse"><stop offset="0" stop-color="#434445"/><stop offset="0.05" stop-color="#525355"/><stop offset="0.23" stop-color="#8b8c8e"/><stop offset="0.39" stop-color="#b5b6b8"/><stop offset="0.51" stop-color="#cfd0d1"/><stop offset="0.58" stop-color="#d8d9db"/><stop offset="0.66" stop-color="#d3d4d6"/><stop offset="0.75" stop-color="#c4c5c7"/><stop offset="0.85" stop-color="#acadaf"/><stop offset="0.95" stop-color="#8a8b8d"/><stop offset="1" stop-color="#77787a"/></linearGradient><clipPath id="e"><path class="a" d="M202.8,92.91c-3.6-12.7-11.3-21.64-17.19-20a5.25,5.25,0,0,0-.55.22l0-.06-8.78,2.49s-3.33-.53-4.14-.15c-.43.21-.52,1.47-.52,1.47l-1.87.53s-3.58-.57-4.39-.21c-.45.2-.37,1.56-.37,1.56l-2.65.75a28.62,28.62,0,0,0-4.43-.25c-.57.16-.5,1.65-.5,1.65l-3.31.94a27.71,27.71,0,0,0-4.3-.29c-.65.18-.81,1.73-.81,1.73l-2.24.64a28.92,28.92,0,0,0-4.38-.27c-.68.19-.92,1.77-.92,1.77l-1.15.33a28.12,28.12,0,0,0-4.33-.28c-.67.19-.91,1.76-.91,1.76l-1.68.48a30.11,30.11,0,0,0-4.52-.23c-.61.18-.66,1.7-.66,1.7l-2.27.64a27.88,27.88,0,0,0-4.24-.31c-.71.21-1,1.81-1,1.81l-2.18.62a30,30,0,0,0-4.58-.21c-.7.19-1,1.79-1,1.79L71,105.44l13,46L134.83,137a21.27,21.27,0,0,0,2.77.46c.54-.15.47-1.38.47-1.38l4.11-1.17a22.8,22.8,0,0,0,3.19.35c.44-.12,0-1.26,0-1.26l3.47-1a23.43,23.43,0,0,0,3.23.34c.43-.12,0-1.27,0-1.27l2.78-.78a23,23,0,0,0,3.1.37c.46-.13.15-1.29.15-1.29l3.64-1a23.58,23.58,0,0,0,3.25.34c.4-.12-.06-1.24-.06-1.24l4.07-1.15a24.93,24.93,0,0,0,3.32.31c.4-.12-.07-1.23-.07-1.23l3.57-1a24.58,24.58,0,0,0,3.3.32c.39-.11-.12-1.22-.12-1.22l2.75-.78a22.88,22.88,0,0,0,3.29.32c.41-.12,0-1.24,0-1.24l3.66-1a23.9,23.9,0,0,0,3.17.36c.43-.13,0-1.26,0-1.26L195,120a20.82,20.82,0,0,0,3.12.4c.38-.11.06-1.35.06-1.35a3.5,3.5,0,0,0,.45-.07,5.68,5.68,0,0,0,1.86-1c.58-.45,2.71-.3,3-.78s-.72-2.19-.41-2.93C205.17,109.37,205.2,101.37,202.8,92.91Z"/></clipPath><linearGradient id="f" x1="-605.56" y1="-150.21" x2="-661.65" y2="-196.45" gradientTransform="matrix(0.41, 0.91, -0.85, 0.39, 288.99, 754.96)" gradientUnits="userSpaceOnUse"><stop offset="0" stop-color="#424245"/><stop offset="0.14" stop-color="#68686a"/><stop offset="0.29" stop-color="#89898b"/><stop offset="0.41" stop-color="#9d9e9f"/><stop offset="0.49" stop-color="#a4a5a6"/><stop offset="0.59" stop-color="#909191"/><stop offset="1" stop-color="#454545"/></linearGradient><linearGradient id="g" x1="-605.56" y1="-143.89" x2="-661.65" y2="-190.13" xlink:href="#f"/><linearGradient id="h" x1="-605.56" y1="-136.76" x2="-661.65" y2="-183" xlink:href="#f"/><linearGradient id="i" x1="-605.56" y1="-128.98" x2="-661.65" y2="-175.22" xlink:href="#f"/><linearGradient id="j" x1="-605.56" y1="-122.18" x2="-661.65" y2="-168.42" xlink:href="#f"/><linearGradient id="k" x1="-606.83" y1="-114.83" x2="-662.92" y2="-161.07" xlink:href="#f"/><linearGradient id="l" x1="-608.25" y1="-106.87" x2="-664.34" y2="-153.1" xlink:href="#f"/><linearGradient id="m" x1="-608.89" y1="-99.29" x2="-664.98" y2="-145.52" xlink:href="#f"/><linearGradient id="n" x1="-608.89" y1="-92.48" x2="-664.98" y2="-138.72" xlink:href="#f"/><linearGradient id="o" x1="-610.16" y1="-85.13" x2="-666.26" y2="-131.37" xlink:href="#f"/><linearGradient id="p" x1="-611.59" y1="-77.17" x2="-667.68" y2="-123.4" xlink:href="#f"/><linearGradient id="q" x1="-57.44" y1="1263.69" x2="-94.1" y2="1223.17" gradientTransform="translate(-1140.65 399.05) rotate(-105.92)" gradientUnits="userSpaceOnUse"><stop offset="0" stop-color="#adadad"/><stop offset="0.19" stop-color="#9f9f9f"/><stop offset="0.55" stop-color="#7b7b7c"/><stop offset="1" stop-color="#454547"/></linearGradient><linearGradient id="r" x1="-65.75" y1="1298.22" x2="-102.16" y2="1263.75" gradientTransform="translate(-1140.65 399.05) rotate(-105.92)" gradientUnits="userSpaceOnUse"><stop offset="0" stop-color="#77787a"/><stop offset="0.27" stop-color="#acadaf"/><stop offset="0.52" stop-color="#d8d9db"/><stop offset="0.6" stop-color="#d2d3d5"/><stop offset="0.7" stop-color="#c1c2c4"/><stop offset="0.83" stop-color="#a5a6a7"/><stop offset="0.96" stop-color="#7e7f80"/><stop offset="1" stop-color="#737475"/></linearGradient><linearGradient id="s" x1="-60.92" y1="1294.93" x2="-32.56" y2="1246.05" gradientTransform="translate(-1140.65 399.05) rotate(-105.92)" gradientUnits="userSpaceOnUse"><stop offset="0" stop-color="#9fa0a3"/><stop offset="0.22" stop-color="#c1c3c5"/><stop offset="0.52" stop-color="#eceef0"/><stop offset="0.61" stop-color="#e6e8ea"/><stop offset="0.75" stop-color="#d5d7d9"/><stop offset="0.9" stop-color="#b9babd"/><stop offset="1" stop-color="#a4a5a8"/></linearGradient><linearGradient id="t" x1="-32.8" y1="1250.38" x2="-35.31" y2="1247.6" gradientTransform="translate(-1140.65 399.05) rotate(-105.92)" gradientUnits="userSpaceOnUse"><stop offset="0" stop-color="#d6d6d6"/><stop offset="0.17" stop-color="#cbcbcb"/><stop offset="0.7" stop-color="#ababae"/><stop offset="1" stop-color="#9f9fa3"/></linearGradient><linearGradient id="u" x1="-105.84" y1="1286.22" x2="-116.85" y2="1242.54" gradientTransform="translate(-1140.65 399.05) rotate(-105.92)" gradientUnits="userSpaceOnUse"><stop offset="0" stop-color="#bfc0c2"/><stop offset="0.29" stop-color="#9a9a9c"/><stop offset="0.94" stop-color="#3c3c3e"/><stop offset="1" stop-color="#343436"/></linearGradient><linearGradient id="v" x1="188.69" y1="181.47" x2="152.53" y2="141.5" gradientTransform="matrix(1, 0, 0, 1, 0, 0)" xlink:href="#t"/><linearGradient id="w" x1="180.5" y1="215.53" x2="144.59" y2="181.53" gradientUnits="userSpaceOnUse"><stop offset="0" stop-color="#77787a"/><stop offset="0.27" stop-color="#acadaf"/><stop offset="0.52" stop-color="#d8d9db"/><stop offset="0.61" stop-color="#d2d3d5"/><stop offset="0.74" stop-color="#c1c2c4"/><stop offset="0.88" stop-color="#a4a5a7"/><stop offset="1" stop-color="#898a8c"/></linearGradient><linearGradient id="x" x1="185.77" y1="173.54" x2="156.69" y2="149.58" gradientUnits="userSpaceOnUse"><stop offset="0" stop-color="#e6e6e6"/><stop offset="0.35" stop-color="#dcdcdd"/><stop offset="1" stop-color="#cdced0"/></linearGradient><linearGradient id="y" x1="184.57" y1="172.33" x2="157.8" y2="150.26" gradientUnits="userSpaceOnUse"><stop offset="0" stop-color="#2b2b2b"/><stop offset="0.04" stop-color="#363636"/><stop offset="0.19" stop-color="#565757"/><stop offset="0.32" stop-color="#6a6b6c"/><stop offset="0.4" stop-color="#717273"/><stop offset="1" stop-color="#2e2e2e"/></linearGradient><clipPath id="z"><path class="a" d="M196.14,160.8c0,3.32-2.64,6.32-6.94,8.55-4.66,2.43-11.28,4-18.63,4s-14-1.52-18.65-4c-4.28-2.22-6.9-5.22-6.9-8.53,0-6.91,11.44-12.51,25.55-12.51S196.14,153.89,196.14,160.8Z"/></clipPath><linearGradient id="aa" x1="110.68" y1="100.5" x2="73.93" y2="70.2" gradientTransform="matrix(0.99, 0.16, -0.15, 0.93, 92.5, 72.14)" xlink:href="#f"/><linearGradient id="ab" x1="110.68" y1="104.63" x2="73.93" y2="74.34" gradientTransform="matrix(0.99, 0.16, -0.15, 0.93, 92.5, 72.14)" xlink:href="#f"/><linearGradient id="ac" x1="110.68" y1="109.3" x2="73.93" y2="79.01" gradientTransform="matrix(0.99, 0.16, -0.15, 0.93, 92.5, 72.14)" xlink:href="#f"/><linearGradient id="ad" x1="110.68" y1="114.4" x2="73.93" y2="84.11" gradientTransform="matrix(0.99, 0.16, -0.15, 0.93, 92.5, 72.14)" xlink:href="#f"/><linearGradient id="ae" x1="110.68" y1="118.86" x2="73.93" y2="88.56" gradientTransform="matrix(0.99, 0.16, -0.15, 0.93, 92.5, 72.14)" xlink:href="#f"/><linearGradient id="af" x1="109.85" y1="123.67" x2="73.1" y2="93.38" gradientTransform="matrix(0.99, 0.16, -0.15, 0.93, 92.5, 72.14)" xlink:href="#f"/><linearGradient id="ag" x1="185.27" y1="212.29" x2="213.24" y2="164.07" gradientUnits="userSpaceOnUse"><stop offset="0" stop-color="#5c5d5e"/><stop offset="0.28" stop-color="#949596"/><stop offset="0.52" stop-color="#c0c0c2"/><stop offset="0.6" stop-color="#bababc"/><stop offset="0.71" stop-color="#a9a9ab"/><stop offset="0.84" stop-color="#8c8d8e"/><stop offset="0.98" stop-color="#656667"/><stop offset="1" stop-color="#616263"/></linearGradient><linearGradient id="ah" x1="213" y1="168.34" x2="210.53" y2="165.6" gradientTransform="matrix(1, 0, 0, 1, 0, 0)" xlink:href="#t"/><linearGradient id="ai" x1="140.96" y1="203.69" x2="130.1" y2="160.61" gradientTransform="matrix(1, 0, 0, 1, 0, 0)" xlink:href="#s"/></defs><ellipse class="b" cx="171.54" cy="204.03" rx="47.23" ry="24.26"/><ellipse class="c" cx="97.66" cy="165.69" rx="28.81" ry="10.58"/><ellipse class="d" cx="149.29" cy="130.85" rx="50.04" ry="14.74" transform="translate(-33.45 53.29) rotate(-18.24)"/><path class="e" d="M202.8,92.91c-3.6-12.7-11.3-21.64-17.19-20a5.25,5.25,0,0,0-.55.22l0-.06L71,105.44l13,46,114.1-32.34,0-.06c.19,0,.39,0,.59-.1C204.54,117.26,206.4,105.61,202.8,92.91Z"/><g class="f"><path class="g" d="M149.44,75.63c15.42-7,36.22,5.49,46.46,28,8.9,19.53,6.88,40.14-3.92,49.81,13.32-8.38,16.51-30.84,6.86-52-10.25-22.47-31.05-35-46.46-28a21.55,21.55,0,0,0-5.46,3.6A21.17,21.17,0,0,1,149.44,75.63Z"/><path class="h" d="M144.05,78.09c15.42-7,36.22,5.49,46.46,28,8.9,19.53,6.88,40.13-3.92,49.81,13.32-8.39,16.51-30.84,6.86-52-10.25-22.47-31-35-46.46-28a21.55,21.55,0,0,0-5.46,3.6A21.17,21.17,0,0,1,144.05,78.09Z"/><path class="i" d="M138,80.86c15.42-7,36.22,5.49,46.46,28,8.9,19.53,6.88,40.14-3.92,49.81,13.32-8.39,16.51-30.84,6.86-52-10.25-22.47-31.05-35-46.46-28a21.55,21.55,0,0,0-5.46,3.6A21.17,21.17,0,0,1,138,80.86Z"/><path class="j" d="M131.34,83.88c15.41-7,36.21,5.49,46.45,28,8.91,19.53,6.89,40.14-3.91,49.81,13.32-8.38,16.51-30.84,6.85-52-10.24-22.46-31-35-46.46-28a21.76,21.76,0,0,0-5.45,3.6A20.42,20.42,0,0,1,131.34,83.88Z"/><path class="k" d="M125.53,86.53c15.42-7,36.22,5.49,46.46,28,8.9,19.53,6.89,40.13-3.92,49.81,13.33-8.39,16.52-30.84,6.86-52-10.24-22.47-31-35-46.46-28a21.55,21.55,0,0,0-5.46,3.6A21.17,21.17,0,0,1,125.53,86.53Z"/><path class="l" d="M118.73,88.23c15.42-7,36.22,5.49,46.46,28,8.9,19.53,6.89,40.14-3.92,49.81,13.33-8.39,16.52-30.84,6.86-52-10.24-22.47-31-35-46.46-28a21.55,21.55,0,0,0-5.46,3.6A21.17,21.17,0,0,1,118.73,88.23Z"/><path class="m" d="M111.35,90c15.42-7,36.22,5.49,46.46,28,8.9,19.53,6.88,40.14-3.92,49.81,13.32-8.38,16.51-30.84,6.86-52-10.25-22.47-31.05-35-46.46-28a21.55,21.55,0,0,0-5.46,3.6A21.17,21.17,0,0,1,111.35,90Z"/><path class="n" d="M104.62,92.39c15.41-7,36.21,5.49,46.46,28,8.9,19.53,6.88,40.14-3.92,49.81,13.32-8.38,16.51-30.84,6.85-52-10.24-22.47-31-35-46.45-28a21.64,21.64,0,0,0-5.46,3.6A21.17,21.17,0,0,1,104.62,92.39Z"/><path class="o" d="M98.81,95c15.42-7,36.22,5.49,46.46,28,8.9,19.53,6.89,40.14-3.91,49.81,13.32-8.39,16.51-30.84,6.85-52-10.24-22.47-31-35-46.46-28a21.32,21.32,0,0,0-5.45,3.6A20.29,20.29,0,0,1,98.81,95Z"/><path class="p" d="M92,96.74c15.42-7,36.22,5.49,46.46,28,8.9,19.53,6.89,40.14-3.91,49.81,13.32-8.38,16.51-30.84,6.85-52-10.24-22.47-31-35-46.46-28a21.32,21.32,0,0,0-5.45,3.6A20.29,20.29,0,0,1,92,96.74Z"/><path class="q" d="M84.63,98.54c15.42-7,36.22,5.49,46.46,28,8.9,19.53,6.88,40.14-3.92,49.81,13.32-8.38,16.51-30.84,6.86-52-10.24-22.46-31-35-46.46-28a21.55,21.55,0,0,0-5.46,3.6A21.17,21.17,0,0,1,84.63,98.54Z"/></g><polygon class="r" points="79.61 169.66 56.85 148.41 55.59 145.65 50.41 107.25 51.95 103.51 67.4 90.19 71.44 89.23 96.03 112.6 102.27 154.09 83.48 170.37 79.61 169.66"/><polygon class="s" points="96.07 112.73 96.36 114.65 102.31 154.21 131.39 145.92 132.02 144.51 126.25 106.12 125.33 104.38 96.07 112.73"/><polygon class="t" points="101.33 80.7 99.26 80.1 71.97 87.88 71.44 89.23 71.44 89.23 96.07 112.73 125.33 104.38 124.5 102.81 101.33 80.7 101.33 80.7"/><polygon class="u" points="67.4 90.19 71.97 87.88 71.44 89.23 67.4 90.19"/><polygon class="v" points="96.36 114.65 97.77 112.95 124.52 105.31 126.25 106.12 124.5 102.81 123.83 104.3 97.2 111.9 94.61 111.34 96.36 114.65"/><polygon class="w" points="83.48 170.37 86.44 170.45 108.9 164.04 113.07 162.09 113.07 162.09 131.08 146.65 131.39 145.92 102.31 154.21 83.48 170.37"/><polygon class="x" points="102.05 152.54 103.67 153.41 130.65 145.71 132.02 144.51 131.08 146.65 130.6 146.43 103.41 154.26 101.05 155.29 102.05 152.54"/><polygon class="y" points="132.75 154.53 159.06 138.69 162.03 138.24 199.85 143.72 202.97 146.19 211.43 164.45 211.25 168.54 182.42 185.55 141.39 180.24 131.03 158.01 132.75 154.53"/><polygon class="z" points="182.3 185.55 180.4 185.3 141.26 180.24 141.26 210.07 142.42 211.04 180.4 215.96 182.3 215.56 182.3 185.55"/><ellipse class="aa" cx="170.58" cy="161.02" rx="27.4" ry="14.59"/><path class="ab" d="M196.14,160.8c0,3.32-2.64,6.32-6.94,8.55-4.66,2.43-11.28,4-18.63,4s-14-1.52-18.65-4c-4.28-2.22-6.9-5.22-6.9-8.53,0-6.91,11.44-12.51,25.55-12.51S196.14,153.89,196.14,160.8Z"/><g class="ac"><path class="ad" d="M142.62,166.42c1.77-11,16.16-17.75,32.13-15.17,13.88,2.24,24.38,10.83,25.73,20.23.27-10.31-10.82-20.21-25.88-22.64-16-2.58-30.35,4.21-32.12,15.17a14.28,14.28,0,0,0,0,4.28A14.75,14.75,0,0,1,142.62,166.42Z"/><path class="ae" d="M142,170.25c1.77-11,16.15-17.75,32.12-15.17,13.88,2.24,24.38,10.83,25.73,20.23C200.13,165,189,155.1,174,152.67c-16-2.58-30.36,4.21-32.13,15.17a14.28,14.28,0,0,0,0,4.28A14.77,14.77,0,0,1,142,170.25Z"/><path class="af" d="M141.31,174.57c1.77-11,16.15-17.75,32.12-15.17,13.88,2.24,24.38,10.83,25.73,20.23.27-10.31-10.81-20.2-25.87-22.64-16-2.58-30.35,4.21-32.12,15.17a14,14,0,0,0,0,4.28A14.77,14.77,0,0,1,141.31,174.57Z"/><path class="ag" d="M140.55,179.28c1.77-10.95,16.15-17.74,32.12-15.16,13.88,2.24,24.38,10.82,25.73,20.23.27-10.31-10.82-20.21-25.87-22.64-16-2.58-30.36,4.21-32.13,15.17a14.28,14.28,0,0,0,0,4.28A14.92,14.92,0,0,1,140.55,179.28Z"/><path class="ah" d="M139.88,183.41c1.77-11,16.15-17.75,32.12-15.17,13.88,2.24,24.38,10.83,25.73,20.23.27-10.31-10.81-20.2-25.87-22.64-16-2.58-30.35,4.21-32.12,15.17a14,14,0,0,0,0,4.28A13.11,13.11,0,0,1,139.88,183.41Z"/><path class="ai" d="M138.34,187.73c1.77-10.95,16.15-17.74,32.12-15.16,13.88,2.24,24.38,10.82,25.73,20.23.27-10.31-10.81-20.21-25.87-22.64-16-2.58-30.35,4.21-32.12,15.17a14,14,0,0,0,0,4.28A15.09,15.09,0,0,1,138.34,187.73Z"/></g><polygon class="aj" points="211.25 199.2 212.38 197.4 212.38 169.41 211.25 168.54 211.25 168.54 182.3 185.55 182.3 215.56 184.01 215.2 211.25 199.2 211.25 199.2"/><polygon class="ak" points="211.43 164.45 212.38 169.41 211.25 168.54 211.43 164.45"/><polygon class="al" points="180.4 185.3 181.63 187.09 181.63 214.54 180.4 215.96 184.01 215.2 182.77 214.16 182.77 186.84 184.01 184.54 180.4 185.3"/><polygon class="am" points="131.03 158.01 130.15 160.8 130.15 183.83 130.87 188.31 130.87 188.31 140.65 209.57 141.26 210.07 141.26 180.24 131.03 158.01"/><polygon class="an" points="142.91 180.45 141.65 181.75 141.65 209.42 142.42 211.04 140.65 209.57 140.99 209.18 140.91 181.27 140.58 178.75 142.91 180.45"/></svg>