<svg xmlns="http://www.w3.org/2000/svg" xmlns:xlink="http://www.w3.org/1999/xlink" viewBox="0 0 283.46 283.46"><defs><style>.a{fill:url(#a);}.b{fill:url(#b);}.c{fill:url(#c);}.d{fill:url(#d);}.e{fill:url(#e);}.f{fill:url(#f);}.g{fill:url(#g);}.h{fill:url(#h);}.i{fill:url(#i);}.j{fill:url(#j);}.k{fill:url(#k);}.l{fill:url(#l);}.m{fill:url(#m);}.n{fill:url(#n);}.o{fill:url(#o);}</style><radialGradient id="a" cx="141.36" cy="139.15" r="93.88" gradientUnits="userSpaceOnUse"><stop offset="0.89" stop-color="#a1a1a1"/><stop offset="0.91" stop-color="#949494"/><stop offset="0.95" stop-color="#707071"/><stop offset="1" stop-color="#444445"/></radialGradient><radialGradient id="b" cx="141.36" cy="139.15" r="107.61" gradientUnits="userSpaceOnUse"><stop offset="0.87" stop-color="#999"/><stop offset="0.88" stop-color="#a6a6a6"/><stop offset="0.9" stop-color="#cacaca"/><stop offset="0.92" stop-color="#eee"/><stop offset="0.96" stop-color="#b9b9b9"/><stop offset="1" stop-color="#8c8c8c"/></radialGradient><linearGradient id="c" x1="162.49" y1="169.06" x2="235.62" y2="169.06" gradientUnits="userSpaceOnUse"><stop offset="0" stop-color="#262626"/><stop offset="0.12" stop-color="#373737"/><stop offset="0.53" stop-color="#707070"/><stop offset="0.84" stop-color="#949494"/><stop offset="1" stop-color="#a1a1a1"/></linearGradient><radialGradient id="d" cx="196.99" cy="162.19" r="38.98" gradientTransform="matrix(0.97, 0.34, -0.25, 0.68, 55.23, -15.23)" gradientUnits="userSpaceOnUse"><stop offset="0.38" stop-color="#8c8c8c"/><stop offset="1" stop-color="#eee"/></radialGradient><linearGradient id="e" x1="158.32" y1="79.65" x2="227.37" y2="79.65" gradientTransform="matrix(1.02, 0.04, -0.04, 0.98, -3.69, -0.11)" xlink:href="#c"/><radialGradient id="f" cx="194.84" cy="77.3" r="41.76" gradientTransform="matrix(0.66, -0.75, 0.56, 0.46, 19.93, 193.1)" xlink:href="#d"/><linearGradient id="g" x1="121.71" y1="124.16" x2="85.17" y2="72.16" gradientTransform="translate(4.26 -3.36) rotate(-1.83)" xlink:href="#c"/><radialGradient id="h" cx="93.83" cy="84.88" r="41.8" gradientTransform="matrix(0.67, 0.74, -0.53, 0.49, 82.83, -32.21)" xlink:href="#d"/><linearGradient id="i" x1="122.43" y1="141.71" x2="56.17" y2="157.1" gradientTransform="translate(-1.64 1.98) rotate(1.03)" xlink:href="#c"/><radialGradient id="j" cx="80.21" cy="155.43" r="41.54" gradientTransform="matrix(0.96, -0.27, 0.2, 0.7, -31.81, 72.23)" xlink:href="#d"/><linearGradient id="k" x1="137.16" y1="164.49" x2="136.37" y2="218.61" xlink:href="#c"/><radialGradient id="l" cx="138.76" cy="210.97" r="39.61" gradientTransform="translate(-20.85 341.59) rotate(-87.01) scale(1 0.72)" xlink:href="#d"/><radialGradient id="m" cx="141.96" cy="136.6" r="92.75" gradientUnits="userSpaceOnUse"><stop offset="0" stop-color="#bfbfbf"/><stop offset="0.17" stop-color="#cdcdcd"/><stop offset="0.51" stop-color="#e5e5e5"/><stop offset="0.73" stop-color="#eee"/><stop offset="0.84" stop-color="#d6d6d6"/><stop offset="1" stop-color="#ababab"/></radialGradient><radialGradient id="n" cx="141.36" cy="139.15" r="12.21" gradientUnits="userSpaceOnUse"><stop offset="0.55" stop-color="#999"/><stop offset="0.6" stop-color="#a6a6a6"/><stop offset="0.7" stop-color="#cacaca"/><stop offset="0.79" stop-color="#eee"/><stop offset="0.85" stop-color="#b8b8b8"/><stop offset="0.98" stop-color="#333"/><stop offset="1" stop-color="#262626"/></radialGradient><radialGradient id="o" cx="154.25" cy="243.37" r="72.09" gradientTransform="translate(-0.14 180.98) scale(0.92 0.26)" gradientUnits="userSpaceOnUse"><stop offset="0" stop-color="#333"/><stop offset="1" stop-color="#acb7bd" stop-opacity="0"/></radialGradient></defs><path class="a" d="M141.36,44.73C89.79,44.73,48,87,48,139.14s41.78,94.42,93.35,94.42,93.34-42.27,93.34-94.42S192.9,44.73,141.36,44.73Zm0,177.64c-45.44,0-82.28-37.27-82.28-83.23s36.84-83.21,82.28-83.21,82.25,37.26,82.25,83.21S186.8,222.37,141.36,222.37Z"/><path class="b" d="M141.36,30.92c-59.11,0-107,48.45-107,108.22s47.89,108.23,107,108.23,107-48.46,107-108.23S200.44,30.92,141.36,30.92Zm0,202.64C89.79,233.56,48,191.29,48,139.14s41.78-94.41,93.35-94.41S234.7,87,234.7,139.14,192.9,233.56,141.36,233.56Z"/><path class="c" d="M187.63,155.48c3.65-13.48,37.17-17.76,45.93-18.55l2.06-2.15c-2.85.08-68.06,2.2-72.81,14.4-4.68,12,44.25,51.45,47.7,54.16l-1-4.68C203.85,193.8,182.73,173.59,187.63,155.48Z"/><path class="d" d="M187.63,155.48c3.65-13.48,37.2-17.77,45.93-18.55h0c-2.71.07-62.31,1.69-66.82,13.26-3.66,9.41,27.44,35.69,40.28,46.05C198.29,187.56,183.66,170.14,187.63,155.48Z"/><path class="e" d="M221.46,93.94c-6.63,3.34-35.05,15.73-50.54,5-11.53-8-3.73-39.54-1.39-47.62l-.92-2.51c-.93,2.57-22.37,61.48-12.45,70s64.49-22.34,68.28-24.45Z"/><path class="f" d="M170.92,98.91c-11.58-8-3.76-39.43-1.46-47.34-.06,0-.4,2.16,0,0-.89,2.44-20.37,56-11,64.08s59.35-19.7,63-21.71h0C214.86,97.27,186.42,109.68,170.92,98.91Z"/><path class="g" d="M122.54,46.65l-2.07,2.94c1.63,7.17,6.72,37.28-7.75,49.16C101.94,107.58,71.31,91,64,86.6c-.35.52-.72,1-1.06,1.55,2.3,1.56,54.78,37,65.67,29.84S123.67,50.81,122.54,46.65Z"/><path class="h" d="M120.47,49.59h0c1.62,7.14,6.73,37.27-7.75,49.16-10.82,8.87-41.65-7.93-48.85-12.2l-.11.16c2.18,1.48,52,35,62.3,28.22C136.25,108.22,121.55,53.54,120.47,49.59Z"/><path class="i" d="M119.09,145.55c-2.38-12.64-66.52-21.71-70.79-22.27l3.22,3c7.23,1.27,38.34,8.47,43.69,26.41,4,13.35-22.58,34.76-29.43,39.86l-.72,2.15C67.39,193.22,121.49,158.36,119.09,145.55Z"/><path class="j" d="M115.3,146.67c-2.26-12-59.74-19.86-63.8-20.39v0c7.21,1.27,38.35,8.46,43.71,26.42,4,13.4-22.71,34.87-29.43,39.86h0C68,191.14,117.58,158.83,115.3,146.67Z"/><path class="k" d="M140.76,189.6c13.93-.1,26.5,30,29.49,38l1.77.84c-.81-2.65-18.51-62.49-31.49-63.76-12.8-1.24-38.29,55.65-40,59.59l2.7-.06C106.46,217.6,122,189.74,140.76,189.6Z"/><path class="l" d="M140.76,189.6c14-.1,26.57,30.14,29.49,38h0c-.76-2.52-17.38-57.76-29.7-59-12.14-1.17-35.72,51.84-37.37,55.58h0C106.43,217.64,122,189.74,140.76,189.6Z"/><path class="m" d="M210.51,203.34A94,94,0,0,1,172,228.43c-1.17-3.87-19.32-63.22-32.19-63.49-12.53-.27-36.52,53-39.32,59.32a94.79,94.79,0,0,1-35.45-29.53s57-36.8,53.56-49.65-70.32-21.8-70.32-21.8A93.56,93.56,0,0,1,62.65,87s54.47,38,65.67,30.76-5.78-71.15-5.78-71.15a94.48,94.48,0,0,1,46.07,2.13c-2.28,6.39-21.94,62.58-12,70.27,10.53,8.17,67.85-24.7,67.85-24.7a93.69,93.69,0,0,1,11.18,40.43c-1.35,0-67.69,2-72.35,14.33S209.34,202.4,210.51,203.34Z"/><circle cx="116.16" cy="128.98" r="4.6"/><circle cx="141.96" cy="114.04" r="4.6"/><circle class="n" cx="141.36" cy="139.15" r="12.21"/><circle cx="166.44" cy="132.31" r="4.6"/><circle cx="154.27" cy="163.6" r="4.6"/><circle cx="123.77" cy="161.98" r="4.6"/><ellipse class="o" cx="141.35" cy="243.37" rx="67.68" ry="19.17"/></svg>