<svg xmlns="http://www.w3.org/2000/svg" xmlns:xlink="http://www.w3.org/1999/xlink" viewBox="0 0 283.46 283.46"><defs><style>.a{fill:url(#a);}.b{fill:url(#b);}.c{fill:url(#c);}.d{fill:url(#d);}.e{fill:#c6c4c5;}.f{fill:url(#e);}.g{fill:url(#f);}.h{fill:url(#g);}.i{fill:url(#h);}.j{fill:url(#i);}.k{fill:url(#j);}.l{fill:url(#k);}.m{fill:url(#l);}</style><linearGradient id="a" x1="67.91" y1="140.8" x2="219.23" y2="140.8" gradientUnits="userSpaceOnUse"><stop offset="0" stop-color="#262626"/><stop offset="0.12" stop-color="#373737"/><stop offset="0.53" stop-color="#707070"/><stop offset="0.84" stop-color="#949494"/><stop offset="1" stop-color="#a1a1a1"/></linearGradient><radialGradient id="b" cx="143.63" cy="137.55" r="103.37" gradientTransform="translate(0 -1.34) scale(1 1.01)" gradientUnits="userSpaceOnUse"><stop offset="0.8" stop-color="#535757"/><stop offset="0.85" stop-color="#505454"/><stop offset="0.89" stop-color="#464949"/><stop offset="0.93" stop-color="#353737"/><stop offset="0.96" stop-color="#1d1e1e"/><stop offset="1"/></radialGradient><radialGradient id="c" cx="143.84" cy="138.66" r="75.78" gradientUnits="userSpaceOnUse"><stop offset="0.89" stop-color="#a1a1a1"/><stop offset="0.91" stop-color="#949494"/><stop offset="0.95" stop-color="#707071"/><stop offset="1" stop-color="#444445"/></radialGradient><radialGradient id="d" cx="143.84" cy="138.66" r="86.86" gradientUnits="userSpaceOnUse"><stop offset="0.87" stop-color="gray"/><stop offset="0.88" stop-color="#8d8d8d"/><stop offset="0.9" stop-color="#b1b1b1"/><stop offset="0.92" stop-color="#d6d6d6"/><stop offset="0.98" stop-color="#a1a1a1"/><stop offset="1" stop-color="#8c8c8c"/></radialGradient><radialGradient id="e" cx="143.84" cy="138.66" r="20.26" gradientUnits="userSpaceOnUse"><stop offset="0.55" stop-color="#999"/><stop offset="0.6" stop-color="#a6a6a6"/><stop offset="0.7" stop-color="#cacaca"/><stop offset="0.79" stop-color="#eee"/><stop offset="0.85" stop-color="#b8b8b8"/><stop offset="0.98" stop-color="#333"/><stop offset="1" stop-color="#262626"/></radialGradient><radialGradient id="f" cx="143.84" cy="138.66" r="9.85" xlink:href="#e"/><radialGradient id="g" cx="124.11" cy="133.15" r="3.71" gradientUnits="userSpaceOnUse"><stop offset="0" stop-color="#535757"/><stop offset="0.24" stop-color="#505454"/><stop offset="0.45" stop-color="#464949"/><stop offset="0.64" stop-color="#353737"/><stop offset="0.83" stop-color="#1d1e1e"/><stop offset="1"/></radialGradient><radialGradient id="h" cx="144.33" cy="118.4" r="3.71" xlink:href="#g"/><radialGradient id="i" cx="164.09" cy="133.15" r="3.71" xlink:href="#g"/><radialGradient id="j" cx="157.41" cy="154.69" r="3.71" xlink:href="#g"/><radialGradient id="k" cx="131.23" cy="154.69" r="3.71" xlink:href="#g"/><radialGradient id="l" cx="156.37" cy="242.89" r="72.09" gradientTransform="translate(-0.14 180.61) scale(0.92 0.26)" gradientUnits="userSpaceOnUse"><stop offset="0" stop-color="#333"/><stop offset="1" stop-color="#acb7bd" stop-opacity="0"/></radialGradient></defs><path class="a" d="M178.53,161,208,179.18A77,77,0,0,1,196.74,193L172.5,168.54c-9.46-9.52-25.65-2.2-24.75,11.18l2.35,34.85c-1.71.15-3.46.25-5.2.29h-3.12c-2,0-3.94-.14-5.89-.32v0l1.39-36.3c.52-13.39-15.89-20.25-25-10.44L89.34,192.18A76.58,76.58,0,0,1,79.5,179.9a6.1,6.1,0,0,1-.34-.54l28.21-17.56c11.37-7.09,7.86-24.52-5.38-26.6l-34.08-5.42a74.2,74.2,0,0,1,3.71-16.21c0-.1.07-.19.1-.29l33,10.55c12.77,4.08,23.78-9.87,16.8-21.33l-17.6-28.88.14-.08a77,77,0,0,1,14.34-6.81l12,32.17c4.67,12.55,22.44,12.55,27.13,0L169.44,67l.56.2a76.3,76.3,0,0,1,14.34,7.11l-18.75,28.88c-7.28,11.24,3.29,25.54,16.19,21.79L216,115.06l.17,0a76.7,76.7,0,0,1,3,13.67h-.07l-35.29,5.64C170.64,136.47,167.15,153.89,178.53,161Z"/><path class="b" d="M143.63,34.83A103.83,103.83,0,1,0,247.46,138.66,103.83,103.83,0,0,0,143.63,34.83Zm0,182.49a78.66,78.66,0,1,1,78.65-78.66A78.65,78.65,0,0,1,143.63,217.32Z"/><path class="c" d="M143.84,62.45c-41.62,0-75.35,34.12-75.35,76.2s33.73,76.22,75.35,76.22,75.35-34.12,75.35-76.22S185.45,62.45,143.84,62.45Zm0,143.39c-36.68,0-66.41-30.09-66.41-67.19s29.73-67.17,66.41-67.17,66.4,30.09,66.4,67.17S180.52,205.84,143.84,205.84Z"/><path class="d" d="M143.84,51.3c-47.71,0-86.36,39.11-86.36,87.35S96.13,226,143.84,226s86.37-39.12,86.37-87.37S191.54,51.3,143.84,51.3Zm0,163.57c-41.62,0-75.35-34.12-75.35-76.22s33.73-76.2,75.35-76.2,75.35,34.12,75.35,76.2S185.45,214.87,143.84,214.87Z"/><path class="e" d="M176.92,158.29l34.33,21.27A76.8,76.8,0,0,1,200,193.4l-28.26-28.54c-8.2-8.24-22.24-1.91-21.46,9.69l2.69,40.08q-3,.24-6,.24c-2.47,0-4.93-.12-7.33-.35l1.57-41.29a12.55,12.55,0,0,0-21.71-9.06l-26.5,28.3a75.86,75.86,0,0,1-10.45-13.08L115.23,159A12.57,12.57,0,0,0,110.55,136l-39.32-6.24a74.71,74.71,0,0,1,3.59-15.79l38.07,12.18a12.56,12.56,0,0,0,14.56-18.49L106.88,73.82a74.48,74.48,0,0,1,14.26-6.89l14,37.56a12.55,12.55,0,0,0,23.52,0l14-37.56a76.26,76.26,0,0,1,15,7.35l-22,33.88c-6.32,9.76,2.84,22.14,14,18.9l39.85-11.48a74,74,0,0,1,2.89,13.08l-40.93,6.55A12.57,12.57,0,0,0,176.92,158.29Z"/><circle class="f" cx="143.84" cy="138.66" r="20.26"/><circle class="g" cx="143.84" cy="138.66" r="9.85"/><circle class="h" cx="124.11" cy="133.15" r="3.71"/><circle class="i" cx="144.33" cy="118.4" r="3.71"/><circle class="j" cx="164.09" cy="133.15" r="3.71"/><circle class="k" cx="157.41" cy="154.69" r="3.71"/><circle class="l" cx="131.23" cy="154.69" r="3.71"/><ellipse class="m" cx="143.29" cy="242.89" rx="67.68" ry="19.17"/></svg>