<svg xmlns="http://www.w3.org/2000/svg" xmlns:xlink="http://www.w3.org/1999/xlink" viewBox="0 0 283.46 283.46"><defs><style>.a{fill:#e1cd1f;}.b{fill:url(#a);}.c{fill:url(#b);}.d{fill:url(#c);}.e{fill:url(#d);}.f{fill:url(#e);}.g{fill:url(#f);}.h{fill:url(#g);}.i{fill:url(#h);}.j{fill:url(#i);}.k{fill:url(#j);}.l{fill:url(#k);}.m{fill:url(#l);}.n{fill:url(#m);}.o{fill:url(#n);}.p{fill:url(#o);}.q{fill:url(#p);}.r{fill:url(#q);}.s{fill:url(#r);}.t{fill:url(#s);}.u{fill:url(#t);}.v{fill:url(#u);}.w{fill:url(#v);}.x{fill:url(#w);}.y{fill:#fff;}.z{fill:#c68f2b;}.aa{fill:url(#x);}.ab{fill:url(#y);}</style><linearGradient id="a" x1="23.54" y1="238.11" x2="106.59" y2="214.24" gradientUnits="userSpaceOnUse"><stop offset="0.03" stop-color="#e3e063"/><stop offset="0.24" stop-color="#fffbd1"/><stop offset="0.31" stop-color="#fff9c3"/><stop offset="0.45" stop-color="#fff39f"/><stop offset="0.64" stop-color="#ffe965"/><stop offset="0.87" stop-color="#ffdc16"/><stop offset="0.92" stop-color="#ffd904"/></linearGradient><linearGradient id="b" x1="69.02" y1="157.74" x2="76.73" y2="157.74" gradientUnits="userSpaceOnUse"><stop offset="0" stop-color="#e0d061"/><stop offset="0.24" stop-color="#fffbd1"/><stop offset="0.32" stop-color="#fdf7c3"/><stop offset="0.48" stop-color="#f6eca0"/><stop offset="0.69" stop-color="#ecdb65"/><stop offset="0.92" stop-color="#e0c721"/></linearGradient><linearGradient id="c" x1="-112.42" y1="753.58" x2="10.8" y2="753.58" gradientTransform="translate(-450.91 -325.4) rotate(-58.85)" gradientUnits="userSpaceOnUse"><stop offset="0.23" stop-color="#eeeff2"/><stop offset="0.28" stop-color="#dee2e6"/><stop offset="0.4" stop-color="#b8c1c7"/><stop offset="0.47" stop-color="#aab5bc"/><stop offset="0.53" stop-color="#aeb9bf"/><stop offset="0.59" stop-color="#bbc4c9"/><stop offset="0.66" stop-color="#d0d6d8"/><stop offset="0.72" stop-color="#eef0ee"/><stop offset="0.75" stop-color="#fffffa"/></linearGradient><linearGradient id="d" x1="-112.43" y1="753.58" x2="10.81" y2="753.58" gradientTransform="translate(-450.91 -325.4) rotate(-58.85)" gradientUnits="userSpaceOnUse"><stop offset="0" stop-color="#646464"/><stop offset="0.05" stop-color="#8e8e8e" stop-opacity="0.73"/><stop offset="0.12" stop-color="#b7b7b7" stop-opacity="0.47"/><stop offset="0.19" stop-color="#d7d7d7" stop-opacity="0.26"/><stop offset="0.27" stop-color="#eee" stop-opacity="0.11"/><stop offset="0.36" stop-color="#fbfbfb" stop-opacity="0.03"/><stop offset="0.51" stop-color="#fff" stop-opacity="0"/><stop offset="0.65" stop-color="#fcfcfc" stop-opacity="0.02"/><stop offset="0.74" stop-color="#f1f1f1" stop-opacity="0.1"/><stop offset="0.81" stop-color="#dfdfdf" stop-opacity="0.23"/><stop offset="0.88" stop-color="#c5c5c5" stop-opacity="0.41"/><stop offset="0.93" stop-color="#a4a4a4" stop-opacity="0.64"/><stop offset="0.99" stop-color="#7c7c7c" stop-opacity="0.93"/><stop offset="1" stop-color="#717171"/></linearGradient><radialGradient id="e" cx="-17.23" cy="719.21" r="19.22" gradientTransform="matrix(0.35, -0.94, 2.06, 0.76, -1318.94, -504.46)" gradientUnits="userSpaceOnUse"><stop offset="0.47" stop-color="#646464"/><stop offset="0.56" stop-color="#686969" stop-opacity="0.94"/><stop offset="0.68" stop-color="#757779" stop-opacity="0.77"/><stop offset="0.82" stop-color="#898f92" stop-opacity="0.49"/><stop offset="0.97" stop-color="#a5afb4" stop-opacity="0.1"/><stop offset="1" stop-color="#acb7bd" stop-opacity="0"/></radialGradient><radialGradient id="f" cx="-31.19" cy="673.78" r="5.68" gradientTransform="translate(526.75 -3752.51) rotate(5.79) scale(1 5.68)" gradientUnits="userSpaceOnUse"><stop offset="0.02" stop-color="#646464"/><stop offset="0.19" stop-color="#6b6c6d" stop-opacity="0.9"/><stop offset="0.47" stop-color="#7e8284" stop-opacity="0.64"/><stop offset="0.83" stop-color="#9ca5aa" stop-opacity="0.22"/><stop offset="1" stop-color="#acb7bd" stop-opacity="0"/></radialGradient><radialGradient id="g" cx="-8.37" cy="665.16" r="9.08" gradientTransform="translate(988.74 -941.11) rotate(41.77) scale(1 1.96)" xlink:href="#f"/><linearGradient id="h" x1="-88.6" y1="682.69" x2="-53.14" y2="682.69" gradientTransform="translate(167.56 -594.32)" gradientUnits="userSpaceOnUse"><stop offset="0" stop-color="#aab5bc"/><stop offset="0.01" stop-color="#acb7bd"/><stop offset="0.24" stop-color="#d9dede"/><stop offset="0.41" stop-color="#f5f6f2"/><stop offset="0.51" stop-color="#fffffa"/><stop offset="0.61" stop-color="#f4f5f2"/><stop offset="0.79" stop-color="#d6dbdc"/><stop offset="1" stop-color="#aab5bc"/></linearGradient><linearGradient id="i" x1="-87.95" y1="680.13" x2="-53.78" y2="680.13" gradientTransform="translate(165.37 -593.08)" gradientUnits="userSpaceOnUse"><stop offset="0" stop-color="#646464"/><stop offset="0.07" stop-color="#6d6e6e"/><stop offset="0.19" stop-color="#868888"/><stop offset="0.35" stop-color="#afb2b2"/><stop offset="0.49" stop-color="#dbe0e0"/><stop offset="1" stop-color="#646464"/></linearGradient><linearGradient id="j" x1="-88.6" y1="677.56" x2="-53.14" y2="677.56" gradientTransform="translate(163.18 -591.85)" xlink:href="#h"/><linearGradient id="k" x1="-87.95" y1="675" x2="-53.78" y2="675" gradientTransform="translate(160.98 -590.61)" xlink:href="#i"/><linearGradient id="l" x1="-88.6" y1="672.44" x2="-53.14" y2="672.44" gradientTransform="translate(158.79 -589.37)" xlink:href="#h"/><linearGradient id="m" x1="-87.95" y1="669.87" x2="-53.78" y2="669.87" gradientTransform="translate(156.6 -588.13)" xlink:href="#i"/><linearGradient id="n" x1="-101.71" y1="761.77" x2="10.81" y2="761.77" gradientTransform="translate(-450.91 -325.4) rotate(-58.85)" gradientUnits="userSpaceOnUse"><stop offset="0" stop-color="#bdced6"/><stop offset="0.99" stop-color="#6c6c6c"/></linearGradient><linearGradient id="o" x1="-101.21" y1="830.31" x2="4.77" y2="830.31" gradientTransform="translate(-450.91 -325.4) rotate(-58.85)" gradientUnits="userSpaceOnUse"><stop offset="0" stop-color="#bdced6"/><stop offset="0.99" stop-color="#718792"/></linearGradient><linearGradient id="p" x1="-109.55" y1="782.11" x2="8.18" y2="782.11" gradientTransform="translate(-450.91 -325.4) rotate(-58.85)" gradientUnits="userSpaceOnUse"><stop offset="0" stop-color="#202120"/><stop offset="0.03" stop-color="#353635"/><stop offset="0.07" stop-color="#494948"/><stop offset="0.12" stop-color="#565756"/><stop offset="0.18" stop-color="#5f5f5e"/><stop offset="0.28" stop-color="#616160"/><stop offset="0.32" stop-color="#686867"/><stop offset="0.5" stop-color="#8b8b89"/><stop offset="0.64" stop-color="#a0a09d"/><stop offset="0.74" stop-color="#a8a8a5"/><stop offset="0.78" stop-color="#a2a29f"/><stop offset="0.83" stop-color="#91928f"/><stop offset="0.88" stop-color="#767674"/><stop offset="0.94" stop-color="#50504f"/><stop offset="0.99" stop-color="#2a2b2a"/></linearGradient><linearGradient id="q" x1="58.95" y1="732.4" x2="58.95" y2="728.71" gradientTransform="matrix(0.56, -0.58, 0.72, 0.69, -450.15, -364.18)" xlink:href="#h"/><linearGradient id="r" x1="87.14" y1="741.11" x2="87.14" y2="737.42" gradientTransform="matrix(0.54, -0.55, 0.72, 0.69, -466.58, -347.18)" xlink:href="#h"/><linearGradient id="s" x1="38.87" y1="749.64" x2="38.87" y2="745.96" gradientTransform="matrix(0.57, -0.59, 0.72, 0.69, -444.84, -369.69)" xlink:href="#h"/><linearGradient id="t" x1="104.03" y1="757.62" x2="104.03" y2="753.89" gradientTransform="matrix(0.52, -0.54, 0.72, 0.69, -479.46, -333.85)" xlink:href="#h"/><radialGradient id="u" cx="106.91" cy="127.27" r="35.81" gradientTransform="translate(139.15 235.87) rotate(-125.85) scale(1 0.29)" xlink:href="#f"/><linearGradient id="v" x1="-79.75" y1="787.72" x2="-36.88" y2="787.72" gradientTransform="translate(-450.91 -325.4) rotate(-58.85)" gradientUnits="userSpaceOnUse"><stop offset="0" stop-color="#202120"/><stop offset="0.01" stop-color="#262726"/><stop offset="0.05" stop-color="#3c3c3b"/><stop offset="0.1" stop-color="#4d4d4c"/><stop offset="0.17" stop-color="#585857"/><stop offset="0.25" stop-color="#5f5f5e"/><stop offset="0.5" stop-color="#616160"/><stop offset="0.66" stop-color="#5e5e5d"/><stop offset="0.78" stop-color="#545453"/><stop offset="0.88" stop-color="#444443"/><stop offset="0.98" stop-color="#2d2e2d"/><stop offset="0.99" stop-color="#2a2b2a"/></linearGradient><radialGradient id="w" cx="-61.99" cy="794.04" r="20.31" gradientTransform="matrix(0.52, -0.86, 1.19, 0.72, -720.09, -488.09)" gradientUnits="userSpaceOnUse"><stop offset="0" stop-color="#fffad0"/><stop offset="0.69" stop-color="#fecb2b"/><stop offset="0.79" stop-color="#efbf29"/><stop offset="0.98" stop-color="#c7a123"/><stop offset="1" stop-color="#c49f23"/></radialGradient><linearGradient id="x" x1="56.35" y1="222.21" x2="82.23" y2="222.21" gradientUnits="userSpaceOnUse"><stop offset="0.03" stop-color="#dbbb8a"/><stop offset="0.24" stop-color="#fffbd1"/><stop offset="0.33" stop-color="#faf2c3"/><stop offset="0.49" stop-color="#eedba0"/><stop offset="0.71" stop-color="#dab566"/><stop offset="0.92" stop-color="#c68f2b"/></linearGradient><radialGradient id="y" cx="279.46" cy="230.44" r="72.09" gradientTransform="translate(-49.06 171.36) scale(0.92 0.26)" gradientUnits="userSpaceOnUse"><stop offset="0" stop-color="#999"/><stop offset="0.12" stop-color="#9b9d9d" stop-opacity="0.88"/><stop offset="1" stop-color="#acb7bd" stop-opacity="0"/></radialGradient></defs><path class="a" d="M83.69,212.27c26.36,7.64,50.94,4.25,48.45,13.3s-16.74,2.26-19.24,8.77S95.62,232.08,84.84,238s-35,11.6-35.35,5.09-36.7,1.7-34.92-6.51,13.54-8,9.62-15.45S57.32,204.64,83.69,212.27Z"/><path class="b" d="M83.2,212.14c25.1,7.27,48.51,4,46.13,12.66S113.39,227,111,233.15,94.56,231,84.3,236.65s-33.33,11-33.67,4.85-34.94,1.62-33.24-6.2,12.89-7.61,9.16-14.71S58.09,204.86,83.2,212.14Z"/><path class="c" d="M68.9,99.11c-1.54,9.72-.21,94.74.17,116.86h0s-11.46,1.14-8.59,6.1c2.25,3.9,8.14,3.38,10.68,3.38s7.34-2.29,7.16-4.22c0,0-4.33-114.49-4.07-122.12S83.15,93,83.15,93l2-2.8S70.68,87.91,68.9,99.11Z"/><path class="d" d="M195.1,53c-11.54-6.78-42-19.64-51.13-22.27s-9.49-7.8-14.12-8.27-15.37,2.36-17.33,15.88-2.08,33-2.08,33a5,5,0,0,1-4,3.9S100.17,85.65,89,103.68c0,0,7.47,5.83,8.9,7.95S121.81,150.05,129,156c1.88,1.55,5,3.56,11.39,7.36l4.28-.75c18.1,10.71,52.47,30.21,54.17,31.32v2.75c4.16,2.1,7.23,2.9,10.32.83,4.92-3.29,26.81-38.48,33.06-48.61s27.45-44,24.2-50.46S201.68,56.87,195.1,53ZM183.41,72.88c-3.67,7.13-19.34,1.54-23.2.1-2.09-.77-24.33-7.74-27.31-9.69s-5-13-1.64-17.91,35,10.77,44.18,14.75S185.67,68.46,183.41,72.88Z"/><path class="e" d="M195.1,53c-11.54-6.77-42-19.64-51.12-22.27a22.34,22.34,0,0,1-2.67-.93c-6.6-2.77-7.34-6.92-11.47-7.34-4.62-.47-15.36,2.36-17.32,15.89s-2.07,33-2.07,33a5.3,5.3,0,0,1-2.23,3.2,4.62,4.62,0,0,1-1.75.69S100.18,85.66,89,103.68c0,0,7.48,5.83,8.9,7.95S121.82,150.06,129,156c1.95,1.59,4.69,3.37,11.4,7.35.34.21,3.93-1,4.28-.75,18.11,10.69,52.49,30.22,54.17,31.32v2.75c4.23,2.21,7.08,3,10.32.83,4.92-3.29,26.81-38.48,33.06-48.61s27.45-44,24.2-50.45c-.48-1-1.2-1.74-3.84-3.74l-2.14,1C254.22,91.75,244,85.08,234.19,79.1l-2.28-4.45C215.41,64.67,198.37,54.93,195.1,53ZM183.41,72.87c-3.66,7.14-19.33,1.55-23.2.11-2.09-.77-24.33-7.73-27.31-9.68s-5-13-1.64-17.92,35,10.77,44.18,14.75S185.67,68.46,183.41,72.87Z"/><path class="f" d="M134.56,36.13c-11.82-1.34-18,8.43-19.67,18.34,0,0,3.51,13.81,30.5,26s44.72,5.13,51.22-9.08S146.38,37.48,134.56,36.13Zm48.85,36.75c-3.67,7.13-19.34,1.54-23.2.1-2.09-.77-24.33-7.74-27.31-9.69s-5-13-1.64-17.91,35,10.77,44.18,14.75S185.67,68.46,183.41,72.88Z"/><path class="g" d="M119.87,34.48c-6,6.47-5.27,38.44-5.27,38.44s-4.6.11-4.15-1.58c0,0,.12-19.46,2.07-33S125.22,22,129.84,22.47C134,22.89,123.11,31,119.87,34.48Z"/><path class="h" d="M112.61,38.2c2-13.52,12.7-16.35,17.32-15.88,4.13.42,4.87,4.57,11.47,7.34-8.38.18-18.2,1.19-21.44,4.67Z"/><rect class="i" x="78.97" y="86.8" width="35.46" height="3.14" rx="0.77" transform="translate(-28.95 125.42) rotate(-58.85)"/><rect class="j" x="77.42" y="86.05" width="34.17" height="1.99" rx="0.49" transform="translate(-28.87 122.9) rotate(-58.85)"/><rect class="k" x="74.58" y="84.15" width="35.46" height="3.14" rx="0.77" transform="matrix(0.52, -0.86, 0.86, 0.52, -28.8, 120.38)"/><rect class="l" x="73.03" y="83.4" width="34.17" height="1.99" rx="0.49" transform="translate(-28.72 117.87) rotate(-58.85)"/><rect class="m" x="70.19" y="81.5" width="35.46" height="3.14" rx="0.77" transform="translate(-28.65 115.35) rotate(-58.85)"/><rect class="n" x="68.65" y="80.75" width="34.17" height="1.99" rx="0.49" transform="translate(-28.57 112.83) rotate(-58.85)"/><path class="o" d="M231.91,74.65l2.28,4.45-22.94,11s-9.56,5.3-13.19,5S155.41,90,148,99.72c-6.74,8.79.41,46.11-2.31,54.27,0,0-8.63-45.61-2.12-55.54s33.26-9.06,51.79-6.61C200.35,92.51,231.91,74.65,231.91,74.65Z"/><path class="p" d="M259.67,98.48c-.78,2.29-19.59,56.16-54.12,91.13C205.55,189.61,241.54,141.65,259.67,98.48Z"/><path class="q" d="M234.19,79.1l26.26,16.59-.75,2.72,0,.07c-46.54,99-60.83,95.4-60.83,95.4l-54.17-31.32c6.22-15.89-3.46-54,3.28-62.84,7.46-9.7,46.49-5,50.11-4.65s13.19-5,13.19-5Z"/><path class="r" d="M116.1,102.62l-13.75,14.66a1,1,0,0,0-.24,1,2.8,2.8,0,0,1-2-1.29,1.49,1.49,0,0,1,.17-1.88L114,100.62a1.31,1.31,0,0,1,1.84.16h0A1.32,1.32,0,0,1,116.1,102.62Z"/><path class="s" d="M118.43,112.76l-11.36,12.18a.86.86,0,0,0-.13.87,2.71,2.71,0,0,1-1.85-1.31,1.59,1.59,0,0,1,0-1.76l11.26-12c.37-.38,1.13-.24,1.71.31h0C118.63,111.62,118.79,112.38,118.43,112.76Z"/><path class="t" d="M120.28,123.12l-8.48,9.2a.72.72,0,0,0,0,.75,3.36,3.36,0,0,1-1.93-1.38,1.61,1.61,0,0,1,0-1.63l8.35-8.94c.27-.29,1-.07,1.54.48h0C120.32,122.15,120.56,122.83,120.28,123.12Z"/><path class="u" d="M121.6,133.18l-5.45,6.06c-.16.2.19.61.19.61a4.11,4.11,0,0,1-2-1.33,1.88,1.88,0,0,1,0-1.69l5.24-5.65c.18-.19.79.11,1.36.66h0C121.46,132.39,121.78,133,121.6,133.18Z"/><path class="v" d="M106.47,75.19S100.18,85.6,89,103.62c0,0,7.48,5.83,8.9,7.95.24.35,1.07,1.67,2.3,3.61a1.51,1.51,0,0,0-.1,1.79,2.8,2.8,0,0,0,2,1.29s0,0,0-.11l3,4.64a1.62,1.62,0,0,0,0,1.71,2.71,2.71,0,0,0,1.85,1.31,1.22,1.22,0,0,1,0-.19q1.42,2.19,2.94,4.49a1.69,1.69,0,0,0,0,1.58,3.36,3.36,0,0,0,1.93,1.38v0l2.52,3.75,0,0a1.88,1.88,0,0,0,0,1.69,4.11,4.11,0,0,0,2,1.33,1.41,1.41,0,0,1-.19-.35c5.16,7.5,10.11,14.15,12.84,16.4,0,0,4.28-6.35,5.33-17.61S106.47,75.19,106.47,75.19Z"/><path class="w" d="M210.86,117.66a21.43,21.43,0,0,1-22.17,36.68C178.56,148.22,168,116.82,168,116.82S200.73,111.53,210.86,117.66Z"/><path class="x" d="M208.93,119.73a18.66,18.66,0,1,1-19.3,31.94c-8.82-5.33-18-32.67-18-32.67S200.11,114.4,208.93,119.73Z"/><path class="y" d="M175.25,123.89s9.44,24.08,16.91,23.74S175.25,123.89,175.25,123.89Z"/><path class="y" d="M194.8,149.67s6.65,4.08,14.43-2S199.18,152,194.8,149.67Z"/><path class="z" d="M70.19,225.32c-5.39,0-9.75-2.25-9.75-5a3,3,0,0,1,.66-1.81,3.38,3.38,0,0,0-1.22,2.44c0,2.77,4.36,5,9.75,5,4.14,0,7.67-1.33,9.08-3.21C77.05,224.27,73.86,225.32,70.19,225.32Z"/><path class="z" d="M67.61,228.51c-7.4,0-13.4-3.09-13.4-6.9a4.1,4.1,0,0,1,.92-2.49,4.6,4.6,0,0,0-1.69,3.35c0,3.81,6,6.9,13.4,6.9,5.69,0,10.54-1.83,12.48-4.41C77,227.08,72.65,228.51,67.61,228.51Z"/><path class="aa" d="M70.52,226.48c-7.4,0-13.39-3.09-13.39-6.9a4.13,4.13,0,0,1,.91-2.49,4.62,4.62,0,0,0-1.69,3.34c0,3.82,6,6.91,13.4,6.91,5.69,0,10.54-1.84,12.48-4.42C80,225,75.56,226.48,70.52,226.48Z"/><path class="z" d="M69.17,217.4V217c-2.61.4-4.45,1.35-4.45,2.46a1.66,1.66,0,0,0,.91,1.29,1.33,1.33,0,0,1-.49-1C65.14,218.74,66.79,217.83,69.17,217.4Z"/><ellipse class="ab" cx="207.28" cy="230.44" rx="67.68" ry="19.17"/></svg>