<svg xmlns="http://www.w3.org/2000/svg" xmlns:xlink="http://www.w3.org/1999/xlink" viewBox="0 0 283.46 283.46"><defs><style>.a{fill:url(#a);}.b{clip-path:url(#b);}.c{fill:url(#c);}.d{fill:url(#d);}.e{fill:url(#e);}.f{fill:url(#f);}.g{fill:url(#g);}.h{fill:url(#h);}.i{fill:url(#i);}.j{fill:#201e1e;}.k{fill:url(#j);}.l{fill:#fff;}.m{fill:url(#k);}</style><radialGradient id="a" cx="132.75" cy="244.8" r="72.09" gradientTransform="translate(24.54 182.04) scale(0.92 0.26)" gradientUnits="userSpaceOnUse"><stop offset="0" stop-color="#333"/><stop offset="1" stop-color="#acb7bd" stop-opacity="0"/></radialGradient><clipPath id="b"><path d="M176.94,244.8H128.49c-35.5,0-64.26-48-64.26-107.2S93,30.42,128.49,30.42l48.33,1.68c-16.23,1-31.9,18.6-40.63,45-6.87,17.24-10.66,38.28-10.66,60.5a168.6,168.6,0,0,0,6.25,46.19.33.33,0,0,0,0,.13C139.81,219.89,157,244.8,176.94,244.8Z"/></clipPath><linearGradient id="c" x1="145.99" y1="231.34" x2="145.99" y2="31.05" gradientTransform="matrix(0.77, -0.27, 0.33, 0.94, -14.57, 70.66)" gradientUnits="userSpaceOnUse"><stop offset="0" stop-color="#010101"/><stop offset="0.16" stop-color="#0e0e0e"/><stop offset="0.46" stop-color="#323232"/><stop offset="0.57" stop-color="#414141"/><stop offset="0.67" stop-color="#3c3c3c"/><stop offset="0.79" stop-color="#2d2d2d"/><stop offset="0.92" stop-color="#141414"/><stop offset="1" stop-color="#010101"/></linearGradient><linearGradient id="d" x1="95.63" y1="242.39" x2="95.63" y2="15.82" xlink:href="#c"/><linearGradient id="e" x1="113.48" y1="238.34" x2="113.48" y2="20.79" xlink:href="#c"/><linearGradient id="f" x1="120.71" y1="236.4" x2="120.71" y2="23.17" xlink:href="#c"/><linearGradient id="g" x1="135.29" y1="233.09" x2="135.29" y2="28.31" xlink:href="#c"/><linearGradient id="h" x1="127.78" y1="234.89" x2="127.78" y2="26.05" xlink:href="#c"/><linearGradient id="i" x1="106.2" y1="240.17" x2="106.2" y2="18.81" xlink:href="#c"/><radialGradient id="j" cx="179.23" cy="138.07" r="56.96" gradientTransform="translate(20.25 -125.51) scale(0.89 1.91)" gradientUnits="userSpaceOnUse"><stop offset="0.57"/><stop offset="0.57" stop-color="#010101"/><stop offset="0.6" stop-color="#232525"/><stop offset="0.62" stop-color="#3f4242"/><stop offset="0.65" stop-color="#555858"/><stop offset="0.68" stop-color="#646868"/><stop offset="0.71" stop-color="#6d7272"/><stop offset="0.76" stop-color="#707575"/><stop offset="0.76" stop-color="#6a6f6f"/><stop offset="0.78" stop-color="#5d6161"/><stop offset="0.79" stop-color="#555959"/><stop offset="0.83" stop-color="#535757"/><stop offset="1" stop-color="#201e1e"/></radialGradient><linearGradient id="k" x1="156.17" y1="138.9" x2="209.44" y2="138.9" gradientUnits="userSpaceOnUse"><stop offset="0"/><stop offset="0.25" stop-color="#060606"/><stop offset="0.59" stop-color="#181818"/><stop offset="0.98" stop-color="#353535"/><stop offset="1" stop-color="#363636"/></linearGradient></defs><ellipse class="a" cx="146.31" cy="244.8" rx="67.68" ry="19.17"/><path d="M176.94,244.8H128.49c-35.5,0-64.26-48-64.26-107.2S93,30.42,128.49,30.42l48.33,1.68c-16.23,1-31.9,18.6-40.63,45-6.87,17.24-10.66,38.28-10.66,60.5a168.6,168.6,0,0,0,6.25,46.19.33.33,0,0,0,0,.13C139.81,219.89,157,244.8,176.94,244.8Z"/><g class="b"><path class="c" d="M134.24,51.14c3.85.16,7.11.31,10.48.5a7.6,7.6,0,0,1-.82,1.28c-.92,1-.64,1.6.55,1.87,3.5.79,3.86,2.4,1.39,5.14A21.54,21.54,0,0,0,143,64.45a3,3,0,0,1-2.47,1.63c-4.55.61-6.84,2.5-8,5.66s-2.79,6.15-4.18,9.31c-.45,1-.33,1.66.77,1.83,3.72.6,4.25,2.56,2.26,5.86a5.89,5.89,0,0,0-.8,2.24c-.28,2.72-2.25,4.4-5.51,5.41a3.85,3.85,0,0,0-3,3.1c-.93,4-1.9,8.06-2.76,12.17-.26,1.24-.07,2,1.16,2.08,3.61.14,4.17,2.15,3.14,5.5a20.07,20.07,0,0,0-.67,4.74,2.56,2.56,0,0,1-1.72,2.46c-3.59,1.49-4.77,3.83-4.59,7.19s-.15,6.81-.2,10.26c0,1.18.29,1.86,1.42,1.82,3.07-.1,4.49,1.34,3.93,4.86a4.54,4.54,0,0,0,.06,1.65c.71,3.38.1,6.19-3.42,8.31a3,3,0,0,0-.82,2.11,116.54,116.54,0,0,0,2,13.48c.14.64.91,1.47,1.41,1.41,3.36-.36,4.61,1.67,4.84,5.23a2.89,2.89,0,0,0,.2.89c1.38,3.34,1.11,6.17-1.76,8.54A2.3,2.3,0,0,0,124,194a127,127,0,0,0,4.56,13.16c.23.56,1.07,1.22,1.49,1.12,3.17-.76,4.64,1.3,5.61,4.7a20.33,20.33,0,0,0,1.16,2.67c1.24,2.72,1.31,2.78-.18,4.91-1,1.39-1,2.58,0,4.39,2,3.45,4,7,6.06,10.37.59.94,1.14,1.54,2,1.25,2.41-.83,4.26.35,5.74,3.41a3.9,3.9,0,0,0,.61.89c2.37,2.69,3.58,5.2,2,7.77-.17.28.17,1.23.51,1.73a39.1,39.1,0,0,0,2.52,3.06c-1.39,1.27-2.66,2.47-4.08,3.85-.26-.89-.5-1.61-.63-2.31a6.76,6.76,0,0,0-4.49-5.4c-2.79-.87-3.45-1.64-3.7-4.67A6.27,6.27,0,0,0,139,239c-2.49-.94-3.21-2-3.08-4.8a6,6,0,0,0-3.71-6.26c-2.54-1.09-3.2-2.24-2.77-5.18s-.74-5.34-3.13-6.4S123.15,214,123.8,211s-.26-5.63-2.83-6.86c-2.18-1-2.73-2.4-1.93-5.1,1.07-3.55.44-5.77-2.32-7.39-2.15-1.25-2.54-2.6-1.43-5.3,1.36-3.27.83-5.73-1.76-7.39-2.16-1.38-2.47-2.79-1.08-5.57,1.6-3.18,1.25-5.7-1.19-7.33-2.13-1.43-2.36-2.84-.77-5.61,2-3.42,1.81-5.82-.79-7.66-1.81-1.29-1.94-2.82-.34-5.22,2.5-3.68,2.53-5.8-.12-8-1.71-1.43-1.69-3,.18-5.25,2.66-3.21,2.89-5.62.57-7.74-1.87-1.69-1.74-3.13.63-5.65,2.72-2.86,3.12-5.4,1-7.34-1.84-1.68-1.64-3.1.93-5.56,3.2-3,3.72-5.33,1.5-7.49-1.54-1.5-1.2-3,1.26-5,3.79-3.12,4.47-5.15,2.31-7.63-1.4-1.6-.9-3,1.83-4.91,3.83-2.63,4.82-4.81,3-7.13-1.47-1.87-.89-3.18,2.44-5.13,3.75-2.19,5-4.53,3.34-6.59-1.42-1.76-.79-3,2.53-4.78,4.59-2.4,5.84-4.25,4.18-6.64A10.85,10.85,0,0,1,134.24,51.14Z"/><path class="d" d="M136.85,274.3a11.81,11.81,0,0,1-1.2-1c-2.64-2.94-4.66-3.34-6.47-2.59-.83.34-1.64-.15-2.72-1.19q-3.19-3.09-6.32-6.2c-.89-.89-1.32-1.62-1.12-2.39,0,0,0-.1,0-.14,1-2.37-.3-4.71-3.06-7.6a80.55,80.55,0,0,1-6.94-8.79c-.75-1.05-1.42-1.7-2.24-1.39-2.46.94-4.71-.57-6.61-4.23a5.34,5.34,0,0,0-.6-.89c-2.79-3.27-3.89-6.39-1.91-9.16a2.83,2.83,0,0,0-.24-2q-3.84-6.93-7.28-14a2.27,2.27,0,0,0-1.5-1.1c-4-.25-4-.2-6.24-5.3a5.26,5.26,0,0,0-.26-.59c-2.25-3.78-2.69-7.25.08-10.09a3.11,3.11,0,0,0,.14-2.17q-2.45-7.44-4.5-15c-.16-.6-.91-1.38-1.33-1.33-3.6.49-5.25-2.09-5.62-6.57a13.51,13.51,0,0,0-.4-1.89c-.94-4.59-1-4.69,2.11-7.74a3.37,3.37,0,0,0,1.08-3.48,134.86,134.86,0,0,1-1.55-14.23c-.08-1.48-.44-2.38-1.7-2.3-3.23.23-4.49-1.79-4.16-5.79a43.62,43.62,0,0,0-.12-5.95,2.41,2.41,0,0,1,1.22-2.56c3.87-2,4.79-5,4.64-9.08-.12-3.57.54-7.36.87-11,.06-.66-.42-1.6-.94-1.66-3.69-.37-5-2.64-3.45-7a2,2,0,0,0,.1-.62c-.09-4.18,1.81-7.35,6.49-9.13a3.52,3.52,0,0,0,1.45-1.74q1.95-7.59,4.33-14.94c.19-.58-.16-1.48-.66-1.54-4.31-.56-4.45-3.36-2.18-7.37a11.41,11.41,0,0,0,1.16-2.9c.52-2.18,2-3.54,4.7-4.25s5.22-1.75,5.64-4.64c2.06-.06,3.8-.1,5.54-.13.14,0,.37,0,.4,0,.61,1.25,1.25,2.49,1.81,3.78s-.46,2.48-3.48,4.47C90,61.4,89.07,63.8,90.71,66.13s1.37,3-2.27,5.86-4.27,5.29-2.31,7.59c1.67,2,1.34,3-1.55,5.59-3.7,3.37-4.15,5.72-1.86,8.24,1.62,1.76,1.34,3-1.08,5.43-3.39,3.42-3.73,5.89-1.4,8.42,1.82,2,1.65,3-.74,5.84-2.85,3.37-3,6-.66,8.22,2.06,2,2,2.91-.2,6-2.58,3.72-2.47,6.14.16,8.34,1.88,1.58,1.91,2.88.27,5.59-2.49,4.17-2.21,6.55.73,8.83,1.76,1.35,1.91,2.83.63,5.25-2.23,4.25-1.81,6.58,1.31,8.94,1.82,1.36,2.05,2.73,1,5.24-1.84,4.46-1.31,6.45,2,8.76,1.81,1.27,2.14,2.54,1.38,5-1.46,4.89-.89,6.44,2.78,8.85,1.62,1.05,2.07,2.45,1.58,4.63-1.1,5-.34,6.67,3.42,8.79a4,4,0,0,1,1.91,4.53c-.72,4.68.2,6.46,3.92,8.42,1.89,1,2.51,2.27,2.37,4.63-.25,4.38.81,6.08,4.44,7.81,2.09,1,2.73,2.06,2.83,4.53.2,4.26,1.46,5.94,5.1,7.4a4.51,4.51,0,0,1,3.11,4.15c.64,4.33,1.94,5.79,5.91,7.19a4.81,4.81,0,0,1,3.24,3.7c1.07,4.25,2.47,5.62,6.39,6.81a5.24,5.24,0,0,1,3.77,3.66c.36.91.92,1.85,1.32,2.75a1.59,1.59,0,0,1,.16,1.16A19.56,19.56,0,0,1,136.85,274.3Z"/><path class="e" d="M105.15,50.51c1.88,0,3.2,0,4.49,0,.28,0,.66,0,.71.19a21,21,0,0,1,1.33,4c.19,1.28-1.28,2.43-3,3.43-4.48,2.55-5.58,4.91-3.72,7.36,1.35,1.79.74,3.16-2.15,5.14-4.11,2.83-5,5.33-2.86,7.65,1.42,1.56.88,3.12-1.68,5.18-3.94,3.19-4.52,5.57-2.22,8,1.41,1.52,1,3.13-1.23,5.16-3.64,3.34-4.06,5.78-1.67,8.24,1.6,1.65,1.28,3.24-1,5.59-2.92,3-3.19,5.84-.92,7.9,1.88,1.72,1.72,3.24-.49,6-2.58,3.17-2.58,6-.17,7.94,1.84,1.45,1.82,3.08.07,5.63-2.5,3.64-2.33,6.24.32,8.3,1.85,1.45,1.92,3,.35,5.65-2,3.43-1.72,6.11.82,8,2.2,1.65,2.35,3,.8,6.05s-.94,6,1.35,7.49c2.49,1.65,2.73,2.94,1.41,6.24-1.22,3-.36,6,2,7.31s2.78,2.73,1.85,5.78c-1.05,3.5-.07,6,2.71,7.55,2.17,1.17,2.67,2.6,2,5.4-.77,3.44.38,5.93,3.19,7.35,2.33,1.18,2.92,2.54,2.5,5.39a6.18,6.18,0,0,0,3.52,6.86c2.58,1.12,3.24,2.34,3.12,5.38a6.34,6.34,0,0,0,4.28,6.55c2.19.79,3.11,2.14,3.26,4.6.25,3.69,1.82,5.64,5.08,6.72a4.7,4.7,0,0,1,3.36,4.16c.54,3.51,2.23,5.33,5.56,6.36a5.11,5.11,0,0,1,3.86,4.17,3.33,3.33,0,0,0,.34,1.11c1.87,2.55.26,2.83-.66,3.92-.43-1-.75-1.75-1-2.46a8.16,8.16,0,0,0-5.35-5.37c-2.8-.79-3.65-1.65-4.33-4.74a7.6,7.6,0,0,0-5-5.89c-2.8-1-3.51-1.88-3.84-5.13a7.1,7.1,0,0,0-4.22-6.05c-3.06-1.28-3.66-2.12-3.65-5.64a6.78,6.78,0,0,0-3.81-6.31c-2.8-1.21-3.44-2.28-3.13-5.77a6.55,6.55,0,0,0-3.38-6.74c-2.69-1.32-3.2-2.35-2.61-5.83.56-3.16-.44-5.72-2.94-7.12s-3-2.63-2.1-5.89c.89-3.09.07-5.84-2.33-7.35-2.58-1.62-3-2.89-1.7-6.21,1.13-3,.49-5.89-1.74-7.34-2.55-1.65-2.88-3-1.36-6.28s1-6.06-1.35-7.72c-2.22-1.55-2.46-3-.85-5.89,1.93-3.46,1.76-6.13-.72-8.11-2.09-1.68-2.18-3.12-.25-6,2.15-3.17,2.15-6-.14-8-2-1.75-2-3.37.19-6.17,2.37-3,2.6-5.85.47-7.75s-1.92-3.29.55-6.09c2.8-3.15,3.19-5.88,1-8-1.7-1.59-1.45-3.23,1-5.56,3.36-3.26,4-5.73,1.77-8.14-1.54-1.7-1.13-3.28,1.55-5.47,3.48-2.83,4.35-5.35,2.47-7.66-1.62-2-1.14-3.38,2.2-5.74s4.57-5.08,2.86-7.12c-1.56-1.85-1-3.33,2.34-5.39,4.19-2.59,5.44-4.9,3.7-7.22A9.44,9.44,0,0,1,105.15,50.51Z"/><path class="f" d="M112.32,50.52c1.47,0,2.18.06,2.94,0,1.57-.08,2.67.05,2.47,1.39-.1.69.52,1.23.88,1.81.86,1.41.15,2.66-2.23,4-5.64,3.3-6.25,4.68-4.09,7.92,1,1.42.38,2.62-1.93,4.21-5.2,3.61-5.65,5-3.25,8.24,1,1.34.46,2.73-1.65,4.38C100.72,86.27,100.32,88,103,91c1.06,1.22.64,2.77-1.13,4.35-.17.15-.37.29-.55.44-3.56,3.08-4.08,5.62-1.84,8,1.77,1.85,1.52,3.07-1,5.53-3,3-3.36,5.69-1.12,7.8,2,1.89,1.89,2.91-.48,5.74-2.8,3.37-2.84,5.91-.34,8,1.89,1.54,1.83,2.84-.1,5.51-2.63,3.68-2.47,6.15.31,8.28,1.77,1.36,1.81,2.78.25,5.2-2.36,3.69-2.07,6.24.71,8.33,2,1.49,2.13,2.8.66,5.48-1.87,3.43-1.41,6,1.17,7.83,2.41,1.65,2.57,2.59,1.19,5.81-1.44,3.45-.7,6,2,7.61,2.15,1.25,2.48,2.48,1.55,5.27-1.28,3.89-.41,6.26,2.63,7.89,2,1.06,2.45,2.41,1.79,4.86-1,3.83,0,6.18,3,7.75,2.31,1.18,2.74,2.27,2.23,5.17-.57,3.29.68,5.7,3.39,6.95s3.09,2.06,2.89,5.15c-.19,3.38,1.27,5.63,4.11,6.69,2.3.86,3,1.93,3.08,4.52.16,3.79,1.64,5.67,5,6.78a4.15,4.15,0,0,1,3.09,4c.41,3.61,2,5.45,5.4,6.48a4.59,4.59,0,0,1,3.62,4,3.32,3.32,0,0,0,.3,1.12c1.61,2.48.45,3.1-.81,4-.35-.9-.65-1.64-.87-2.35a7.41,7.41,0,0,0-5-5.3c-3.17-1-3.69-1.53-4.35-4.95a6.91,6.91,0,0,0-4.53-5.63c-3.12-1.19-3.56-1.71-3.88-5.31a6.49,6.49,0,0,0-4.09-5.93c-3-1.28-3.52-2.06-3.4-5.66a6.31,6.31,0,0,0-3.51-6.15c-3-1.38-3.5-2.19-3.11-5.82.36-3.11-.66-5.35-3.17-6.64-2.72-1.4-3.17-2.32-2.49-5.79.67-3.3-.11-5.48-2.69-7s-3-2.5-2-6c.95-3.21.32-5.54-2.08-7.08-2.76-1.78-3-2.7-1.56-6.46,1.11-2.84.57-5.51-1.54-6.94-2.77-1.88-3-2.84-1.28-6.48,1.46-3.05,1.17-5.52-1-7.19-2.68-2.11-2.81-2.77-.74-6.55,1.7-3.09,1.58-5.41-.52-7.22-2.53-2.18-2.59-2.95-.17-6.61,1.89-2.83,2-5.34.06-7.09-2.53-2.34-2.54-3.2.28-6.73,2.1-2.61,2.35-5.35.54-7.05-2.37-2.23-2.31-3.24.67-6.54,2.6-2.84,3-5.21,1.1-7.22-2.07-2.19-1.94-3.12,1.2-6.15,3-2.87,3.59-5.1,1.74-7.25s-1.69-3.15,1.8-6c3.16-2.57,4-4.83,2.33-6.92-1.84-2.35-1.5-3.38,2.31-6,3.34-2.28,4.42-4.67,2.86-6.68s-1.23-3.24,2.47-5.51c4.29-2.6,5.35-4.45,3.68-6.9A15.93,15.93,0,0,1,112.32,50.52Z"/><path class="g" d="M126.78,50.87l5.07.16c.41,1,.74,1.94,1.22,2.83.86,1.58.08,2.78-2.75,4.23-4.89,2.54-5.87,4.37-4.06,6.93,1.24,1.74.58,2.92-2.53,4.81-4.18,2.57-5.07,4.75-3.13,7,1.43,1.67.9,2.91-2,5-4,2.93-4.66,5-2.55,7.4,1.44,1.63,1,3-1.48,5-3.72,3-4.24,5.24-2,7.62,1.63,1.76,1.29,3.06-1.26,5.4-3.06,2.83-3.47,5.39-1.36,7.36,1.92,1.79,1.72,3.09-.74,5.76-2.72,3-2.9,5.58-.66,7.42,1.9,1.56,1.82,2.94-.15,5.5-2.74,3.56-2.7,5.76-.11,7.88,1.76,1.45,1.76,2.84.11,5.25-2.45,3.6-2.28,5.82.37,7.91,1.95,1.53,2,2.92.42,5.56-1.92,3.19-1.55,5.75.9,7.43,2.22,1.51,2.4,2.79,1,5.75-1.56,3.26-1,5.79,1.56,7.3,2.14,1.27,2.44,2.56,1.4,5.33-1.39,3.79-.71,5.89,2.2,7.56,2,1.11,2.36,2.48,1.6,5-1.12,3.73-.33,5.76,2.65,7.41,2.17,1.21,2.62,2.47,2,5.17-.74,3.19.37,5.53,3,6.77,2.41,1.13,3,2.31,2.57,5.2-.4,3.17.9,5.37,3.62,6.47,2.28.91,2.94,2,2.89,4.66,0,3.56,1.25,5.38,4.35,6.51,2.06.75,2.87,1.94,3,4.24.23,3.4,1.69,5.19,4.8,6.2,2.2.71,3.05,1.79,3.48,4.11a32.55,32.55,0,0,0,.93,3.25c-.45.45-1.06,1-1.84,1.84-.27-.93-.49-1.6-.63-2.25a7,7,0,0,0-5-5.67c-2.33-.67-3.26-1.73-3.52-4.23-.32-3.32-1.73-5.32-4.78-6.4-2.15-.76-3-2-3-4.48.09-3.18-1.19-5.4-4-6.58-2.49-1.05-3.14-2.13-2.83-5.07s-.83-5.43-3.4-6.58-3.07-2.26-2.54-5.23c.63-3.44-.35-5.77-3.23-7.13-1.9-.9-2.54-2.43-1.91-4.74,1.11-4,.43-6.15-2.77-8-1.72-1-2.21-2.63-1.36-4.83,1.45-3.74.94-6.08-2-7.93-2-1.28-2.35-2.77-1.12-5.35,1.66-3.45,1.27-5.94-1.41-7.72-2-1.34-2.26-2.78-.85-5.37,2-3.73,1.83-6.13-1-8.08-1.65-1.15-1.83-2.84-.45-5,2.57-4,2.59-6.18-.25-8.46-1.57-1.27-1.59-3,0-5,2.86-3.63,3-5.94.42-8.29-1.66-1.49-1.55-3,.5-5.31,2.92-3.24,3.3-5.65,1-7.8-1.8-1.7-1.63-3.08.81-5.49,3.23-3.16,3.74-5.58,1.42-7.81-1.5-1.43-1.17-3,1.11-5,3.82-3.22,4.55-5.47,2.28-7.95-1.37-1.51-.88-3.07,1.61-4.84,4-2.8,4.94-5,3-7.46-1.51-1.9-1-3.11,2.39-5.21,3.74-2.3,4.92-4.63,3.22-6.77-1.47-1.86-.87-3.07,2.68-5,4.27-2.29,5.58-4.42,3.9-6.73A16.4,16.4,0,0,1,126.78,50.87Z"/><path class="h" d="M146.64,262.91c-.39-1.18-.62-1.92-.83-2.66A7.2,7.2,0,0,0,141,255c-3.08-1.06-3.45-1.43-4.09-4.81-.54-3-1.77-4.7-4.57-5.83s-3.29-1.73-3.45-4.9-1.35-5-4-6.23c-2.93-1.35-3.34-2-3.19-5.48.15-2.88-1-5.08-3.38-6.25-3-1.48-3.3-2-2.86-5.83.37-3-.53-5.11-2.93-6.46-2.87-1.63-3.13-2.16-2.4-5.86.67-3.24,0-5.26-2.46-6.85-2.78-1.81-3-2.31-1.89-6,.93-3.11.38-5.29-1.89-6.88-2.84-2-3-2.48-1.44-6.52,1.09-2.79.64-5.2-1.37-6.71l-.82-.58c-1.69-1.23-2.1-2.68-.83-4.85,2.3-3.93,1.59-7.16-1.24-8.81-1.54-.89-1.6-2.62-.42-4.62,2.71-4.57,2.7-6.17-.53-9-1.37-1.19-1.4-2.71,0-4.68,3.07-4.39,3.19-5.95.22-8.84-1.4-1.38-1.34-2.74.29-4.8,3.43-4.3,3.64-5.73.78-8.76-1.26-1.35-1.1-2.7.61-4.6.71-.79,1.49-1.53,2.11-2.36,1.63-2.17,1.54-4.34-.23-6.12s-1.4-2.89,1.06-5.16c3.68-3.37,4.3-5.41,2.13-8-1.5-1.81-1.16-3,1.74-5.19,3.62-2.78,4.48-5,2.71-7.36-1.58-2.17-1.25-3.07,2.27-5.44,3.68-2.45,4.74-4.59,3.17-6.81s-1.16-3,2.56-5.23c4.34-2.55,5.44-4.42,3.77-6.89a13.87,13.87,0,0,1-.7-1.28c3.63-.7,4.65-.39,5.32,1.4,1.3,3.43,1.27,3.37-4,6.77-2.52,1.67-3.43,3.6-2.52,5.17.3.51.72,1,1,1.48.6,1.11,0,2.27-1.65,3.46-.66.47-1.36.9-2,1.35-3.09,2.08-4,4.28-2.62,6.17.27.38.63.69.88,1.08.76,1.18.21,2.52-1.53,3.87l-1.14.87c-3.55,2.78-4.15,4.77-2.34,7s1.57,2.9-1.6,5.75-3.64,5-1.66,7.22,1.68,3-1.22,5.89-3.11,5.18-1.09,7.2,2,3-.71,6.14-2.63,5.4-.37,7.38c2,1.72,1.93,2.77-.06,5.53-2.72,3.82-2.62,5.9.14,8.15,1.71,1.41,1.73,2.72.16,5.14-2.46,3.85-2.25,5.9.55,8.19,2,1.58,2,2.7.54,5.44-2,3.66-1.59,5.79,1.16,7.79,2.13,1.53,2.28,2.56,1,5.53-1.6,3.78-1.05,5.83,1.79,7.66,2.1,1.34,2.34,2.38,1.39,5.26-1.31,4-.62,6,2.49,7.77,1.86,1.07,2.3,2.37,1.67,4.68-1.1,4.12-.34,6,2.86,7.81,2.18,1.23,2.59,2.3,2.08,5-.66,3.55.33,5.52,3.23,7,2.53,1.26,2.92,2.12,2.69,5.24-.24,3.38,1,5.29,3.82,6.49,2.41,1,2.93,1.87,3,4.65.13,3.76,1.38,5.39,4.69,6.62a4.11,4.11,0,0,1,3,4c.44,3.86,1.7,5.31,5.28,6.53,2.08.71,2.86,1.68,3.36,3.92.19.79.56,1.63.77,2.42a2,2,0,0,1,0,1.28A11.6,11.6,0,0,1,146.64,262.91Z"/><path class="i" d="M139.28,271.1c-.43-1-.72-1.68-1-2.36a8.61,8.61,0,0,0-5.83-5.55c-2.62-.74-3.49-1.58-4.2-4.33-.83-3.33-2.46-5.28-5.58-6.35-2.44-.84-3.28-1.85-3.63-4.61-.4-3.29-1.93-5.48-4.91-6.67-2.56-1-3.3-2-3.4-5-.1-3.47-1.41-5.68-4.37-7-2.41-1.06-3.11-2.22-2.95-5.12.23-3.76-.92-6.08-4-7.54-2.12-1-2.8-2.36-2.39-5.06.62-3.95-.28-6.24-3.44-8-2.1-1.18-2.64-2.56-1.95-5.23,1-3.73.24-6.23-2.59-8-2.45-1.57-2.8-2.66-1.7-6s.52-6-2-7.7-2.75-2.75-1.4-6c1.53-3.69,1-6.31-1.71-8.2-1.94-1.33-2.2-2.9-.82-5.53,2-3.91,1.84-6.44-1-8.67-1.88-1.5-2-3-.37-5.57,2.35-3.66,2.34-6.27-.23-8.56-2-1.75-2-3,.09-5.91,2.52-3.44,2.69-6,.35-8.2-2-1.89-1.91-3.07.51-6,2.85-3.42,3.16-6,.8-8.24-1.67-1.6-1.47-3.13.82-5.46,3.45-3.49,4-5.89,1.72-8.45-1.54-1.74-1.21-3.21,1.31-5.38,3.63-3.09,4.48-5.51,2.57-8-1.7-2.2-1.39-3.21,2-5.79s4.52-5,2.87-7.31-1.24-3.22,2.31-5.57c4.13-2.71,5.26-5,3.49-7.42A12.67,12.67,0,0,1,98,51c3.43-.9,4.6-.56,5.3,1.25a12.13,12.13,0,0,0,.9,1.56c.86,1.53.15,2.78-2.36,4.39C96.66,61.47,96,63,98,66.05c1.15,1.73.67,2.89-1.88,4.85C91.33,74.65,91,76,93.29,79.21c1.08,1.49.64,2.83-1.48,4.73l-.9.79c-3.22,2.86-3.75,5.14-1.88,7.34s1.67,3.18-1.27,6.09-3.39,5.41-1.33,7.64,1.79,3.25-.87,6.24-2.86,5.59-.77,7.59,2.11,3.24-.31,6.47-2.36,5.73,0,7.73c2.07,1.77,2.08,3,.22,6-2.38,3.91-2.18,6,.52,8.21,2,1.6,2.06,2.93.57,5.69-2.08,3.89-1.76,6,1,8.21,2.18,1.73,2.35,3,1,6-1.62,3.58-1.09,5.91,1.58,7.77,2.37,1.64,2.61,2.8,1.49,6.05-1.26,3.7-.54,6,2.2,7.61,2.26,1.35,2.67,2.61,2,5.55-1,4.26-.24,6.09,3,8,2,1.13,2.48,2.47,2,5-.69,4.23.14,5.93,3.47,7.79,2.21,1.23,2.79,2.49,2.53,5.2-.33,3.73.79,5.69,3.79,7.1,2.56,1.19,3.14,2.24,3.18,5.35.06,3.48,1.44,5.44,4.38,6.57,2.46.94,3.19,2,3.52,4.91.42,3.52,1.89,5.31,5,6.38,2.52.88,3.27,1.83,3.87,4.64a7.09,7.09,0,0,0,5.39,5.89c2.8.87,3.49,1.64,4.44,4.55a2.19,2.19,0,0,0,.23.65C141.61,269.46,140.36,270.06,139.28,271.1Z"/></g><path class="j" d="M226.84,138.45c0,54.66-19.36,99.69-44.25,105.66a23.43,23.43,0,0,1-5.65.69c-19.95,0-37.13-24.91-45.12-60.88a.33.33,0,0,1,0-.13,168.6,168.6,0,0,1-6.25-46.19c0-22.22,3.79-43.26,10.66-60.5,8.73-26.4,23-43.91,39.23-44.93a15.18,15.18,0,0,1,1.52-.07C204.49,32.1,226.84,79.7,226.84,138.45Z"/><ellipse class="k" cx="177.95" cy="138.07" rx="47.41" ry="102.19"/><path class="l" d="M161.21,138.41a122.56,122.56,0,0,1-5.11,36.11,122.27,122.27,0,0,1-5-35.62,121,121,0,0,1,5.13-36.09A122.73,122.73,0,0,1,161.21,138.41Z"/><path class="m" d="M209.44,138.9c0,35.23-13.05,63.76-29.12,63.76-.31,0-.62,0-.93,0a7.34,7.34,0,0,1-.93-.1,14.82,14.82,0,0,1-4.17-1.22c-.19-.1-.37-.18-.54-.28a21,21,0,0,1-5.41-4c-.21-.21-.43-.43-.64-.66a31,31,0,0,1-3.06-3.76c-.21-.27-.4-.55-.59-.84a51.51,51.51,0,0,1-4.35-7.87c-.24-.54-.51-1.11-.73-1.67-.84-1.95-1.6-4-2.3-6.16-.17-.5-.34-1-.5-1.55a122.56,122.56,0,0,0,5.11-36.11,122.73,122.73,0,0,0-4.95-35.6c.15-.53.33-1,.5-1.56s.35-1,.52-1.5.37-1,.54-1.48c.37-1,.75-1.93,1.15-2.86.59-1.39,1.2-2.71,1.84-4,.23-.42.44-.83.66-1.24s.54-1,.8-1.46c.38-.63.77-1.25,1.13-1.83a39.52,39.52,0,0,1,3.08-4.19c.26-.29.52-.6.78-.88.54-.6,1.1-1.17,1.66-1.69.24-.22.5-.43.74-.64s.56-.47.84-.69l.83-.62c.28-.19.56-.39.85-.56s.54-.33.8-.49.68-.37,1-.53.52-.25.78-.35a13.93,13.93,0,0,1,3.62-1,7,7,0,0,1,.92-.1c.3,0,.61,0,.92,0C196.39,75.13,209.44,103.68,209.44,138.9Z"/></svg>