<svg xmlns="http://www.w3.org/2000/svg" xmlns:xlink="http://www.w3.org/1999/xlink" viewBox="0 0 283.46 283.46"><defs><style>.a{fill:url(#a);}.b{fill:url(#b);}.c{fill:url(#c);}.d{fill:url(#d);}.e{fill:url(#e);}.f{fill:url(#f);}.g{fill:#767676;}.h{fill:url(#g);}.i{fill:url(#h);}.j{fill:url(#i);}.k{fill:url(#j);}.l{fill:url(#k);}.m{fill:#fff;}.n{fill:url(#l);}.o{fill:url(#m);}.p{fill:url(#n);}.q{fill:url(#o);}.r{fill:url(#p);}.s{fill:url(#q);}.t{fill:url(#r);}.u{fill:url(#s);}.v{fill:#3f3f3f;}.w{fill:url(#t);}.x{fill:url(#u);}.y{fill:url(#v);}.z{fill:url(#w);}.aa{fill:url(#x);}.ab{fill:url(#y);}.ac{fill:url(#z);}.ad{fill:url(#aa);}.ae{fill:url(#ab);}.af{fill:url(#ac);}.ag{fill:url(#ad);}.ah{fill:url(#ae);}.ai{fill:url(#af);}.aj{fill:url(#ag);}.ak{fill:url(#ah);}.al{fill:url(#ai);}.am{fill:url(#aj);}.an{fill:url(#ak);}.ao{fill:url(#al);}.ap{fill:url(#am);}.aq{fill:url(#an);}.ar{fill:url(#ao);}.as{fill:url(#ap);}.at{fill:url(#aq);}.au{fill:url(#ar);}.av{fill:url(#as);}.aw{fill:url(#at);}.ax{fill:url(#au);}.ay{fill:url(#av);}.az{fill:url(#aw);}.ba{fill:url(#ax);}.bb{fill:url(#ay);}.bc{fill:url(#az);}.bd{fill:url(#ba);}.be{fill:url(#bb);}.bf{fill:url(#bc);}.bg{fill:url(#bd);}.bh{fill:url(#be);}.bi{fill:url(#bf);}.bj{fill:url(#bg);}.bk{fill:url(#bh);}.bl{fill:url(#bi);}.bm{fill:url(#bj);}.bn{fill:url(#bk);}.bo{fill:url(#bl);}.bp{fill:url(#bm);}.bq{fill:url(#bn);}.br{fill:url(#bo);}.bs{fill:url(#bp);}.bt{fill:url(#bq);}.bu{fill:url(#br);}.bv{fill:url(#bs);}.bw{fill:url(#bt);}.bx{fill:url(#bu);}.by{fill:url(#bv);}.bz{fill:url(#bw);}.ca{fill:url(#bx);}.cb{fill:url(#by);}.cc{fill:url(#bz);}.cd{fill:url(#ca);}.ce{fill:url(#cb);}.cf{fill:url(#cc);}.cg{fill:url(#cd);}.ch{fill:url(#ce);}.ci{fill:url(#cf);}.cj{fill:url(#cg);}.ck{fill:url(#ch);}.cl{fill:url(#ci);}.cm{fill:url(#cj);}</style><radialGradient id="a" cx="194.64" cy="220.2" r="79.21" gradientTransform="translate(-24.71 163.74) scale(0.92 0.26)" gradientUnits="userSpaceOnUse"><stop offset="0" stop-color="#999"/><stop offset="0.12" stop-color="#9b9d9d" stop-opacity="0.88"/><stop offset="1" stop-color="#acb7bd" stop-opacity="0"/></radialGradient><linearGradient id="b" x1="97.49" y1="726.03" x2="157.96" y2="726.03" gradientTransform="translate(-512.23 -229.82) rotate(-48.28)" gradientUnits="userSpaceOnUse"><stop offset="0.03" stop-color="#727272"/><stop offset="0.36" stop-color="#b0b0b0"/><stop offset="0.53" stop-color="#ccc"/><stop offset="0.59" stop-color="#c6c6c6"/><stop offset="0.68" stop-color="#b7b7b7"/><stop offset="0.77" stop-color="#9d9d9d"/><stop offset="0.87" stop-color="#787878"/><stop offset="0.98" stop-color="#4a4a4a"/><stop offset="1" stop-color="#404040"/></linearGradient><linearGradient id="c" x1="96.18" y1="751.34" x2="103.95" y2="751.34" gradientTransform="translate(15.08 -555.81)" gradientUnits="userSpaceOnUse"><stop offset="0.03" stop-color="#7b7b7b"/><stop offset="0.38" stop-color="#d4d4d4"/><stop offset="0.4" stop-color="#cbcbcb"/><stop offset="0.59" stop-color="#919191"/><stop offset="0.72" stop-color="#6c6c6c"/><stop offset="0.79" stop-color="#5e5e5e"/></linearGradient><linearGradient id="d" x1="96.18" y1="754.06" x2="103.95" y2="754.06" gradientTransform="translate(17.11 -556.72)" xlink:href="#c"/><linearGradient id="e" x1="151.36" y1="751.34" x2="159.12" y2="751.34" gradientTransform="translate(-3.37 -596.99)" gradientUnits="userSpaceOnUse"><stop offset="0.21" stop-color="#2e2e2e"/><stop offset="0.27" stop-color="#353535"/><stop offset="0.37" stop-color="#4a4a4a"/><stop offset="0.49" stop-color="#6b6b6b"/><stop offset="0.62" stop-color="#9a9a9a"/><stop offset="0.7" stop-color="#b8b8b8"/><stop offset="1" stop-color="#7b7b7b"/></linearGradient><linearGradient id="f" x1="151.36" y1="754.06" x2="159.12" y2="754.06" gradientTransform="translate(-1.34 -597.9)" xlink:href="#e"/><linearGradient id="g" x1="119.06" y1="694.8" x2="137.04" y2="694.8" gradientTransform="translate(-512.23 -229.82) rotate(-48.28)" gradientUnits="userSpaceOnUse"><stop offset="0.03" stop-color="#fff"/><stop offset="0.06" stop-color="#d4d4d4"/><stop offset="0.11" stop-color="#a1a1a1"/><stop offset="0.15" stop-color="#767676"/><stop offset="0.2" stop-color="#565656"/><stop offset="0.24" stop-color="#3e3e3e"/><stop offset="0.28" stop-color="#303030"/><stop offset="0.31" stop-color="#2b2b2b"/><stop offset="0.38" stop-color="#2f2f2f"/><stop offset="0.45" stop-color="#3a3a3a"/><stop offset="0.51" stop-color="#4c4c4c"/><stop offset="0.57" stop-color="#676767"/><stop offset="0.63" stop-color="#888"/><stop offset="0.69" stop-color="#b2b2b2"/><stop offset="0.75" stop-color="#e2e2e2"/><stop offset="0.77" stop-color="#f4f4f4"/><stop offset="0.91" stop-color="#7b7b7b"/><stop offset="1" stop-color="#2e2e2e"/></linearGradient><linearGradient id="h" x1="127.99" y1="720.98" x2="128.57" y2="673.96" gradientTransform="translate(-512.23 -229.82) rotate(-48.28)" gradientUnits="userSpaceOnUse"><stop offset="0.03" stop-color="#e7e7e7"/><stop offset="0.25" stop-color="#e3e3e3"/><stop offset="0.48" stop-color="#d7d7d7"/><stop offset="0.71" stop-color="#c2c2c2"/><stop offset="0.94" stop-color="#a5a5a5"/><stop offset="1" stop-color="#9e9e9e"/></linearGradient><linearGradient id="i" x1="-190.68" y1="-118.63" x2="-182.92" y2="-118.63" gradientTransform="translate(342.08 311.58)" gradientUnits="userSpaceOnUse"><stop offset="0.21" stop-color="#5e5e5e"/><stop offset="0.27" stop-color="#646464"/><stop offset="0.35" stop-color="#757575"/><stop offset="0.45" stop-color="#909090"/><stop offset="0.55" stop-color="#b7b7b7"/><stop offset="0.62" stop-color="#d4d4d4"/><stop offset="0.97" stop-color="#7b7b7b"/></linearGradient><linearGradient id="j" x1="-190.68" y1="-115.91" x2="-182.92" y2="-115.91" gradientTransform="translate(340.26 310.89)" xlink:href="#i"/><linearGradient id="k" x1="102.79" y1="752.77" x2="153.31" y2="752.77" xlink:href="#g"/><linearGradient id="l" x1="127.62" y1="682.33" x2="127.72" y2="674.29" gradientTransform="translate(-48.97 -551.85)" gradientUnits="userSpaceOnUse"><stop offset="0.03" stop-color="#e7e7e7" stop-opacity="0"/><stop offset="0.22" stop-color="#d4d4d4" stop-opacity="0.13"/><stop offset="0.58" stop-color="#a1a1a1" stop-opacity="0.49"/><stop offset="1" stop-color="#595959"/></linearGradient><linearGradient id="m" x1="101.03" y1="641.83" x2="154.28" y2="641.83" gradientTransform="translate(-75.88 -539.77)" gradientUnits="userSpaceOnUse"><stop offset="0" stop-color="#2b2b2b"/><stop offset="0.04" stop-color="#363636"/><stop offset="0.19" stop-color="#565757"/><stop offset="0.32" stop-color="#6a6b6c"/><stop offset="0.4" stop-color="#717273"/><stop offset="1" stop-color="#2e2e2e"/></linearGradient><linearGradient id="n" x1="96.74" y1="624.93" x2="158.56" y2="624.93" gradientTransform="translate(-88.49 -534.12)" gradientUnits="userSpaceOnUse"><stop offset="0.03" stop-color="#7b7b7b"/><stop offset="0.25" stop-color="#fff"/><stop offset="0.47" stop-color="#6c6c6c"/><stop offset="0.47" stop-color="#686868"/><stop offset="0.58" stop-color="#6b6b6b"/><stop offset="0.64" stop-color="#737373"/><stop offset="0.69" stop-color="#818181"/><stop offset="0.74" stop-color="#969696"/><stop offset="0.77" stop-color="#a8a8a8"/><stop offset="0.81" stop-color="#989898"/><stop offset="0.89" stop-color="#6e6e6e"/><stop offset="1" stop-color="#2b2b2b"/></linearGradient><linearGradient id="o" x1="96.74" y1="635.72" x2="158.56" y2="635.72" gradientTransform="translate(-80.44 -537.73)" gradientUnits="userSpaceOnUse"><stop offset="0.03" stop-color="#7b7b7b"/><stop offset="0.25" stop-color="#fff"/><stop offset="0.53" stop-color="#878787"/><stop offset="0.58" stop-color="#8f8f8f"/><stop offset="0.67" stop-color="#a7a7a7"/><stop offset="0.78" stop-color="#ccc"/><stop offset="0.79" stop-color="#cfcfcf"/><stop offset="0.85" stop-color="#cacaca"/><stop offset="0.93" stop-color="#bbb"/><stop offset="1" stop-color="#a8a8a8"/></linearGradient><linearGradient id="p" x1="96.74" y1="639.93" x2="158.56" y2="639.93" gradientTransform="translate(-77.3 -539.13)" xlink:href="#o"/><linearGradient id="q" x1="96.74" y1="644.57" x2="158.56" y2="644.57" gradientTransform="translate(-73.83 -540.69)" xlink:href="#o"/><linearGradient id="r" x1="96.74" y1="648.84" x2="158.56" y2="648.84" gradientTransform="translate(-70.65 -542.11)" xlink:href="#o"/><linearGradient id="s" x1="96.75" y1="667.59" x2="158.56" y2="667.59" gradientTransform="translate(-512.23 -229.82) rotate(-48.28)" xlink:href="#n"/><linearGradient id="t" x1="119.5" y1="663.47" x2="135.81" y2="663.47" gradientTransform="translate(-512.23 -229.82) rotate(-48.28)" gradientUnits="userSpaceOnUse"><stop offset="0" stop-color="#898989"/><stop offset="0.03" stop-color="#929292"/><stop offset="0.16" stop-color="#b9b9b9"/><stop offset="0.29" stop-color="#d4d4d4"/><stop offset="0.4" stop-color="#e5e5e5"/><stop offset="0.48" stop-color="#ebebeb"/><stop offset="0.52" stop-color="#ccc"/><stop offset="0.58" stop-color="#ababab"/><stop offset="0.63" stop-color="#919191"/><stop offset="0.7" stop-color="#7c7c7c"/><stop offset="0.77" stop-color="#6e6e6e"/><stop offset="0.86" stop-color="#666"/><stop offset="1" stop-color="#636363"/></linearGradient><linearGradient id="u" x1="121.72" y1="667.33" x2="133.22" y2="659.86" gradientTransform="translate(-512.23 -229.82) rotate(-48.28)" gradientUnits="userSpaceOnUse"><stop offset="0" stop-color="#e5e5e5"/><stop offset="0.34" stop-color="#e2e2e2"/><stop offset="0.56" stop-color="#dadada"/><stop offset="0.73" stop-color="#ccc"/><stop offset="0.89" stop-color="#b7b7b7"/><stop offset="1" stop-color="#a3a3a3"/></linearGradient><linearGradient id="v" x1="-104.16" y1="-93.46" x2="-43.69" y2="-93.46" gradientTransform="translate(175.65 266.17) rotate(23.55)" xlink:href="#b"/><linearGradient id="w" x1="-105.47" y1="-68.15" x2="-97.71" y2="-68.15" gradientTransform="translate(211.34 231.26)" xlink:href="#c"/><linearGradient id="x" x1="-105.47" y1="-65.43" x2="-97.71" y2="-65.43" gradientTransform="translate(210.25 231.03)" xlink:href="#c"/><linearGradient id="y" x1="-50.29" y1="-68.15" x2="-42.53" y2="-68.15" gradientTransform="translate(206.75 253.3)" xlink:href="#e"/><linearGradient id="z" x1="-50.29" y1="-65.43" x2="-42.53" y2="-65.43" gradientTransform="translate(205.66 253.08)" xlink:href="#e"/><linearGradient id="aa" x1="-82.59" y1="-124.7" x2="-64.61" y2="-124.7" gradientTransform="translate(175.65 266.17) rotate(23.55)" xlink:href="#g"/><linearGradient id="ab" x1="-73.66" y1="-98.52" x2="-73.08" y2="-145.53" gradientTransform="translate(175.65 266.17) rotate(23.55)" xlink:href="#h"/><linearGradient id="ac" x1="-1010.18" y1="83.02" x2="-1002.42" y2="83.02" gradientTransform="translate(1131.03 117.41)" xlink:href="#i"/><linearGradient id="ad" x1="-1010.18" y1="85.74" x2="-1002.42" y2="85.74" gradientTransform="translate(1128.53 113.6)" xlink:href="#i"/><linearGradient id="ae" x1="-98.86" y1="-66.73" x2="-48.34" y2="-66.73" gradientTransform="translate(175.65 266.17) rotate(23.55)" xlink:href="#g"/><linearGradient id="af" x1="-74.03" y1="-137.17" x2="-73.93" y2="-145.21" gradientTransform="translate(238.38 248.41)" xlink:href="#l"/><linearGradient id="ag" x1="-100.63" y1="-177.66" x2="-47.37" y2="-177.66" gradientTransform="translate(252.8 251.4)" xlink:href="#m"/><linearGradient id="ah" x1="-104.91" y1="-194.57" x2="-43.09" y2="-194.57" gradientTransform="translate(259.55 252.81)" xlink:href="#n"/><linearGradient id="ai" x1="-104.91" y1="-183.78" x2="-43.09" y2="-183.78" gradientTransform="translate(255.24 251.91)" xlink:href="#o"/><linearGradient id="aj" x1="-104.91" y1="-179.57" x2="-43.09" y2="-179.57" gradientTransform="translate(253.56 251.56)" xlink:href="#o"/><linearGradient id="ak" x1="-104.91" y1="-174.93" x2="-43.09" y2="-174.93" gradientTransform="translate(251.7 251.17)" xlink:href="#o"/><linearGradient id="al" x1="-104.91" y1="-170.66" x2="-43.09" y2="-170.66" gradientTransform="translate(250 250.82)" xlink:href="#o"/><linearGradient id="am" x1="-104.91" y1="-151.91" x2="-43.09" y2="-151.91" gradientTransform="translate(175.65 266.17) rotate(23.55)" xlink:href="#n"/><linearGradient id="an" x1="-82.15" y1="-156.02" x2="-65.85" y2="-156.02" gradientTransform="translate(175.65 266.17) rotate(23.55)" xlink:href="#t"/><linearGradient id="ao" x1="-79.93" y1="-152.17" x2="-68.43" y2="-159.64" gradientTransform="translate(175.65 266.17) rotate(23.55)" xlink:href="#u"/><radialGradient id="ap" cx="231.36" cy="275.89" r="38.09" gradientTransform="translate(-1.46 131.22) scale(1.06 0.3)" gradientUnits="userSpaceOnUse"><stop offset="0"/><stop offset="0.87" stop-color="#757c81" stop-opacity="0.32"/><stop offset="1" stop-color="#acb7bd" stop-opacity="0"/></radialGradient><radialGradient id="aq" cx="193.62" cy="294.05" r="24.62" gradientTransform="translate(-1.46 146.78) scale(1.06 0.3)" gradientUnits="userSpaceOnUse"><stop offset="0" stop-color="#787878"/><stop offset="0.26" stop-color="#79797a" stop-opacity="0.98"/><stop offset="0.44" stop-color="#7d7e7f" stop-opacity="0.9"/><stop offset="0.59" stop-color="#848687" stop-opacity="0.78"/><stop offset="0.72" stop-color="#8d9194" stop-opacity="0.6"/><stop offset="0.85" stop-color="#99a0a3" stop-opacity="0.37"/><stop offset="0.97" stop-color="#a7b1b7" stop-opacity="0.09"/><stop offset="1" stop-color="#acb7bd" stop-opacity="0"/></radialGradient><radialGradient id="ar" cx="-323.32" cy="-45.78" r="25.83" gradientTransform="matrix(0, 0.89, -0.3, 0, 164.74, 506.85)" gradientUnits="userSpaceOnUse"><stop offset="0" stop-color="#6e6e6e"/><stop offset="0.27" stop-color="#707070" stop-opacity="0.98"/><stop offset="0.45" stop-color="#757676" stop-opacity="0.89"/><stop offset="0.61" stop-color="#7d8081" stop-opacity="0.76"/><stop offset="0.75" stop-color="#898e90" stop-opacity="0.56"/><stop offset="0.87" stop-color="#98a0a4" stop-opacity="0.32"/><stop offset="1" stop-color="#abb6bc" stop-opacity="0.01"/><stop offset="1" stop-color="#acb7bd" stop-opacity="0"/></radialGradient><linearGradient id="as" x1="208.77" y1="210.49" x2="270.57" y2="210.49" gradientUnits="userSpaceOnUse"><stop offset="0" stop-color="#77787a"/><stop offset="0.27" stop-color="#acadaf"/><stop offset="0.52" stop-color="#d8d9db"/><stop offset="0.6" stop-color="#d2d3d5"/><stop offset="0.7" stop-color="#c1c2c4"/><stop offset="0.83" stop-color="#a5a6a7"/><stop offset="0.96" stop-color="#7e7f80"/><stop offset="1" stop-color="#737475"/></linearGradient><linearGradient id="at" x1="209.11" y1="174.57" x2="270.1" y2="174.57" gradientUnits="userSpaceOnUse"><stop offset="0" stop-color="#a6925f"/><stop offset="0.28" stop-color="#745628"/><stop offset="0.5" stop-color="#502b01"/><stop offset="0.53" stop-color="#563207"/><stop offset="0.75" stop-color="#816534"/><stop offset="0.91" stop-color="#9b8550"/><stop offset="1" stop-color="#a5915a"/></linearGradient><linearGradient id="au" x1="236.62" y1="174.87" x2="243.21" y2="174.87" gradientUnits="userSpaceOnUse"><stop offset="0" stop-color="#532900" stop-opacity="0"/><stop offset="0.09" stop-color="#7a551a" stop-opacity="0.23"/><stop offset="0.2" stop-color="#a9893a" stop-opacity="0.5"/><stop offset="0.3" stop-color="#ceb354" stop-opacity="0.71"/><stop offset="0.39" stop-color="#e9d166" stop-opacity="0.87"/><stop offset="0.46" stop-color="#f9e371" stop-opacity="0.96"/><stop offset="0.5" stop-color="#ffea75"/><stop offset="0.54" stop-color="#f7e170" stop-opacity="0.96"/><stop offset="0.62" stop-color="#e2cb62" stop-opacity="0.84"/><stop offset="0.72" stop-color="#c0a54b" stop-opacity="0.64"/><stop offset="0.84" stop-color="#91722c" stop-opacity="0.38"/><stop offset="0.98" stop-color="#563105" stop-opacity="0.04"/><stop offset="1" stop-color="#4e2900" stop-opacity="0"/></linearGradient><linearGradient id="av" x1="243.15" y1="174.87" x2="248.34" y2="174.87" xlink:href="#au"/><linearGradient id="aw" x1="248.78" y1="175.33" x2="252.76" y2="175.33" xlink:href="#au"/><linearGradient id="ax" x1="253.3" y1="175.33" x2="256.26" y2="175.33" xlink:href="#au"/><linearGradient id="ay" x1="256.7" y1="175.33" x2="259.11" y2="175.33" xlink:href="#au"/><linearGradient id="az" x1="259.55" y1="175.33" x2="261.68" y2="175.33" xlink:href="#au"/><linearGradient id="ba" x1="262.05" y1="175.33" x2="263.69" y2="175.33" xlink:href="#au"/><linearGradient id="bb" x1="263.9" y1="174.17" x2="265.22" y2="174.17" xlink:href="#au"/><linearGradient id="bc" x1="265.39" y1="174.17" x2="266.57" y2="174.17" xlink:href="#au"/><linearGradient id="bd" x1="266.75" y1="174.17" x2="267.79" y2="174.17" xlink:href="#au"/><linearGradient id="be" x1="267.96" y1="173.42" x2="268.86" y2="173.42" xlink:href="#au"/><linearGradient id="bf" x1="268.86" y1="173.42" x2="269.77" y2="173.42" xlink:href="#au"/><linearGradient id="bg" x1="-1196.91" y1="174.87" x2="-1191.72" y2="174.87" gradientTransform="matrix(1, 0, 0, -1, 1427.69, 349.73)" xlink:href="#au"/><linearGradient id="bh" x1="-1191.28" y1="175.33" x2="-1187.3" y2="175.33" gradientTransform="matrix(1, 0, 0, -1, 1417.64, 350.66)" xlink:href="#au"/><linearGradient id="bi" x1="-1186.77" y1="175.33" x2="-1183.81" y2="175.33" gradientTransform="matrix(1, 0, 0, -1, 1409.63, 350.66)" xlink:href="#au"/><linearGradient id="bj" x1="-1183.37" y1="175.33" x2="-1180.96" y2="175.33" gradientTransform="matrix(1, 0, 0, -1, 1403.38, 350.66)" xlink:href="#au"/><linearGradient id="bk" x1="-1180.52" y1="175.33" x2="-1178.39" y2="175.33" gradientTransform="matrix(1, 0, 0, -1, 1397.96, 350.66)" xlink:href="#au"/><linearGradient id="bl" x1="-1178.02" y1="175.33" x2="-1176.37" y2="175.33" gradientTransform="matrix(1, 0, 0, -1, 1393.44, 350.66)" xlink:href="#au"/><linearGradient id="bm" x1="-1176.17" y1="174.17" x2="-1174.85" y2="174.17" gradientTransform="matrix(1, 0, 0, -1, 1390.06, 348.35)" xlink:href="#au"/><linearGradient id="bn" x1="-1174.67" y1="174.17" x2="-1173.49" y2="174.17" gradientTransform="matrix(1, 0, 0, -1, 1387.22, 348.35)" xlink:href="#au"/><linearGradient id="bo" x1="-1173.32" y1="174.17" x2="-1172.28" y2="174.17" gradientTransform="matrix(1, 0, 0, -1, 1384.65, 348.35)" xlink:href="#au"/><linearGradient id="bp" x1="-1172.1" y1="173.16" x2="-1171.2" y2="173.16" gradientTransform="matrix(1, 0, 0, -1, 1382.36, 346.31)" xlink:href="#au"/><linearGradient id="bq" x1="-1171.2" y1="173.16" x2="-1170.3" y2="173.16" gradientTransform="matrix(1, 0, 0, -1, 1380.55, 346.31)" xlink:href="#au"/><radialGradient id="br" cx="238.87" cy="255.9" r="41.9" gradientTransform="translate(0 85.06) scale(1 0.19)" gradientUnits="userSpaceOnUse"><stop offset="0.48" stop-color="#383120"/><stop offset="0.59" stop-color="#51472d" stop-opacity="0.77"/><stop offset="1" stop-color="#a5915a" stop-opacity="0"/></radialGradient><linearGradient id="bs" x1="239.5" y1="215.56" x2="239.67" y2="205.77" gradientUnits="userSpaceOnUse"><stop offset="0" stop-color="#473e29"/><stop offset="0.26" stop-color="#6c5f3c" stop-opacity="0.61"/><stop offset="0.68" stop-color="#a5915a" stop-opacity="0"/></linearGradient><linearGradient id="bt" x1="207.97" y1="132.45" x2="270.57" y2="132.45" gradientUnits="userSpaceOnUse"><stop offset="0" stop-color="#adadad"/><stop offset="0.19" stop-color="#9f9f9f"/><stop offset="0.55" stop-color="#7b7b7c"/><stop offset="1" stop-color="#454547"/></linearGradient><linearGradient id="bu" x1="207.97" y1="128.75" x2="270.57" y2="128.75" xlink:href="#as"/><linearGradient id="bv" x1="223.04" y1="128.75" x2="255.49" y2="128.75" gradientUnits="userSpaceOnUse"><stop offset="0" stop-color="#e6e6e6"/><stop offset="0.35" stop-color="#dcdcdd"/><stop offset="1" stop-color="#cdced0"/></linearGradient><linearGradient id="bw" x1="226.17" y1="128.75" x2="252.36" y2="128.75" gradientTransform="matrix(1, 0, 0, 1, 0, 0)" xlink:href="#m"/><linearGradient id="bx" x1="208.77" y1="214.71" x2="270.57" y2="214.71" xlink:href="#bt"/><linearGradient id="by" x1="171.94" y1="216.25" x2="197.72" y2="185.88" gradientUnits="userSpaceOnUse"><stop offset="0" stop-color="#202020"/><stop offset="0.07" stop-color="#242424"/><stop offset="0.13" stop-color="#2f2f2f"/><stop offset="0.19" stop-color="#424241"/><stop offset="0.25" stop-color="#5d5d5b"/><stop offset="0.31" stop-color="#7e7f7c"/><stop offset="0.32" stop-color="#848581"/><stop offset="0.34" stop-color="#5e5f5b"/><stop offset="0.35" stop-color="#2e2f2b"/><stop offset="0.61" stop-color="#6b6c68"/><stop offset="0.65" stop-color="#191a16"/><stop offset="0.69" stop-color="#1f1f1a"/><stop offset="0.88" stop-color="#353129"/><stop offset="1" stop-color="#3d382f"/></linearGradient><linearGradient id="bz" x1="187.15" y1="231.73" x2="219.03" y2="199.85" gradientTransform="translate(212.07 -80.4) rotate(45)" gradientUnits="userSpaceOnUse"><stop offset="0" stop-color="#323232"/><stop offset="0.61" stop-color="#353431"/><stop offset="1" stop-color="#3d382f"/></linearGradient><linearGradient id="ca" x1="189.26" y1="229.44" x2="216.75" y2="201.96" gradientTransform="translate(211.98 -80.37) rotate(45)" gradientUnits="userSpaceOnUse"><stop offset="0" stop-color="#d6d6d6"/><stop offset="0.15" stop-color="#c8c8c8"/><stop offset="0.43" stop-color="#a3a3a3"/><stop offset="0.8" stop-color="#696969"/><stop offset="1" stop-color="#474747"/></linearGradient><linearGradient id="cb" x1="188.12" y1="219.54" x2="222.57" y2="210.65" gradientTransform="translate(211.98 -80.37) rotate(45)" gradientUnits="userSpaceOnUse"><stop offset="0" stop-color="#272828"/><stop offset="0.11" stop-color="#353636"/><stop offset="0.31" stop-color="#5a5a5a"/><stop offset="0.59" stop-color="#959595"/><stop offset="0.93" stop-color="#e6e6e6"/><stop offset="1" stop-color="#f8f8f8"/></linearGradient><linearGradient id="cc" x1="192" y1="226.71" x2="214.01" y2="204.7" gradientTransform="translate(211.98 -80.37) rotate(45)" gradientUnits="userSpaceOnUse"><stop offset="0" stop-color="#464646"/><stop offset="0.2" stop-color="#545454"/><stop offset="0.56" stop-color="#787878"/><stop offset="1" stop-color="#acabab"/></linearGradient><radialGradient id="cd" cx="203.01" cy="215.7" r="5.67" gradientTransform="translate(569.02 -117.61) rotate(71.89) scale(1 2.09)" gradientUnits="userSpaceOnUse"><stop offset="0.28" stop-color="#030303"/><stop offset="0.35" stop-color="#131313"/><stop offset="0.49" stop-color="#3e3e3e"/><stop offset="0.69" stop-color="#818181"/><stop offset="0.83" stop-color="#b7b7b7"/><stop offset="0.97" stop-color="#fff"/></radialGradient><linearGradient id="ce" x1="193.96" y1="212.41" x2="197.06" y2="212.41" gradientTransform="translate(207.46 -76.03) rotate(45)" xlink:href="#cb"/><linearGradient id="cf" x1="200.73" y1="206.7" x2="203.83" y2="206.7" gradientTransform="translate(205.41 -82.49) rotate(45)" xlink:href="#cb"/><linearGradient id="cg" x1="209.03" y1="219.51" x2="212.13" y2="219.51" gradientTransform="translate(216.9 -84.61) rotate(45)" xlink:href="#cb"/><linearGradient id="ch" x1="209.79" y1="209.17" x2="212.9" y2="209.17" gradientTransform="translate(209.8 -88.18) rotate(45)" xlink:href="#cb"/><linearGradient id="ci" x1="201.77" y1="224.48" x2="204.87" y2="224.48" gradientTransform="translate(218.28 -78.02) rotate(45)" xlink:href="#cb"/><linearGradient id="cj" x1="192.92" y1="222.76" x2="196.02" y2="222.76" gradientTransform="translate(214.47 -72.26) rotate(45)" xlink:href="#cb"/></defs><ellipse class="a" cx="153.83" cy="220.2" rx="74.36" ry="21.06"/><path class="b" d="M137.87,145.42s-16,3.58-31.43-8.58l-26-23.18L66.66,129.11l26,23.18c13.85,13.9,12.11,30.25,12.11,30.25l-3.57,4,27.51,24.53,3.91-4.39a4.82,4.82,0,0,1,3.73-1.61L144,202l1.86,1.65a1.44,1.44,0,0,0,2-.11l15.46-17.35a1.43,1.43,0,0,0-.12-2l-1.76-1.57,2.37-8.34a4.76,4.76,0,0,1,1.18-3.91L169,166l-27.52-24.54Z"/><rect class="c" x="111.27" y="194.45" width="7.76" height="2.18" transform="translate(-107.43 151.34) rotate(-48.28)"/><rect class="d" x="113.3" y="196.26" width="7.76" height="2.18" transform="translate(-108.1 153.46) rotate(-48.28)"/><rect class="e" x="147.99" y="153.27" width="7.76" height="2.18" transform="translate(-64.41 164.98) rotate(-48.28)"/><rect class="f" x="150.02" y="155.08" width="7.76" height="2.18" transform="translate(-65.08 167.1) rotate(-48.28)"/><path class="g" d="M163.87,174.24a4.73,4.73,0,0,0,1.57,2.95l4.38,3.91-25.95,29.11-4.39-3.91a4.8,4.8,0,0,0-3.13-1.22L144,202l1.86,1.65a1.44,1.44,0,0,0,2-.11l15.46-17.35a1.43,1.43,0,0,0-.12-2l-1.76-1.57Z"/><path class="h" d="M114.34,152.35l-4.93,5.54a5.28,5.28,0,0,1-8.3-.54l-5.39-7.88L66.91,123.78l8.7-9.74,28.7,25.59,8.57,4.54A5.28,5.28,0,0,1,114.34,152.35Z"/><path class="i" d="M113,152.24l-3.89,4.35c-2.68,2.52-5.63,1.58-6.68.14l-6-8.48L69.07,123.84l6.84-7.67,27.27,24.32,8.89,4.89A4.34,4.34,0,0,1,113,152.24Z"/><rect class="j" x="151.39" y="191.86" width="7.76" height="2.18" transform="translate(167.8 -54.4) rotate(41.72)"/><rect class="k" x="149.58" y="193.89" width="7.76" height="2.18" transform="translate(168.69 -52.68) rotate(41.72)"/><circle class="l" cx="134.84" cy="175.6" r="25.26"/><circle class="m" cx="134.84" cy="175.6" r="22.69"/><rect class="n" x="68.31" y="121.75" width="20.8" height="8.6" transform="translate(-67.75 100.91) rotate(-48.28)"/><rect class="o" x="25.15" y="92.09" width="53.25" height="19.95" transform="translate(-58.86 72.78) rotate(-48.28)"/><path class="p" d="M10.56,83.88H67.75a2.31,2.31,0,0,1,2.31,2.31V97.74a0,0,0,0,1,0,0H8.25a0,0,0,0,1,0,0V86.2a2.31,2.31,0,0,1,2.31-2.31Z" transform="translate(-54.68 59.6) rotate(-48.28)"/><rect class="q" x="16.3" y="96.71" width="61.81" height="2.58" transform="translate(-57.35 68.01) rotate(-48.28)"/><rect class="r" x="19.45" y="99.51" width="61.81" height="2.58" transform="translate(-58.39 71.29) rotate(-48.28)"/><rect class="s" x="22.91" y="102.6" width="61.81" height="2.58" transform="translate(-59.54 74.91) rotate(-48.28)"/><rect class="t" x="26.09" y="105.43" width="61.81" height="2.58" transform="translate(-60.59 78.24) rotate(-48.28)"/><path class="u" d="M38.65,131.77l23.55,21,1-1.12c-1.37-6.58,3.45-17.9,12.6-28.15s19.81-16.34,26.5-15.73l1-1.13-23.55-21Z"/><circle class="v" cx="67.62" cy="116.19" r="8.15"/><circle class="w" cx="67.93" cy="116.47" r="8.15"/><circle class="x" cx="67.93" cy="116.47" r="6.89"/><circle class="v" cx="67.93" cy="116.47" r="5.83"/><path class="y" d="M164.46,169.06s-8.4-14.11-1.66-32.54l13.92-31.93-19-8.27-13.92,31.93c-8.88,17.49-25,20.94-25,20.94L113.94,147l-14.73,33.8,5.39,2.35a4.81,4.81,0,0,1,2.7,3l5.33,6.34-1,2.28a1.44,1.44,0,0,0,.74,1.89L133.69,206a1.43,1.43,0,0,0,1.89-.74l.94-2.17,8.66-.35a4.84,4.84,0,0,1,4.08-.1l5.39,2.35,14.73-33.8Z"/><rect class="z" x="105.87" y="162.02" width="7.76" height="2.18" transform="translate(74.31 -30.27) rotate(23.55)"/><rect class="aa" x="104.79" y="164.51" width="7.76" height="2.18" transform="translate(75.21 -29.62) rotate(23.55)"/><rect class="ab" x="156.45" y="184.06" width="7.76" height="2.18" transform="translate(87.33 -48.64) rotate(23.55)"/><rect class="ac" x="155.36" y="186.55" width="7.76" height="2.18" transform="translate(88.23 -48) rotate(23.55)"/><path class="g" d="M145.18,202.75a4.8,4.8,0,0,0-2.31,2.41l-2.35,5.39L104.77,195l2.34-5.39a4.83,4.83,0,0,0,.19-3.36l5.33,6.34-1,2.28a1.44,1.44,0,0,0,.74,1.89L133.69,206a1.43,1.43,0,0,0,1.89-.74l.94-2.17Z"/><path class="ad" d="M150.53,148.87l-6.79-3a5.28,5.28,0,0,1-2.09-8l5.81-7.58L162.88,94.9l12,5.22-15.36,35.25-1.64,9.56A5.29,5.29,0,0,1,150.53,148.87Z"/><path class="ae" d="M150.23,147.58l-5.35-2.33c-3.23-1.76-3.25-4.86-2.21-6.31l6.18-8.36L163.5,97l9.42,4.11-14.6,33.49-1.87,10A4.34,4.34,0,0,1,150.23,147.58Z"/><rect class="af" x="120.85" y="199.34" width="7.76" height="2.18" transform="translate(358.29 166.16) rotate(113.55)"/><rect class="ag" x="118.35" y="198.25" width="7.76" height="2.18" transform="translate(353.81 166.93) rotate(113.55)"/><circle class="ah" cx="134.84" cy="175.6" r="25.26"/><circle class="m" cx="134.84" cy="175.6" r="22.69"/><rect class="ai" x="154.01" y="102.51" width="20.8" height="8.6" transform="translate(56.37 -56.79) rotate(23.55)"/><rect class="aj" x="152.17" y="63.76" width="53.25" height="19.95" transform="translate(44.35 -65.29) rotate(23.55)"/><path class="ak" d="M157,51.31h57.19a2.31,2.31,0,0,1,2.31,2.31V65.17a0,0,0,0,1,0,0H154.64a0,0,0,0,1,0,0V53.62A2.31,2.31,0,0,1,157,51.31Z" transform="translate(38.72 -69.28) rotate(23.55)"/><rect class="al" x="150.33" y="66.85" width="61.81" height="2.58" transform="translate(42.32 -66.74) rotate(23.55)"/><rect class="am" x="148.65" y="70.7" width="61.81" height="2.58" transform="translate(43.72 -65.74) rotate(23.55)"/><rect class="an" x="146.8" y="74.96" width="61.81" height="2.58" transform="translate(45.26 -64.65) rotate(23.55)"/><rect class="ao" x="145.09" y="78.87" width="61.81" height="2.58" transform="translate(46.68 -63.64) rotate(23.55)"/><path class="ap" d="M146.48,70.53,133.87,99.46l1.38.61c5.83-3.35,18.08-2.3,30.68,3.19s21.7,13.72,23.21,20.27l1.39.63,12.61-28.93Z"/><circle class="v" cx="170.31" cy="93.2" r="8.15"/><circle class="aq" cx="170.15" cy="93.58" r="8.15"/><circle class="ar" cx="170.15" cy="93.58" r="6.89"/><circle class="v" cx="170.15" cy="93.58" r="5.83"/><ellipse class="as" cx="243.34" cy="212.72" rx="41.25" ry="11.67"/><ellipse class="at" cx="203.41" cy="233.65" rx="26.66" ry="7.54"/><ellipse class="au" cx="178.26" cy="220.5" rx="7.92" ry="23.41" transform="translate(-95.92 148.21) rotate(-36.28)"/><path class="av" d="M270.57,210.48c0,2.62-13.84,4.74-30.91,4.74s-30.89-2.12-30.89-4.74,13.83-4.72,30.89-4.72S270.57,207.88,270.57,210.48Z"/><polygon class="aw" points="270.1 214.18 239.61 216.68 209.11 214.18 209.11 132.46 270.1 132.46 270.1 214.18"/><rect class="ax" x="236.62" y="134.3" width="6.59" height="81.12"/><rect class="ay" x="243.15" y="134.3" width="5.19" height="81.12"/><rect class="az" x="248.78" y="134.77" width="3.98" height="81.12"/><rect class="ba" x="253.3" y="134.77" width="2.96" height="81.12"/><rect class="bb" x="256.7" y="134.77" width="2.41" height="81.12"/><rect class="bc" x="259.55" y="134.77" width="2.13" height="81.12"/><rect class="bd" x="262.05" y="134.77" width="1.64" height="81.12"/><rect class="be" x="263.9" y="132.46" width="1.32" height="83.43"/><rect class="bf" x="265.39" y="132.46" width="1.18" height="83.43"/><rect class="bg" x="266.75" y="132.46" width="1.04" height="83.43"/><rect class="bh" x="267.96" y="132.46" width="0.9" height="81.92"/><rect class="bi" x="268.86" y="132.46" width="0.9" height="81.92"/><rect class="bj" x="230.78" y="134.3" width="5.19" height="81.12" transform="translate(466.74 349.73) rotate(-180)"/><rect class="bk" x="226.35" y="134.77" width="3.98" height="81.12" transform="translate(456.69 350.66) rotate(-180)"/><rect class="bl" x="222.86" y="134.77" width="2.96" height="81.12" transform="translate(448.68 350.66) rotate(-180)"/><rect class="bm" x="220.01" y="134.77" width="2.41" height="81.12" transform="translate(442.43 350.66) rotate(-180)"/><rect class="bn" x="217.44" y="134.77" width="2.13" height="81.12" transform="translate(437.01 350.66) rotate(-180)"/><rect class="bo" x="215.43" y="134.77" width="1.64" height="81.12" transform="translate(432.5 350.66) rotate(-180)"/><rect class="bp" x="213.9" y="132.46" width="1.32" height="83.43" transform="translate(429.12 348.35) rotate(-180)"/><rect class="bq" x="212.54" y="132.46" width="1.18" height="83.43" transform="translate(426.27 348.35) rotate(-180)"/><rect class="br" x="211.33" y="132.46" width="1.04" height="83.43" transform="translate(423.7 348.35) rotate(-180)"/><rect class="bs" x="210.25" y="132.46" width="0.9" height="81.4" transform="translate(421.41 346.31) rotate(-180)"/><rect class="bt" x="209.35" y="132.46" width="0.9" height="81.4" transform="translate(419.6 346.31) rotate(-180)"/><polygon class="bu" points="270.1 142.81 239.61 143.13 209.11 142.81 209.11 132.46 270.1 132.46 270.1 142.81"/><polygon class="bv" points="270.1 205.47 239.61 205.16 209.11 205.47 209.11 213.32 239.1 215.82 270.1 213.32 270.1 205.47"/><path class="bw" d="M270.57,128.74v3.72c0,2-14,3.7-31.31,3.7S208,134.49,208,132.46v-3.72c0,2,14,3.72,31.29,3.72S270.57,130.79,270.57,128.74Z"/><path class="bx" d="M270.57,128.74c0,2-14,3.72-31.31,3.72S208,130.79,208,128.74s14-3.7,31.29-3.7S270.57,126.71,270.57,128.74Z"/><path class="by" d="M255.49,128.75c0,1.06-7.26,1.92-16.23,1.92S223,129.81,223,128.75s7.27-1.92,16.22-1.92S255.49,127.69,255.49,128.75Z"/><path class="bz" d="M252.36,128.75c0,.85-5.86,1.55-13.1,1.55s-13.09-.7-13.09-1.55,5.87-1.55,13.09-1.55S252.36,127.89,252.36,128.75Z"/><path class="ca" d="M239.67,215.32c-17.07,0-30.9-2.84-30.9-4.83v3.61c0,2,13.83,4.82,30.9,4.82s30.9-2.83,30.9-4.82v-3.61C270.57,212.48,256.73,215.32,239.67,215.32Z"/><path class="cb" d="M216.11,197.59l-25.67-15.66-.45-.28-.1-.06h0c-5.91-3.3-14.5-1.59-20.66,4.57-6.35,6.35-8,15.26-4.28,21.18h0l0,.05a11.16,11.16,0,0,0,2.93,3.17l18.85,20.76Z"/><ellipse class="cc" cx="203.09" cy="215.79" rx="22.54" ry="17.98" transform="translate(-93.1 206.81) rotate(-45)"/><ellipse class="cd" cx="203.01" cy="215.7" rx="19.43" ry="14.64" transform="translate(-93.07 206.72) rotate(-45)"/><ellipse class="ce" cx="203.01" cy="215.7" rx="16.41" ry="12.36" transform="translate(-93.07 206.72) rotate(-45)"/><ellipse class="cf" cx="203.01" cy="215.7" rx="15.57" ry="11.73" transform="translate(-93.07 206.72) rotate(-45)"/><ellipse class="cg" cx="203.01" cy="215.7" rx="6.4" ry="4.82" transform="translate(-93.07 206.72) rotate(-45)"/><ellipse class="ch" cx="195.51" cy="212.41" rx="1.75" ry="1.32" transform="translate(-92.93 200.46) rotate(-45)"/><ellipse cx="195.53" cy="212.24" rx="1.62" ry="1.22" transform="translate(-92.81 200.43) rotate(-45)"/><ellipse class="ci" cx="202.28" cy="206.7" rx="1.75" ry="1.32" transform="translate(-86.92 203.58) rotate(-45)"/><ellipse cx="202.3" cy="206.53" rx="1.62" ry="1.22" transform="translate(-86.79 203.54) rotate(-45)"/><ellipse class="cj" cx="210.58" cy="219.51" rx="1.75" ry="1.32" transform="translate(-93.54 213.2) rotate(-45)"/><ellipse cx="210.6" cy="219.35" rx="1.62" ry="1.22" transform="translate(-93.42 213.16) rotate(-45)"/><ellipse class="ck" cx="211.34" cy="209.17" rx="1.75" ry="1.32" transform="translate(-86 210.71) rotate(-45)"/><ellipse cx="211.37" cy="209" rx="1.62" ry="1.22" transform="translate(-85.87 210.67) rotate(-45)"/><ellipse class="cl" cx="203.32" cy="224.48" rx="1.75" ry="1.32" transform="translate(-99.18 209.52) rotate(-45)"/><ellipse cx="203.35" cy="224.31" rx="1.62" ry="1.22" transform="translate(-99.05 209.49) rotate(-45)"/><ellipse class="cm" cx="194.47" cy="222.76" rx="1.75" ry="1.32" transform="translate(-100.56 202.75) rotate(-45)"/><ellipse cx="194.49" cy="222.59" rx="1.62" ry="1.22" transform="translate(-100.43 202.72) rotate(-45)"/></svg>