<?xml version="1.0" encoding="utf-8"?>
<!-- Generator: Adobe Illustrator 24.0.2, SVG Export Plug-In . SVG Version: 6.00 Build 0)  -->
<svg version="1.1" id="Слой_1" xmlns="http://www.w3.org/2000/svg" xmlns:xlink="http://www.w3.org/1999/xlink" x="0px" y="0px"
	 viewBox="0 0 1000 1000" style="enable-background:new 0 0 1000 1000;" xml:space="preserve">
<style type="text/css">
	.st0{fill:#FF8040;}
	.st1{fill:#080808;}
</style>
<g>
	<path class="st1" d="M951.5,640.7V454c0-9.2-7.4-16.6-16.6-16.6H16.6C7.4,437.3,0,444.8,0,454v528.8c0,9.2,7.5,16.6,16.6,16.6
		h918.3c9.2,0,16.6-7.4,16.6-16.6V834.9c27.1-2.3,48.5-25.1,48.5-52.8v-88.6C1000,665.8,978.6,643,951.5,640.7z M122,966.1H33.2
		V470.6H122V966.1z M918.3,966.1h-763V470.6h763v169.9H665.2c-29.2,0-53,23.8-53,53v88.6c0,29.2,23.8,53,53,53h253.1V966.1z
		 M966.7,782.1c0,10.9-8.9,19.8-19.8,19.8H665.2c-10.2,0-18.6-7.8-19.6-17.7c-0.1-0.7-0.1-1.3-0.1-2v-88.6c0-0.7,0-1.4,0.1-2
		c1-9.9,9.4-17.7,19.6-17.7H947c10.9,0,19.8,8.9,19.8,19.8V782.1z"/>
	<path class="st1" d="M893.2,721.2h-175c-9.2,0-16.6,7.4-16.6,16.6c0,9.2,7.4,16.6,16.6,16.6h175c9.2,0,16.6-7.4,16.6-16.6
		C909.8,728.6,902.4,721.2,893.2,721.2z"/>
	<path class="st1" d="M775.7,556.4c0-9.2-7.4-16.6-16.6-16.6H215.9c-9.2,0-16.6,7.4-16.6,16.6c0,9.2,7.4,16.6,16.6,16.6h543.2
		C768.3,573,775.7,565.5,775.7,556.4z"/>
</g>
<path class="st0" d="M500,91.4c-137.8,0-249.5,111.7-249.5,249.5c0,34.2,6.9,66.8,19.3,96.4h157c-1-1-2.1-2.1-3.1-3.2
	c-12.3-13.7-18.4-31-18.4-52h67.3c0,5.1,1.3,9.5,3.9,13.1c2.6,3.6,5.9,6.3,10,8.1c4.1,1.8,8.6,2.6,13.5,2.6c7.2,0,13.5-1.8,18.8-5.3
	c5.3-3.5,7.9-8.2,7.9-14c0-2.8-0.8-5.3-2.3-7.5c-1.5-2.2-3.2-4-5.1-5.4c-1.9-1.4-4.9-2.9-8.9-4.4c-4.1-1.5-7.5-2.7-10.3-3.5
	c-2.8-0.8-7.1-1.9-13-3.3h-1c-6.5-1.9-11.6-3.2-15.1-4c-3.5-0.8-8.5-2.4-14.9-4.7c-6.4-2.3-11.4-4.5-14.9-6.7
	c-3.5-2.1-7.7-5-12.4-8.8c-4.8-3.7-8.4-7.8-10.9-12.1c-2.4-4.3-4.6-9.6-6.5-15.8c-1.9-6.2-2.8-13-2.8-20.5
	c0-18.9,5.6-34.4,16.8-46.5c11.2-12,26.9-19.9,47-23.7V197h52.6v23.1c9.8,1.9,18.6,4.9,26.3,9.1c7.7,4.2,14.3,9.4,19.6,15.6
	c5.4,6.2,9.4,13.4,12.1,21.6c2.7,8.2,4,17.2,4,27h-65.2c0-4.4-1.1-8.2-3.3-11.4c-2.2-3.2-5.2-5.4-8.8-6.8c-3.6-1.4-7.6-2.1-12.1-2.1
	c-6.3,0-11.7,1.3-16.3,3.8c-4.6,2.6-6.8,6.2-6.8,10.9c0,2.3,0.4,4.4,1.2,6.1c0.8,1.8,2.3,3.4,4.4,4.9c2.1,1.5,4.1,2.8,6,3.7
	c1.9,0.9,4.7,2,8.6,3.3c3.9,1.3,6.9,2.2,9.1,2.8c2.2,0.6,5.9,1.5,11.1,2.6c6.8,1.9,11.9,3.3,15.4,4.2c3.5,0.9,8.6,2.6,15.3,5.1
	c6.7,2.5,11.8,4.8,15.4,7c3.6,2.2,8,5.3,13,9.1c5,3.9,8.8,8,11.4,12.3c2.6,4.3,4.8,9.6,6.6,16c1.9,6.3,2.8,13.2,2.8,20.7
	c0,20.3-6.1,36.9-18.2,49.8c-0.6,0.7-1.3,1.3-2,2h155.7c12.4-29.7,19.3-62.3,19.3-96.4C749.5,203.1,637.8,91.4,500,91.4z"/>
</svg>
