<?xml version="1.0" encoding="utf-8"?>
<!-- Generator: Adobe Illustrator 24.0.2, SVG Export Plug-In . SVG Version: 6.00 Build 0)  -->
<svg version="1.1" id="Слой_1" xmlns="http://www.w3.org/2000/svg" xmlns:xlink="http://www.w3.org/1999/xlink" x="0px" y="0px"
	 viewBox="0 0 1000 1000" style="enable-background:new 0 0 1000 1000;" xml:space="preserve">
<style type="text/css">
	.st0{fill:#FF8040;}
	.st1{fill:#080808;}
</style>
<path class="st1" d="M889.2,2.9h-92.8v35.5h75.1v926.1H220.9V38.4h192.4V2.9H203.1c0,0,0,0,0,0h-53.7C102.8,2.9,65,40.8,65,87.3
	v828.3c0,46.5,37.9,84.4,84.4,84.4h53.7c0,0,0,0,0,0c0,0,0,0,0,0h686c9.8,0,17.7-7.9,17.7-17.7V20.7C906.9,10.9,899,2.9,889.2,2.9z
	 M100.4,915.6V87.3c0-27,22-48.9,48.9-48.9h36v926.1h-36C122.4,964.5,100.4,942.6,100.4,915.6z"/>
<path class="st0" d="M413.2,593.1L604.9,437l191.5,156V2.9H413.2V593.1z M475.7,219.3h94.9c1.1,0,2.1-0.7,2.5-1.8l29.3-90.2
	c0.8-2.4,4.1-2.4,4.9,0l29.3,90.2c0.3,1.1,1.3,1.8,2.5,1.8h94.9c2.5,0,3.5,3.2,1.5,4.7l-76.7,55.8c-0.9,0.7-1.3,1.8-0.9,2.9
	l29.3,90.2c0.8,2.4-1.9,4.3-4,2.9l-76.7-55.8c-0.9-0.7-2.1-0.7-3,0l-76.7,55.8c-2,1.5-4.7-0.5-4-2.9l29.3-90.2
	c0.3-1.1,0-2.2-0.9-2.9L474.2,224C472.2,222.5,473.2,219.3,475.7,219.3z"/>
<g>
	<path class="st1" d="M776.8,795.8H323.5c-9.5,0-17.2-7.7-17.2-17.2c0-9.5,7.7-17.2,17.2-17.2h453.3c9.5,0,17.2,7.7,17.2,17.2
		C794,788.1,786.3,795.8,776.8,795.8z"/>
</g>
<g>
	<path class="st1" d="M776.8,892.8H323.5c-9.5,0-17.2-7.7-17.2-17.2c0-9.5,7.7-17.2,17.2-17.2h453.3c9.5,0,17.2,7.7,17.2,17.2
		C794,885.1,786.3,892.8,776.8,892.8z"/>
</g>
</svg>
