<?xml version="1.0" encoding="utf-8"?>
<!-- Generator: Adobe Illustrator 24.0.2, SVG Export Plug-In . SVG Version: 6.00 Build 0)  -->
<svg version="1.1" id="Слой_1" xmlns="http://www.w3.org/2000/svg" xmlns:xlink="http://www.w3.org/1999/xlink" x="0px" y="0px"
	 viewBox="0 0 1000 1000" style="enable-background:new 0 0 1000 1000;" xml:space="preserve">
<style type="text/css">
	.st0{fill:#FF8040;}
	.st1{fill:#080808;}
</style>
<path class="st1" d="M990.5,251.7c-8.1-3.7-17.7-0.1-21.4,8l-145.7,319c-6.8,15-21.9,24.6-38.3,24.6c-0.1,0-0.1,0-0.2,0
	c-57.4-0.3-168.3-0.7-265.6-0.9c-54.3-0.1-97.2-0.1-127.6,0.1c-31.9,0.1-46.5,0.3-53.9,0.7L218.1,195.9
	c-7.2-24.5-21.8-45.5-42.2-60.8c-20.4-15.3-44.7-23.4-70.2-23.4H16.2c-8.9,0-16.2,7.2-16.2,16.2S7.2,144,16.2,144h89.5
	c37.4,0,70.9,25.1,81.4,60.9l130.6,444.7c8.7,29.6,26.3,54.9,51,73.4c24.7,18.5,54,28.2,84.8,28.2h344c8.9,0,16.2-7.2,16.2-16.2
	s-7.2-16.2-16.2-16.2h-344c-48.1,0-91.2-32.2-104.7-78.4l-1.5-5.3c39.5-0.8,201.4-0.7,437.6,0.4c0.1,0,0.2,0,0.3,0
	c29.1,0,55.6-17.1,67.7-43.5l145.7-319C1002.2,265,998.7,255.4,990.5,251.7z"/>
<path class="st0" d="M406.8,782.3c-57,0-103.2,46.2-103.2,103.2s46.2,103.2,103.2,103.2c57,0,103.2-46.2,103.2-103.2
	S463.8,782.3,406.8,782.3z M406.8,942.8c-31.6,0-57.3-25.6-57.3-57.3s25.6-57.3,57.3-57.3c31.6,0,57.3,25.6,57.3,57.3
	S438.4,942.8,406.8,942.8z"/>
<path class="st0" d="M797.4,782.3c-57,0-103.2,46.2-103.2,103.2s46.2,103.2,103.2,103.2c57,0,103.2-46.2,103.2-103.2
	S854.4,782.3,797.4,782.3z M797.4,942.8c-31.6,0-57.3-25.6-57.3-57.3s25.6-57.3,57.3-57.3s57.3,25.6,57.3,57.3
	S829,942.8,797.4,942.8z"/>
<path class="st0" d="M764.5,197.1H409.5c-14,0-25.3,11.3-25.3,25.3v355.1c0,14,11.3,25.3,25.3,25.3h355.1c14,0,25.3-11.3,25.3-25.3
	V222.5C789.8,208.5,778.5,197.1,764.5,197.1z M686.6,421.3L591.1,570c-1.9,3-6.3,3-8.3,0l-95.5-148.8c-2.1-3.3,0.2-7.6,4.1-7.6H549
	c2.7,0,4.9-2.2,4.9-4.9V246.3c0-2.7,2.2-4.9,4.9-4.9h56.2c2.7,0,4.9,2.2,4.9,4.9v162.5c0,2.7,2.2,4.9,4.9,4.9h57.6
	C686.4,413.7,688.7,418,686.6,421.3z"/>
</svg>
