<?xml version="1.0" encoding="utf-8"?>
<!-- Generator: Adobe Illustrator 24.0.2, SVG Export Plug-In . SVG Version: 6.00 Build 0)  -->
<svg version="1.1" id="Слой_1" xmlns="http://www.w3.org/2000/svg" xmlns:xlink="http://www.w3.org/1999/xlink" x="0px" y="0px"
	 viewBox="0 0 1000 1000" style="enable-background:new 0 0 1000 1000;" xml:space="preserve">
<style type="text/css">
	.st0{fill:#FF8040;}
	.st1{fill:#080808;}
</style>
<path class="st1" d="M220.1,358l158.2,228.8c-2.7-1.5-5.9-2.3-9.2-2.3h-32.4L194.5,378.8L51.7,584.5H12.6c-0.3,0-0.6,0-0.9,0
	l169.4-244c0,0,0-0.1,0.1-0.1c0.4-0.5,0.7-1,1.2-1.5c0-0.1,0.1-0.1,0.2-0.2c0.4-0.4,0.7-0.8,1.1-1.1c0.1-0.1,0.3-0.2,0.4-0.3
	c0.3-0.3,0.7-0.6,1.1-0.8c0.1-0.1,0.3-0.2,0.4-0.3c0.4-0.3,0.7-0.5,1.1-0.7c0.2-0.1,0.3-0.2,0.5-0.3c0.4-0.2,0.9-0.4,1.3-0.6
	c0.1,0,0.2-0.1,0.4-0.2c0,0,0,0,0.1,0l204.9-76.1c2.2,11,6.2,21.4,11.7,30.7L220.1,358z"/>
<path class="st1" d="M601.8,872c0,9.1-7.4,16.4-16.4,16.4H396.6c-9.1,0-16.4-7.4-16.4-16.4c0-9.1,7.4-16.4,16.4-16.4h78V336.8
	c5.3,0.9,10.8,1.4,16.4,1.4c5.6,0,11.1-0.5,16.4-1.4v518.8h78C594.5,855.6,601.8,862.9,601.8,872z"/>
<path class="st1" d="M989.8,360.2c-2.7-1.5-5.9-2.3-9.2-2.3h-32.4L806,152.2L663.2,357.9h-39.1c-0.3,0-0.6,0-0.9,0L763,156.5
	l-174.5,64.8c-2-11.1-5.8-21.5-11.2-30.9L800,107.7c5.9-2.2,12.2-0.8,16.6,3.1c1.1,0.9,2.1,2,2.9,3.2L989.8,360.2z"/>
<g>
	<path class="st1" d="M703.1,947.3H278.9c-9.1,0-16.4-7.4-16.4-16.4c0-9.1,7.4-16.4,16.4-16.4h424.2c9.1,0,16.4,7.4,16.4,16.4
		C719.5,939.9,712.2,947.3,703.1,947.3z"/>
</g>
<path class="st0" d="M378.3,586.8c-2.7-1.5-5.9-2.3-9.2-2.3H12.6c-0.3,0-0.6,0-0.9,0C4.8,585.1-0.5,591,0,598
	C7,699.4,91.4,779.5,194.6,779.5c100.4,0,183.1-75.9,193.8-173.4C389.3,597.9,385,590.5,378.3,586.8z M360.5,627
	c-9,30.2-26.2,57.6-50,79.1c-31.8,28.7-73,44.5-115.9,44.5c-44.1,0-86.2-16.6-118.4-46.8c-22.6-21.2-38.9-47.7-47.5-76.7
	c-0.6-2,2.1-3.1,3.2-1.4c9,15.3,20.3,29.4,33.6,41.8c35.1,32.9,81,51.1,129.2,51.1c46.8,0,91.7-17.2,126.4-48.6
	c14.4-13,26.6-28,36.3-44.4C358.3,623.9,361,625.1,360.5,627z"/>
<path class="st0" d="M989.8,360.2c-2.7-1.5-5.9-2.3-9.2-2.3H624.1c-0.3,0-0.6,0-0.9,0c-6.9,0.5-12.1,6.5-11.6,13.5
	c6.9,101.4,91.4,181.5,194.5,181.5c100.4,0,183.1-75.9,193.8-173.4C1000.8,371.3,996.5,363.9,989.8,360.2z M971.6,402.6
	c-9,30.2-26.2,57.6-50,79.1c-31.8,28.7-73,44.5-115.9,44.5c-44.1,0-86.2-16.6-118.4-46.8c-22.6-21.2-38.9-47.7-47.5-76.8
	c-0.6-2,2.1-3.1,3.2-1.4c9,15.3,20.3,29.4,33.6,41.8c35.1,32.9,81,51.1,129.2,51.1c46.8,0,91.7-17.2,126.4-48.5
	c14.4-13,26.6-28,36.3-44.4C969.5,399.5,972.2,400.6,971.6,402.6z"/>
<path class="st0" d="M588.5,221.3c-2-11.1-5.8-21.5-11.2-30.9c-17-30.1-49.3-50.4-86.3-50.4c-54.7,0-99.1,44.4-99.1,99.1
	c0,6.7,0.7,13.2,1.9,19.4c2.2,11,6.2,21.4,11.7,30.7c14.6,24.8,39.6,42.7,69,47.6c5.3,0.9,10.8,1.4,16.4,1.4
	c5.6,0,11.1-0.5,16.4-1.4c46.9-7.8,82.7-48.6,82.7-97.8C590.1,232.9,589.6,227,588.5,221.3z M507.4,265.3c-4.8,3-10.4,4.7-16.4,4.7
	c-6,0-11.7-1.7-16.4-4.7c-0.6-0.4-1.1-0.7-1.7-1.1c-7.8-5.6-12.9-14.8-12.9-25.2c0-1.8,0.2-3.6,0.5-5.3
	c2.5-14.6,15.2-25.7,30.6-25.7c7.5,0,14.3,2.7,19.7,7.1c6.9,5.7,11.3,14.3,11.3,23.9c0,2.5-0.3,4.9-0.9,7.3
	C519.2,254.3,514.2,261.1,507.4,265.3z"/>
</svg>
