<?xml version="1.0" encoding="utf-8"?>
<!-- Generator: Adobe Illustrator 24.0.2, SVG Export Plug-In . SVG Version: 6.00 Build 0)  -->
<svg version="1.1" id="Слой_1" xmlns="http://www.w3.org/2000/svg" xmlns:xlink="http://www.w3.org/1999/xlink" x="0px" y="0px"
	 viewBox="0 0 1000 1000" style="enable-background:new 0 0 1000 1000;" xml:space="preserve">
<style type="text/css">
	.st0{fill:#FF8040;}
	.st1{fill:#080808;}
</style>
<g>
	<path class="st0" d="M146.5,791.2V825c0,9.7-7.8,17.5-17.5,17.5H19.6c-9.7,0-17.5-7.9-17.5-17.5V588.5
		c6.7,88.2,27.1,182.3,28.1,187c1.6,7.6,8.2,13,16,13.2L146.5,791.2z"/>
</g>
<g>
	<path class="st0" d="M997.9,588.5V825c0,9.7-7.8,17.5-17.5,17.5H871c-9.7,0-17.5-7.9-17.5-17.5v-33.8l100.3-2.5
		c7.7-0.2,14.3-5.6,16-13.2C970.8,770.8,991.2,676.6,997.9,588.5z"/>
</g>
<g>
	<path class="st1" d="M738.5,748.5h-477c-6.9,0-13-4.2-15.6-10.5l-31.4-78.2c-4.1-10.1-2.8-21.5,3.2-30.5c6.1-9,16.2-14.4,27.1-14.4
		h510.4c10.9,0,21,5.4,27.1,14.4c6.1,9,7.3,20.4,3.2,30.5L754.1,738C751.5,744.3,745.4,748.5,738.5,748.5z M272.9,714.9h454.3
		l26.7-66.3H246.2L272.9,714.9z M755.2,648.6L755.2,648.6L755.2,648.6z"/>
</g>
<g>
	<path class="st1" d="M135.6,735.5c-32.5,0-58.9-26.4-58.9-58.9c0-32.5,26.4-58.9,58.9-58.9s58.9,26.4,58.9,58.9
		C194.5,709.1,168.1,735.5,135.6,735.5z M135.6,651.2c-14,0-25.3,11.4-25.3,25.3c0,14,11.4,25.3,25.3,25.3s25.3-11.4,25.3-25.3
		C160.9,662.6,149.5,651.2,135.6,651.2z"/>
</g>
<g>
	<path class="st1" d="M864.2,735.5c-32.5,0-58.9-26.4-58.9-58.9c0-32.5,26.4-58.9,58.9-58.9c32.5,0,58.9,26.4,58.9,58.9
		C923.2,709.1,896.7,735.5,864.2,735.5z M864.2,651.2c-14,0-25.3,11.4-25.3,25.3c0,14,11.4,25.3,25.3,25.3c14,0,25.3-11.4,25.3-25.3
		C889.6,662.6,878.2,651.2,864.2,651.2z"/>
</g>
<path class="st1" d="M742.6,396.2c-2.2-1-55.8-23.6-242.6-23.6s-240.4,22.7-242.6,23.6l13.5,30.8l-0.2,0.1
	c0.5-0.2,52.3-20.9,229.2-20.9s228.7,20.7,229.2,20.9l-0.2-0.1L742.6,396.2z"/>
<path class="st1" d="M946.1,411.9c-10-10.7-19.9-19.6-28.5-26.5h46.8c9.7,0,18.5-4.9,23.6-13.2c5-8.3,5.4-18.4,1-27l-14.9-29
	c-4.8-9.2-14.1-15-24.5-15h-94.3l-49-85c-11-19.1-29.9-31.9-51.8-35c-36.4-5.2-117.8-14-254.3-14c-136.5,0-217.9,8.8-254.3,14
	c-21.9,3.1-40.8,15.9-51.8,35l-49,85H49.4c-10.4,0-19.8,5.7-24.5,15l-14.9,29c-4.4,8.6-4.1,18.7,1,27c5.1,8.3,13.9,13.2,23.6,13.2
	h47.9c-8.6,6.9-18.5,15.7-28.5,26.5C18.6,449.9,0,493.3,0,537.6c0,16.2,0.8,33.5,2.1,50.9c6.7,88.2,27.1,182.3,28.1,187
	c1.6,7.6,8.2,13,16,13.2l100.3,2.5l353,9c0.1,0,0.3,0,0.4,0c0.1,0,0.3,0,0.4,0l353-9l100.3-2.5c7.7-0.2,14.3-5.6,16-13.2
	c1-4.7,21.4-98.9,28.1-187c1.3-17.4,2.1-34.7,2.1-50.9C1000,493.3,981.4,449.9,946.1,411.9z M945.8,334.9l8.7,16.9h-70.2l-9.8-16.9
	H945.8z M223,233.1c5.8-10.1,15.8-16.9,27.4-18.6c35.5-5.1,115.1-13.6,249.5-13.6c134.4,0,214,8.5,249.5,13.6
	c11.6,1.7,21.6,8.4,27.4,18.6L843.8,349c-54.4-16-159.5-36.2-343.8-36.2c-184.3,0-289.4,20.2-343.8,36.2L223,233.1z M44.4,351.9
	l8.7-16.9h72.4l-9.8,16.9H44.4z M939.6,755.5L500,766.6L60.4,755.5c-7.3-36.1-26.8-140.4-26.8-217.9c0-35.8,14.9-70.2,44.3-102
	c22.7-24.7,46-38.4,46.2-38.5c0.1-0.1,0.1-0.1,0.2-0.1c1.3-0.7,23.6-13,79.3-25.2c52.7-11.5,146.9-25.2,296.4-25.2
	c149.5,0,243.7,13.7,296.4,25.2c55.8,12.2,78.1,24.5,79.3,25.2c0.1,0,0.1,0,0.2,0.1c0.2,0.1,23.5,13.9,46.2,38.5
	c29.4,31.9,44.3,66.2,44.3,102C966.4,615,946.8,719.4,939.6,755.5z"/>
<g>
	<path class="st1" d="M794.4,559.4l-1.1-2.8l-14.5-36.8c-6.7-17.1-17.7-31.8-31.3-43c-17.3-14.2-39.1-22.9-62.5-24l-184.2-8.2
		c-0.5,0-1,0-1.5,0L315,452.7c-23.3,1-45.1,9.7-62.5,24c-13.7,11.2-24.6,25.9-31.3,43l-14.5,36.8l-1.1,2.8c-2,5.2-1.4,11,1.8,15.6
		c3.1,4.6,8.3,7.3,13.9,7.3h557.4c5.6,0,10.8-2.7,13.9-7.3C795.7,570.4,796.4,564.5,794.4,559.4z M246,548.7l6.6-16.7
		c10.4-26.5,35.6-44.5,64-45.7l183.5-8.2l183.5,8.2c14.2,0.6,27.6,5.4,38.8,13.4c11.1,8,20,19.1,25.2,32.3l6.6,16.7H246z"/>
</g>
<path class="st0" d="M104.1,476.7c-6.6,0-12.7,3.5-16,9.3l-24.6,42.9c-7.1,12.3,1.8,27.6,16,27.6h127.3l14.5-36.8
	c6.7-17.1,17.7-31.8,31.3-43H104.1z M133.5,548.4c-16.2,0-29.4-13.1-29.4-29.4c0-16.2,13.1-29.4,29.4-29.4
	c16.2,0,29.4,13.1,29.4,29.4C162.8,535.3,149.7,548.4,133.5,548.4z M174.8,503.3c-5.1,0-9.3-4.2-9.3-9.3c0-5.1,4.2-9.3,9.3-9.3
	s9.3,4.2,9.3,9.3C184.1,499.2,180,503.3,174.8,503.3z"/>
<path class="st0" d="M936.6,528.9L912,486c-3.3-5.7-9.4-9.3-16-9.3H747.4c13.7,11.2,24.6,25.9,31.3,43l14.5,36.8h127.3
	C934.7,556.5,943.6,541.2,936.6,528.9z M832.4,548.4c-16.2,0-29.4-13.1-29.4-29.4c0-16.2,13.1-29.4,29.4-29.4
	c16.2,0,29.4,13.1,29.4,29.4C861.7,535.3,848.6,548.4,832.4,548.4z M873.7,503.3c-5.1,0-9.3-4.2-9.3-9.3c0-5.1,4.2-9.3,9.3-9.3
	c5.1,0,9.3,4.2,9.3,9.3C883,499.2,878.9,503.3,873.7,503.3z"/>
</svg>
