<?xml version="1.0" encoding="utf-8"?>
<svg version="1.1" xmlns="http://www.w3.org/2000/svg" xmlns:xlink="http://www.w3.org/1999/xlink">
	<symbol id="orders-i" class="svg-icon orders-i" viewBox="0 0 1000 1000" x="0px" y="0px">
			<g><ellipse fill="#080808" cx="332.6" cy="255.8" rx="53.4" ry="53.7"/></g>
			<g><path fill="#080808" d="M719.2,272H454.4c-8.9,0-16.1-7.2-16.1-16.2s7.2-16.2,16.1-16.2h264.7c8.9,0,16.1,7.2,16.1,16.2		S728.1,272,719.2,272z"/></g>
			<g>	<ellipse fill="#080808" cx="332.6" cy="444.8" rx="53.4" ry="53.7"/></g>
			<g><path fill="#080808" d="M558.8,428.6V461H454.4c-8.9,0-16.1-7.3-16.1-16.2c0-8.9,7.2-16.2,16.1-16.2H558.8z"/></g>
			<g>	<ellipse fill="#080808" cx="332.6" cy="633.7" rx="53.4" ry="53.7"/></g>
			<g>	<path fill="#080808" d="M558.8,617.5v32.4H454.4c-8.9,0-16.1-7.2-16.1-16.2c0-8.9,7.2-16.2,16.1-16.2H558.8z"/></g>
			<g>	<ellipse fill="#080808" cx="332.6" cy="822.7" rx="53.4" ry="53.7"/></g>
			<g><path fill="#080808" d="M719.2,838.9H454.4c-8.9,0-16.1-7.2-16.1-16.2s7.2-16.2,16.1-16.2h264.7c8.9,0,16.1,7.2,16.1,16.2		S728.1,838.9,719.2,838.9z"/></g>
			<path fill="#080808" d="M804.2,774.7v193H213.7v-94.3V142.9h496.7h93.7v193h32.2V126.7c0-8.9-7.2-16.2-16.1-16.2h-93.7V16.2	c0-8.9-7.2-16.2-16.1-16.2H87.8c-8.9,0-16.1,7.2-16.1,16.2v857.1c0,8.9,7.2,16.2,16.1,16.2h93.7v94.3c0,8.9,7.2,16.2,16.1,16.2	h622.7c8.9,0,16.1-7.2,16.1-16.2V774.7H804.2z M181.5,126.7v730.5h-77.6V32.4h590.5v78.1H197.6C188.8,110.5,181.5,117.7,181.5,126.7	z"/>
			<path fill="currentColor" d="M980.2,335.8H573.7c-8.3,0-15,6.7-15,15v408.8c0,8.3,6.7,15,15,15h406.4c8.3,0,15-6.7,15-15V350.9	C995.1,342.5,988.4,335.8,980.2,335.8z M941.3,475.8L738,680.4c-3.1,3.2-7.3,4.7-11.4,4.7s-8.2-1.6-11.4-4.7l-80.5-81	c-6.3-6.3-6.3-16.6,0-22.9c6.3-6.3,16.5-6.3,22.8,0l69.1,69.5l192-193.1c6.3-6.3,16.5-6.3,22.8,0	C947.6,459.3,947.6,469.5,941.3,475.8z"/>
	</symbol>
	<symbol id="compare-i" class="svg-icon compare-i" viewBox="0 0 1000 1000" x="0px" y="0px">
		<path fill="#080808" d="M220.1,358l158.2,228.8c-2.7-1.5-5.9-2.3-9.2-2.3h-32.4L194.5,378.8L51.7,584.5H12.6c-0.3,0-0.6,0-0.9,0
			l169.4-244c0,0,0-0.1,0.1-0.1c0.4-0.5,0.7-1,1.2-1.5c0-0.1,0.1-0.1,0.2-0.2c0.4-0.4,0.7-0.8,1.1-1.1c0.1-0.1,0.3-0.2,0.4-0.3
			c0.3-0.3,0.7-0.6,1.1-0.8c0.1-0.1,0.3-0.2,0.4-0.3c0.4-0.3,0.7-0.5,1.1-0.7c0.2-0.1,0.3-0.2,0.5-0.3c0.4-0.2,0.9-0.4,1.3-0.6
			c0.1,0,0.2-0.1,0.4-0.2c0,0,0,0,0.1,0l204.9-76.1c2.2,11,6.2,21.4,11.7,30.7L220.1,358z"/>
		<path fill="#080808" d="M601.8,872c0,9.1-7.4,16.4-16.4,16.4H396.6c-9.1,0-16.4-7.4-16.4-16.4c0-9.1,7.4-16.4,16.4-16.4h78V336.8
			c5.3,0.9,10.8,1.4,16.4,1.4c5.6,0,11.1-0.5,16.4-1.4v518.8h78C594.5,855.6,601.8,862.9,601.8,872z"/>
		<path fill="#080808" d="M989.8,360.2c-2.7-1.5-5.9-2.3-9.2-2.3h-32.4L806,152.2L663.2,357.9h-39.1c-0.3,0-0.6,0-0.9,0L763,156.5
			l-174.5,64.8c-2-11.1-5.8-21.5-11.2-30.9L800,107.7c5.9-2.2,12.2-0.8,16.6,3.1c1.1,0.9,2.1,2,2.9,3.2L989.8,360.2z"/>
		<g>
			<path fill="#080808" d="M703.1,947.3H278.9c-9.1,0-16.4-7.4-16.4-16.4c0-9.1,7.4-16.4,16.4-16.4h424.2c9.1,0,16.4,7.4,16.4,16.4
				C719.5,939.9,712.2,947.3,703.1,947.3z"/>
		</g>
		<path fill="currentColor" d="M378.3,586.8c-2.7-1.5-5.9-2.3-9.2-2.3H12.6c-0.3,0-0.6,0-0.9,0C4.8,585.1-0.5,591,0,598
			C7,699.4,91.4,779.5,194.6,779.5c100.4,0,183.1-75.9,193.8-173.4C389.3,597.9,385,590.5,378.3,586.8z M360.5,627
			c-9,30.2-26.2,57.6-50,79.1c-31.8,28.7-73,44.5-115.9,44.5c-44.1,0-86.2-16.6-118.4-46.8c-22.6-21.2-38.9-47.7-47.5-76.7
			c-0.6-2,2.1-3.1,3.2-1.4c9,15.3,20.3,29.4,33.6,41.8c35.1,32.9,81,51.1,129.2,51.1c46.8,0,91.7-17.2,126.4-48.6
			c14.4-13,26.6-28,36.3-44.4C358.3,623.9,361,625.1,360.5,627z"/>
		<path fill="currentColor" d="M989.8,360.2c-2.7-1.5-5.9-2.3-9.2-2.3H624.1c-0.3,0-0.6,0-0.9,0c-6.9,0.5-12.1,6.5-11.6,13.5
			c6.9,101.4,91.4,181.5,194.5,181.5c100.4,0,183.1-75.9,193.8-173.4C1000.8,371.3,996.5,363.9,989.8,360.2z M971.6,402.6
			c-9,30.2-26.2,57.6-50,79.1c-31.8,28.7-73,44.5-115.9,44.5c-44.1,0-86.2-16.6-118.4-46.8c-22.6-21.2-38.9-47.7-47.5-76.8
			c-0.6-2,2.1-3.1,3.2-1.4c9,15.3,20.3,29.4,33.6,41.8c35.1,32.9,81,51.1,129.2,51.1c46.8,0,91.7-17.2,126.4-48.5
			c14.4-13,26.6-28,36.3-44.4C969.5,399.5,972.2,400.6,971.6,402.6z"/>
		<path fill="#080808" d="M588.5,221.3c-2-11.1-5.8-21.5-11.2-30.9c-17-30.1-49.3-50.4-86.3-50.4c-54.7,0-99.1,44.4-99.1,99.1
			c0,6.7,0.7,13.2,1.9,19.4c2.2,11,6.2,21.4,11.7,30.7c14.6,24.8,39.6,42.7,69,47.6c5.3,0.9,10.8,1.4,16.4,1.4
			c5.6,0,11.1-0.5,16.4-1.4c46.9-7.8,82.7-48.6,82.7-97.8C590.1,232.9,589.6,227,588.5,221.3z M507.4,265.3c-4.8,3-10.4,4.7-16.4,4.7
			c-6,0-11.7-1.7-16.4-4.7c-0.6-0.4-1.1-0.7-1.7-1.1c-7.8-5.6-12.9-14.8-12.9-25.2c0-1.8,0.2-3.6,0.5-5.3
			c2.5-14.6,15.2-25.7,30.6-25.7c7.5,0,14.3,2.7,19.7,7.1c6.9,5.7,11.3,14.3,11.3,23.9c0,2.5-0.3,4.9-0.9,7.3
			C519.2,254.3,514.2,261.1,507.4,265.3z"/>
	</symbol>
	<symbol id="bookmarks-i" class="svg-icon bookmarks-i" viewBox="0 0 1000 1000" x="0px" y="0px">
		<path fill="#080808" d="M889.2,2.9h-92.8v35.5h75.1v926.1H220.9V38.4h192.4V2.9H203.1c0,0,0,0,0,0h-53.7C102.8,2.9,65,40.8,65,87.3
			v828.3c0,46.5,37.9,84.4,84.4,84.4h53.7c0,0,0,0,0,0c0,0,0,0,0,0h686c9.8,0,17.7-7.9,17.7-17.7V20.7C906.9,10.9,899,2.9,889.2,2.9z
			 M100.4,915.6V87.3c0-27,22-48.9,48.9-48.9h36v926.1h-36C122.4,964.5,100.4,942.6,100.4,915.6z"/>
		<path fill="currentColor" d="M413.2,593.1L604.9,437l191.5,156V2.9H413.2V593.1z M475.7,219.3h94.9c1.1,0,2.1-0.7,2.5-1.8l29.3-90.2
			c0.8-2.4,4.1-2.4,4.9,0l29.3,90.2c0.3,1.1,1.3,1.8,2.5,1.8h94.9c2.5,0,3.5,3.2,1.5,4.7l-76.7,55.8c-0.9,0.7-1.3,1.8-0.9,2.9
			l29.3,90.2c0.8,2.4-1.9,4.3-4,2.9l-76.7-55.8c-0.9-0.7-2.1-0.7-3,0l-76.7,55.8c-2,1.5-4.7-0.5-4-2.9l29.3-90.2
			c0.3-1.1,0-2.2-0.9-2.9L474.2,224C472.2,222.5,473.2,219.3,475.7,219.3z"/>
		<g>
			<path fill="#080808" d="M776.8,795.8H323.5c-9.5,0-17.2-7.7-17.2-17.2c0-9.5,7.7-17.2,17.2-17.2h453.3c9.5,0,17.2,7.7,17.2,17.2
				C794,788.1,786.3,795.8,776.8,795.8z"/>
		</g>
		<g>
			<path fill="#080808" d="M776.8,892.8H323.5c-9.5,0-17.2-7.7-17.2-17.2c0-9.5,7.7-17.2,17.2-17.2h453.3c9.5,0,17.2,7.7,17.2,17.2
				C794,885.1,786.3,892.8,776.8,892.8z"/>
		</g>
	</symbol>
	<symbol id="garage-2" class="svg-icon garage-i" viewBox="0 0 1000 1000" x="0px" y="0px">
		<g>
			<path fill="currentColor" d="M146.5,791.2V825c0,9.7-7.8,17.5-17.5,17.5H19.6c-9.7,0-17.5-7.9-17.5-17.5V588.5
				c6.7,88.2,27.1,182.3,28.1,187c1.6,7.6,8.2,13,16,13.2L146.5,791.2z"/>
		</g>
		<g>
			<path fill="currentColor" d="M997.9,588.5V825c0,9.7-7.8,17.5-17.5,17.5H871c-9.7,0-17.5-7.9-17.5-17.5v-33.8l100.3-2.5
				c7.7-0.2,14.3-5.6,16-13.2C970.8,770.8,991.2,676.6,997.9,588.5z"/>
		</g>
		<g>
			<path fill="#080808" d="M738.5,748.5h-477c-6.9,0-13-4.2-15.6-10.5l-31.4-78.2c-4.1-10.1-2.8-21.5,3.2-30.5c6.1-9,16.2-14.4,27.1-14.4
				h510.4c10.9,0,21,5.4,27.1,14.4c6.1,9,7.3,20.4,3.2,30.5L754.1,738C751.5,744.3,745.4,748.5,738.5,748.5z M272.9,714.9h454.3
				l26.7-66.3H246.2L272.9,714.9z M755.2,648.6L755.2,648.6L755.2,648.6z"/>
		</g>
		<g>
			<path fill="#080808" d="M135.6,735.5c-32.5,0-58.9-26.4-58.9-58.9c0-32.5,26.4-58.9,58.9-58.9s58.9,26.4,58.9,58.9
				C194.5,709.1,168.1,735.5,135.6,735.5z M135.6,651.2c-14,0-25.3,11.4-25.3,25.3c0,14,11.4,25.3,25.3,25.3s25.3-11.4,25.3-25.3
				C160.9,662.6,149.5,651.2,135.6,651.2z"/>
		</g>
		<g>
			<path fill="#080808" d="M864.2,735.5c-32.5,0-58.9-26.4-58.9-58.9c0-32.5,26.4-58.9,58.9-58.9c32.5,0,58.9,26.4,58.9,58.9
				C923.2,709.1,896.7,735.5,864.2,735.5z M864.2,651.2c-14,0-25.3,11.4-25.3,25.3c0,14,11.4,25.3,25.3,25.3c14,0,25.3-11.4,25.3-25.3
				C889.6,662.6,878.2,651.2,864.2,651.2z"/>
		</g>
		<path fill="#080808" d="M742.6,396.2c-2.2-1-55.8-23.6-242.6-23.6s-240.4,22.7-242.6,23.6l13.5,30.8l-0.2,0.1
			c0.5-0.2,52.3-20.9,229.2-20.9s228.7,20.7,229.2,20.9l-0.2-0.1L742.6,396.2z"/>
		<path fill="#080808" d="M946.1,411.9c-10-10.7-19.9-19.6-28.5-26.5h46.8c9.7,0,18.5-4.9,23.6-13.2c5-8.3,5.4-18.4,1-27l-14.9-29
			c-4.8-9.2-14.1-15-24.5-15h-94.3l-49-85c-11-19.1-29.9-31.9-51.8-35c-36.4-5.2-117.8-14-254.3-14c-136.5,0-217.9,8.8-254.3,14
			c-21.9,3.1-40.8,15.9-51.8,35l-49,85H49.4c-10.4,0-19.8,5.7-24.5,15l-14.9,29c-4.4,8.6-4.1,18.7,1,27c5.1,8.3,13.9,13.2,23.6,13.2
			h47.9c-8.6,6.9-18.5,15.7-28.5,26.5C18.6,449.9,0,493.3,0,537.6c0,16.2,0.8,33.5,2.1,50.9c6.7,88.2,27.1,182.3,28.1,187
			c1.6,7.6,8.2,13,16,13.2l100.3,2.5l353,9c0.1,0,0.3,0,0.4,0c0.1,0,0.3,0,0.4,0l353-9l100.3-2.5c7.7-0.2,14.3-5.6,16-13.2
			c1-4.7,21.4-98.9,28.1-187c1.3-17.4,2.1-34.7,2.1-50.9C1000,493.3,981.4,449.9,946.1,411.9z M945.8,334.9l8.7,16.9h-70.2l-9.8-16.9
			H945.8z M223,233.1c5.8-10.1,15.8-16.9,27.4-18.6c35.5-5.1,115.1-13.6,249.5-13.6c134.4,0,214,8.5,249.5,13.6
			c11.6,1.7,21.6,8.4,27.4,18.6L843.8,349c-54.4-16-159.5-36.2-343.8-36.2c-184.3,0-289.4,20.2-343.8,36.2L223,233.1z M44.4,351.9
			l8.7-16.9h72.4l-9.8,16.9H44.4z M939.6,755.5L500,766.6L60.4,755.5c-7.3-36.1-26.8-140.4-26.8-217.9c0-35.8,14.9-70.2,44.3-102
			c22.7-24.7,46-38.4,46.2-38.5c0.1-0.1,0.1-0.1,0.2-0.1c1.3-0.7,23.6-13,79.3-25.2c52.7-11.5,146.9-25.2,296.4-25.2
			c149.5,0,243.7,13.7,296.4,25.2c55.8,12.2,78.1,24.5,79.3,25.2c0.1,0,0.1,0,0.2,0.1c0.2,0.1,23.5,13.9,46.2,38.5
			c29.4,31.9,44.3,66.2,44.3,102C966.4,615,946.8,719.4,939.6,755.5z"/>
		<g>
			<path fill="#080808" d="M794.4,559.4l-1.1-2.8l-14.5-36.8c-6.7-17.1-17.7-31.8-31.3-43c-17.3-14.2-39.1-22.9-62.5-24l-184.2-8.2
				c-0.5,0-1,0-1.5,0L315,452.7c-23.3,1-45.1,9.7-62.5,24c-13.7,11.2-24.6,25.9-31.3,43l-14.5,36.8l-1.1,2.8c-2,5.2-1.4,11,1.8,15.6
				c3.1,4.6,8.3,7.3,13.9,7.3h557.4c5.6,0,10.8-2.7,13.9-7.3C795.7,570.4,796.4,564.5,794.4,559.4z M246,548.7l6.6-16.7
				c10.4-26.5,35.6-44.5,64-45.7l183.5-8.2l183.5,8.2c14.2,0.6,27.6,5.4,38.8,13.4c11.1,8,20,19.1,25.2,32.3l6.6,16.7H246z"/>
		</g>
		<path fill="currentColor" d="M104.1,476.7c-6.6,0-12.7,3.5-16,9.3l-24.6,42.9c-7.1,12.3,1.8,27.6,16,27.6h127.3l14.5-36.8
			c6.7-17.1,17.7-31.8,31.3-43H104.1z M133.5,548.4c-16.2,0-29.4-13.1-29.4-29.4c0-16.2,13.1-29.4,29.4-29.4
			c16.2,0,29.4,13.1,29.4,29.4C162.8,535.3,149.7,548.4,133.5,548.4z M174.8,503.3c-5.1,0-9.3-4.2-9.3-9.3c0-5.1,4.2-9.3,9.3-9.3
			s9.3,4.2,9.3,9.3C184.1,499.2,180,503.3,174.8,503.3z"/>
		<path fill="currentColor" d="M936.6,528.9L912,486c-3.3-5.7-9.4-9.3-16-9.3H747.4c13.7,11.2,24.6,25.9,31.3,43l14.5,36.8h127.3
			C934.7,556.5,943.6,541.2,936.6,528.9z M832.4,548.4c-16.2,0-29.4-13.1-29.4-29.4c0-16.2,13.1-29.4,29.4-29.4
			c16.2,0,29.4,13.1,29.4,29.4C861.7,535.3,848.6,548.4,832.4,548.4z M873.7,503.3c-5.1,0-9.3-4.2-9.3-9.3c0-5.1,4.2-9.3,9.3-9.3
			c5.1,0,9.3,4.2,9.3,9.3C883,499.2,878.9,503.3,873.7,503.3z"/>
	</symbol>
	<symbol id="balance-2" class="svg-icon balance-i" viewBox="0 0 1000 1000" x="0px" y="0px">
		<g>
			<path fill="#080808" d="M951.5,640.7V454c0-9.2-7.4-16.6-16.6-16.6H16.6C7.4,437.3,0,444.8,0,454v528.8c0,9.2,7.5,16.6,16.6,16.6
				h918.3c9.2,0,16.6-7.4,16.6-16.6V834.9c27.1-2.3,48.5-25.1,48.5-52.8v-88.6C1000,665.8,978.6,643,951.5,640.7z M122,966.1H33.2
				V470.6H122V966.1z M918.3,966.1h-763V470.6h763v169.9H665.2c-29.2,0-53,23.8-53,53v88.6c0,29.2,23.8,53,53,53h253.1V966.1z
				 M966.7,782.1c0,10.9-8.9,19.8-19.8,19.8H665.2c-10.2,0-18.6-7.8-19.6-17.7c-0.1-0.7-0.1-1.3-0.1-2v-88.6c0-0.7,0-1.4,0.1-2
				c1-9.9,9.4-17.7,19.6-17.7H947c10.9,0,19.8,8.9,19.8,19.8V782.1z"/>
			<path fill="#080808" d="M893.2,721.2h-175c-9.2,0-16.6,7.4-16.6,16.6c0,9.2,7.4,16.6,16.6,16.6h175c9.2,0,16.6-7.4,16.6-16.6
				C909.8,728.6,902.4,721.2,893.2,721.2z"/>
			<path fill="#080808" d="M775.7,556.4c0-9.2-7.4-16.6-16.6-16.6H215.9c-9.2,0-16.6,7.4-16.6,16.6c0,9.2,7.4,16.6,16.6,16.6h543.2
				C768.3,573,775.7,565.5,775.7,556.4z"/>
		</g>
		<path fill="currentColor" d="M500,91.4c-137.8,0-249.5,111.7-249.5,249.5c0,34.2,6.9,66.8,19.3,96.4h157c-1-1-2.1-2.1-3.1-3.2
			c-12.3-13.7-18.4-31-18.4-52h67.3c0,5.1,1.3,9.5,3.9,13.1c2.6,3.6,5.9,6.3,10,8.1c4.1,1.8,8.6,2.6,13.5,2.6c7.2,0,13.5-1.8,18.8-5.3
			c5.3-3.5,7.9-8.2,7.9-14c0-2.8-0.8-5.3-2.3-7.5c-1.5-2.2-3.2-4-5.1-5.4c-1.9-1.4-4.9-2.9-8.9-4.4c-4.1-1.5-7.5-2.7-10.3-3.5
			c-2.8-0.8-7.1-1.9-13-3.3h-1c-6.5-1.9-11.6-3.2-15.1-4c-3.5-0.8-8.5-2.4-14.9-4.7c-6.4-2.3-11.4-4.5-14.9-6.7
			c-3.5-2.1-7.7-5-12.4-8.8c-4.8-3.7-8.4-7.8-10.9-12.1c-2.4-4.3-4.6-9.6-6.5-15.8c-1.9-6.2-2.8-13-2.8-20.5
			c0-18.9,5.6-34.4,16.8-46.5c11.2-12,26.9-19.9,47-23.7V197h52.6v23.1c9.8,1.9,18.6,4.9,26.3,9.1c7.7,4.2,14.3,9.4,19.6,15.6
			c5.4,6.2,9.4,13.4,12.1,21.6c2.7,8.2,4,17.2,4,27h-65.2c0-4.4-1.1-8.2-3.3-11.4c-2.2-3.2-5.2-5.4-8.8-6.8c-3.6-1.4-7.6-2.1-12.1-2.1
			c-6.3,0-11.7,1.3-16.3,3.8c-4.6,2.6-6.8,6.2-6.8,10.9c0,2.3,0.4,4.4,1.2,6.1c0.8,1.8,2.3,3.4,4.4,4.9c2.1,1.5,4.1,2.8,6,3.7
			c1.9,0.9,4.7,2,8.6,3.3c3.9,1.3,6.9,2.2,9.1,2.8c2.2,0.6,5.9,1.5,11.1,2.6c6.8,1.9,11.9,3.3,15.4,4.2c3.5,0.9,8.6,2.6,15.3,5.1
			c6.7,2.5,11.8,4.8,15.4,7c3.6,2.2,8,5.3,13,9.1c5,3.9,8.8,8,11.4,12.3c2.6,4.3,4.8,9.6,6.6,16c1.9,6.3,2.8,13.2,2.8,20.7
			c0,20.3-6.1,36.9-18.2,49.8c-0.6,0.7-1.3,1.3-2,2h155.7c12.4-29.7,19.3-62.3,19.3-96.4C749.5,203.1,637.8,91.4,500,91.4z"/>
	</symbol>
	<symbol id="cart-2" class="svg-icon cart-i" viewBox="0 0 1000 1000" x="0px" y="0px">
		<path fill="#080808" d="M990.5,251.7c-8.1-3.7-17.7-0.1-21.4,8l-145.7,319c-6.8,15-21.9,24.6-38.3,24.6c-0.1,0-0.1,0-0.2,0
			c-57.4-0.3-168.3-0.7-265.6-0.9c-54.3-0.1-97.2-0.1-127.6,0.1c-31.9,0.1-46.5,0.3-53.9,0.7L218.1,195.9
			c-7.2-24.5-21.8-45.5-42.2-60.8c-20.4-15.3-44.7-23.4-70.2-23.4H16.2c-8.9,0-16.2,7.2-16.2,16.2S7.2,144,16.2,144h89.5
			c37.4,0,70.9,25.1,81.4,60.9l130.6,444.7c8.7,29.6,26.3,54.9,51,73.4c24.7,18.5,54,28.2,84.8,28.2h344c8.9,0,16.2-7.2,16.2-16.2
			s-7.2-16.2-16.2-16.2h-344c-48.1,0-91.2-32.2-104.7-78.4l-1.5-5.3c39.5-0.8,201.4-0.7,437.6,0.4c0.1,0,0.2,0,0.3,0
			c29.1,0,55.6-17.1,67.7-43.5l145.7-319C1002.2,265,998.7,255.4,990.5,251.7z"/>
		<path fill="currentColor" d="M406.8,782.3c-57,0-103.2,46.2-103.2,103.2s46.2,103.2,103.2,103.2c57,0,103.2-46.2,103.2-103.2
			S463.8,782.3,406.8,782.3z M406.8,942.8c-31.6,0-57.3-25.6-57.3-57.3s25.6-57.3,57.3-57.3c31.6,0,57.3,25.6,57.3,57.3
			S438.4,942.8,406.8,942.8z"/>
		<path fill="currentColor" d="M797.4,782.3c-57,0-103.2,46.2-103.2,103.2s46.2,103.2,103.2,103.2c57,0,103.2-46.2,103.2-103.2
			S854.4,782.3,797.4,782.3z M797.4,942.8c-31.6,0-57.3-25.6-57.3-57.3s25.6-57.3,57.3-57.3s57.3,25.6,57.3,57.3
			S829,942.8,797.4,942.8z"/>
		<path fill="currentColor" d="M764.5,197.1H409.5c-14,0-25.3,11.3-25.3,25.3v355.1c0,14,11.3,25.3,25.3,25.3h355.1c14,0,25.3-11.3,25.3-25.3
			V222.5C789.8,208.5,778.5,197.1,764.5,197.1z M686.6,421.3L591.1,570c-1.9,3-6.3,3-8.3,0l-95.5-148.8c-2.1-3.3,0.2-7.6,4.1-7.6H549
			c2.7,0,4.9-2.2,4.9-4.9V246.3c0-2.7,2.2-4.9,4.9-4.9h56.2c2.7,0,4.9,2.2,4.9,4.9v162.5c0,2.7,2.2,4.9,4.9,4.9h57.6
			C686.4,413.7,688.7,418,686.6,421.3z"/>
	</symbol>
	<symbol id="garage-i" class="svg-icon garage-i"  x="0px" y="0px" viewBox="0 0 458.2 458.2">
		<g>	<g>		<path d="M408.6,267.4l-7.4-6.9c0-0.1-0.1-0.2-0.2-0.3l-29.8-80.5c-5.3-14.1-18.8-23.5-33.9-23.5h-211c-15.1,0-28.6,9.4-33.9,23.5
					l-29.5,79.6l-11.2,9.3c-11.1,9.3-17.5,23-17.6,37.5v116c0,19.9,16.6,36.1,36.5,36.1h21.8c19.8,0,35.7-16.1,35.7-35.8
					c0-0.1,0-0.2,0-0.2v-15h202v14.9c-0.2,19.8,15.7,35.9,35.5,36.1c0.1,0,0.2,0,0.2,0h21.8c19.9,0,36.5-16.2,36.5-36.1V303.2
					C424.1,289.6,418.5,276.7,408.6,267.4z M111.2,186.5c2.4-6.3,8.4-10.4,15.1-10.3h210.9c6.7-0.1,12.7,4,15.1,10.3l24.9,66.7h-15.3
					c-4.8-27-28.7-48.3-57.5-48.3s-52.6,21.3-57.3,48.3H86.4L111.2,186.5z M341.5,253.2h-74c5.5-20.4,26.6-32.5,47-27
					C327.7,229.8,338,240,341.5,253.2z M108.2,422.1c0.2,8.7-6.7,15.9-15.4,16.1c-0.1,0-0.2,0-0.3,0H70.7c-8.9,0-16.5-7.2-16.5-16.1
					v-18.6c5.2,2.5,10.8,3.7,16.5,3.7h37.5V422.1z M404.2,422.1c0,8.9-7.6,16.1-16.5,16.1h-21.8c-8.7,0-15.7-7.1-15.7-15.8
					c0-0.1,0-0.2,0-0.3v-14.9h37.5c5.7,0,11.4-1.2,16.5-3.7V422.1z M387.7,387.2h-317c-8.9,0-16.5-7.1-16.5-16v-65
					c0.1-8.7,3.9-16.9,10.5-22.5L77,273.2h308.9l9,8.5c5.9,5.6,9.3,13.3,9.3,21.4v68.1h0C404.2,380.1,396.6,387.2,387.7,387.2z"/>
			</g></g><g>	<g>
				<path fill="currentColor" d="M145.2,303.2h-62a10,10,0,0,0-10,10v43a10,10,0,0,0,10,10h62a10,10,0,0,0,10-10v-43A10,10,0,0,0,145.2,303.2Z"/>
			</g></g><g>	<g>
						<path fill="currentColor" d="M375.2,303.2h-62a10,10,0,0,0-10,10v43a10,10,0,0,0,10,10h62a10,10,0,0,0,10-10v-43A10,10,0,0,0,375.2,303.2Z"/>
			</g></g><g>	<g>
				<path d="M269,337.2h-79.7c-5.5,0-10,4.5-10,10s4.5,10,10,10H269c5.5,0,10-4.5,10-10S274.6,337.2,269,337.2z"/>
			</g></g><g>	<g>
				<path d="M269,312.2h-79.7c-5.5,0-10,4.5-10,10s4.5,10,10,10H269c5.5,0,10-4.5,10-10S274.6,312.2,269,312.2z"/>
			</g></g><g>	<g>
				<path d="M390.6,58.8c5.5,0.5,10.3-3.6,10.8-9.1c0.1-1.2,0-2.4-0.4-3.6c-3.8-13.7-12.2-25.6-23.8-33.8C365.7,4.3,352.1,0,338.1,0
					c-27.8,0-50.4,14.2-60.6,38.2h-99.6C165.8,18.2,143.3,5,120.2,5c-15,0-28.6,4.3-39.4,12.3c-11.6,8.6-19.6,21.4-23.2,37
					c-1.2,5.4,2.1,10.8,7.5,12c1,0.2,2,0.3,3,0.2l32.6-2.5c2.4,5.5,2.4,11.7,0,17.1l-32.8-2.6c-5.5-0.5-10.3,3.6-10.8,9.1
					c-0.1,1.2,0,2.4,0.4,3.6c8,27.7,32.8,45.6,63.2,45.6c27.8,0,50.4-14.6,60.6-38.6h99.2c10.5,18,30.9,33.3,56.8,33.3
					c0.2,0,0.4,0.1,0.6,0.1c14.9,0,28.6-4.2,39.4-12.1c11.6-8.5,19.8-21.1,23.6-36.4c1.3-5.4-1.9-10.8-7.3-12.1
					c-1-0.3-2.1-0.4-3.2-0.3l-32.6,2.5c-2.4-5.5-2.4-11.7,0-17.1L390.6,58.8z M344.5,89.8c2.1,2.7,5.3,4.2,8.7,3.9l22.6-1.8
					c-7.7,12.7-21,19.7-38.1,19.8c-20.1,0.2-36.1-14.2-42.3-27.5c-1.6-3.5-5.2-5.8-9.1-5.9H174.1c-4.4,0-8.3,3-9.6,7.2
					c-5.8,19.3-22.7,31.4-44,31.4c-15.6,0-28.7-6.2-36.9-17l21.4,1.8c3.4,0.3,6.7-1.2,8.8-3.9l0.2-0.3c11.4-14.9,11.3-35.4-0.2-50
					c-2.1-2.7-5.3-4.1-8.7-3.8l-23,1.8c7.5-13,20.7-20.2,38-20.2c17.4,0,34.9,11.2,42.7,27.5c1.7,3.4,5.2,5.6,9,5.5h112.6
					c4.4,0.1,8.3-2.7,9.6-6.9c5.8-19.3,22.7-31.2,43.9-31.2c15.5,0.1,28.6,6.5,36.8,17.3l-21.4-1.8c-3.4-0.3-6.7,1.2-8.8,3.9l-0.2,0.3
					C333.1,54.7,333.2,75.1,344.5,89.8z"/>
			</g></g><g></g><g></g><g></g><g></g><g></g><g></g><g></g><g></g><g></g><g></g><g></g><g></g><g></g><g></g><g></g>
	</symbol>
	<symbol id="balance-i" class="svg-icon balance-i" x="0px" y="0px" viewBox="0 0 480 480" >
		<g><g>
			<path fill="currentColor" d="M154.59,164.2l19.15,8.37a94.16,94.16,0,0,1,86.32-56.5V95.14A115.1,115.1,0,0,0,154.59,164.2Z"/>
		</g></g><g>	<g>
		<path style="fill:#080808;" d="M440,176V92.96c-0.015-22.091-17.936-39.988-40.027-39.973c-4.457,0.003-8.882,0.751-13.093,2.213l-91.36,32
				C278.676,77.331,259.523,72.087,240,72c-45.741-0.044-86.912,27.731-104,70.16L38.08,176C16.742,177.025-0.025,194.637,0,216v224
				c0,22.091,17.909,40,40,40h400c22.091,0,40-17.909,40-40V216C480,193.909,462.091,176,440,176z M392,70.32
				c12.497-4.418,26.209,2.131,30.627,14.627c0.91,2.573,1.374,5.283,1.373,8.013V176h-16v-72h-16v72h-40
				c-2.225-30.298-16.662-58.392-40-77.84L392,70.32z M240,88c50.046-0.174,91.83,38.128,96,88H144.4
				C148.558,126.281,190.108,88.034,240,88z M130.4,161.12c-0.991,4.911-1.659,9.882-2,14.88H87.44L130.4,161.12z M464,440
				c0,13.255-10.745,24-24,24H40c-13.255,0-24-10.745-24-24V216c0-13.255,10.745-24,24-24h400c13.255,0,24,10.745,24,24V440z"/>
		</g>
		</g><g>	<g>
			<rect x="144" y="0" width="16" height="80"/></g></g><g>	<g>
			<rect x="112" y="48" width="16" height="64"/>	</g></g><g>
		<g>
			<path fill="currentColor" d="M167,368H65a17,17,0,0,0-17,17v30a17,17,0,0,0,17,17H167a17,17,0,0,0,17-17V385A17,17,0,0,0,167,368Z"/>
		</g></g><g><g>
			<path fill="currentColor" d="M426.92,240h0c7.22,0,13.08,3.58,13.08,8V424c0,4.42-5.86,8-13.08,8h0c-7.22,0-13.08-3.58-13.08-8V248C413.84,243.58,419.7,240,426.92,240Z"/>
		</g></g><g></g><g></g><g></g><g></g><g></g><g></g><g></g><g></g><g></g><g></g><g></g><g></g><g></g><g></g><g></g>
	</symbol>
	<symbol id="cart-i" class="svg-icon cart-i"  x="0px" y="0px" viewBox="0 0 511.999 511.999">
		<g>	<g>
				<path fill="#080808" d="M214.685,402.828c-24.829,0-45.029,20.2-45.029,45.029c0,24.829,20.2,45.029,45.029,45.029s45.029-20.2,45.029-45.029
					C259.713,423.028,239.513,402.828,214.685,402.828z M214.685,467.742c-10.966,0-19.887-8.922-19.887-19.887
					c0-10.966,8.922-19.887,19.887-19.887s19.887,8.922,19.887,19.887C234.572,458.822,225.65,467.742,214.685,467.742z"/>
			</g></g><g>	<g>
				<path fill="#080808" d="M372.63,402.828c-24.829,0-45.029,20.2-45.029,45.029c0,24.829,20.2,45.029,45.029,45.029s45.029-20.2,45.029-45.029
					C417.658,423.028,397.458,402.828,372.63,402.828z M372.63,467.742c-10.966,0-19.887-8.922-19.887-19.887
					c0-10.966,8.922-19.887,19.887-19.887c10.966,0,19.887,8.922,19.887,19.887C392.517,458.822,383.595,467.742,372.63,467.742z"/>
			</g></g><g>	<g>
				<path fill="currentColor" d="M383.716,165.755H203.567c-6.943,0-12.571,5.628-12.571,12.571c0,6.943,5.629,12.571,12.571,12.571h180.149
					c6.943,0,12.571-5.628,12.571-12.571C396.287,171.382,390.659,165.755,383.716,165.755z"/>
			</g></g><g>	<g>
				<path fill="currentColor" d="M373.911,231.035H213.373c-6.943,0-12.571,5.628-12.571,12.571s5.628,12.571,12.571,12.571h160.537
					c6.943,0,12.571-5.628,12.571-12.571C386.481,236.664,380.853,231.035,373.911,231.035z"/>
			</g></g><g>	<g>		<path fill="#080808" d="M506.341,109.744c-4.794-5.884-11.898-9.258-19.489-9.258H95.278L87.37,62.097c-1.651-8.008-7.113-14.732-14.614-17.989
					l-55.177-23.95c-6.37-2.767-13.773,0.156-16.536,6.524c-2.766,6.37,0.157,13.774,6.524,16.537L62.745,67.17l60.826,295.261
					c2.396,11.628,12.752,20.068,24.625,20.068h301.166c6.943,0,12.571-5.628,12.571-12.571c0-6.943-5.628-12.571-12.571-12.571
					H148.197l-7.399-35.916H451.69c11.872,0,22.229-8.44,24.624-20.068l35.163-170.675
					C513.008,123.266,511.136,115.627,506.341,109.744z M451.69,296.301H135.619l-35.161-170.674l386.393,0.001L451.69,296.301z"/>
			</g></g><g></g><g></g><g></g><g></g><g></g><g></g><g></g><g></g><g></g><g></g><g></g><g></g><g></g><g></g><g></g>
	</symbol>
</svg>
